SplineFontDB: 3.2
FontName: LittleCharacterRegular
FullName: Little Character Regular
FamilyName: Little Character
Weight: Book
Copyright:  
Version: 1.0
ItalicAngle: 0
UnderlinePosition: -150
UnderlineWidth: 50
Ascent: 1638
Descent: 410
InvalidEm: 0
sfntRevision: 0x00010000
LayerCount: 2
Layer: 0 1 "Back" 1
Layer: 1 1 "Fore" 0
XUID: [1021 543 1767942825 387349]
StyleMap: 0x0040
FSType: 0
OS2Version: 3
OS2_WeightWidthSlopeOnly: 0
OS2_UseTypoMetrics: 0
CreationTime: 1747830490
ModificationTime: 1750202567
PfmFamily: 17
TTFWeight: 400
TTFWidth: 5
LineGap: 0
VLineGap: 0
Panose: 2 11 6 6 2 2 1 1 8 1
OS2TypoAscent: 1550
OS2TypoAOffset: 0
OS2TypoDescent: -440
OS2TypoDOffset: 0
OS2TypoLinegap: 0
OS2WinAscent: 1593
OS2WinAOffset: 0
OS2WinDescent: 471
OS2WinDOffset: 0
HheadAscent: 1550
HheadAOffset: 0
HheadDescent: -440
HheadDOffset: 0
OS2SubXSize: 650
OS2SubYSize: 699
OS2SubXOff: 0
OS2SubYOff: 140
OS2SupXSize: 650
OS2SupYSize: 699
OS2SupXOff: 0
OS2SupYOff: 479
OS2StrikeYSize: 49
OS2StrikeYPos: 258
OS2CapHeight: 1382
OS2XHeight: 966
OS2Vendor: 'XXXX'
OS2CodePages: 00000001.00000000
OS2UnicodeRanges: 00000001.00000000.00000000.00000000
MarkAttachClasses: 1
DEI: 91125
ShortTable: maxp 16
  1
  0
  98
  82
  5
  0
  0
  2
  0
  1
  1
  0
  64
  0
  0
  0
EndShort
LangName: 1033 "" "" "" " : Little Character Regular" "" "1.0" "" " " " " "Astrid Bin" " " " " "astridbin.com" "SIL Open Font License" "https://openfontlicense.org/" "" "Little Character" "Regular"
GaspTable: 1 65535 2 0
Encoding: UnicodeBmp
UnicodeInterp: none
NameList: AGL For New Fonts
DisplaySize: -48
AntiAlias: 1
FitToEm: 0
WinInfo: 152 19 9
BeginPrivate: 0
EndPrivate
Grid
864 2662 m 0
 864 -1434 l 1024
  Named: "lower_case_accent_left"
-2048 1032 m 0
 4096 1032 l 1024
  Named: "lower_case_accent"
EndSplineSet
BeginChars: 65538 321

StartChar: .notdef
Encoding: 0 0 0
Width: 913
GlyphClass: 1
Flags: W
LayerCount: 2
Fore
SplineSet
0 1480 m 1,0,-1
 913 1480 l 1,1,-1
 913 0 l 1,2,-1
 0 0 l 1,3,-1
 0 1480 l 1,0,-1
106 106 m 1,4,-1
 808 106 l 1,5,-1
 808 1374 l 1,6,-1
 106 1374 l 1,7,-1
 106 106 l 1,4,-1
EndSplineSet
Validated: 1
EndChar

StartChar: exclam
Encoding: 33 33 4
Width: 458
GlyphClass: 2
Flags: W
LayerCount: 2
Fore
SplineSet
310 1 m 2,0,-1
 148 1 l 2,1,2
 128 1 128 1 114 15 c 128,-1,3
 100 29 100 29 100 48 c 2,4,-1
 100 209 l 2,5,6
 100 229 100 229 114 243 c 128,-1,7
 128 257 128 257 148 257 c 2,8,-1
 310 257 l 2,9,10
 330 257 330 257 344 243 c 128,-1,11
 358 229 358 229 358 209 c 2,12,-1
 358 48 l 2,13,14
 358 28 358 28 344 14.5 c 128,-1,15
 330 1 330 1 310 1 c 2,0,-1
263 161 m 1,16,-1
 195 161 l 1,17,-1
 195 96 l 1,18,-1
 263 96 l 1,19,-1
 263 161 l 1,16,-1
228 1501 m 128,-1,21
 256 1501 256 1501 276 1481 c 128,-1,22
 296 1461 296 1461 296 1433 c 2,23,-1
 296 520 l 2,24,25
 296 492 296 492 276 472 c 128,-1,26
 256 452 256 452 228 452 c 128,-1,27
 200 452 200 452 180.5 472 c 128,-1,28
 161 492 161 492 161 520 c 2,29,-1
 161 1433 l 2,30,31
 161 1461 161 1461 180.5 1481 c 128,-1,20
 200 1501 200 1501 228 1501 c 128,-1,21
EndSplineSet
Validated: 1
EndChar

StartChar: quotedbl
Encoding: 34 34 5
Width: 687
GlyphClass: 2
Flags: W
LayerCount: 2
Fore
SplineSet
245 1082 m 2,0,1
 234 1060 234 1060 210 1060 c 0,2,3
 186 1058 186 1058 174 1080 c 2,4,-1
 105 1209 l 2,5,6
 100 1219 100 1219 100 1228 c 2,7,-1
 100 1361 l 2,8,9
 100 1377 100 1377 111.5 1388.5 c 128,-1,10
 123 1400 123 1400 140 1400 c 2,11,-1
 274 1400 l 2,12,13
 291 1400 291 1400 302.5 1388.5 c 128,-1,14
 314 1377 314 1377 314 1361 c 2,15,-1
 314 1228 l 2,16,17
 314 1214 314 1214 304 1202 c 2,18,-1
 245 1082 l 2,0,1
235 1321 m 1,19,-1
 179 1321 l 1,20,-1
 179 1238 l 1,21,-1
 207 1185 l 1,22,-1
 235 1240 l 1,23,-1
 235 1321 l 1,19,-1
519 1082 m 2,24,25
 508 1060 508 1060 484 1060 c 0,26,27
 460 1058 460 1058 448 1080 c 2,28,-1
 379 1209 l 2,29,30
 374 1219 374 1219 374 1228 c 2,31,-1
 374 1361 l 2,32,33
 374 1377 374 1377 385.5 1388.5 c 128,-1,34
 397 1400 397 1400 414 1400 c 2,35,-1
 548 1400 l 2,36,37
 565 1400 565 1400 576.5 1388.5 c 128,-1,38
 588 1377 588 1377 588 1361 c 2,39,-1
 588 1228 l 2,40,41
 588 1214 588 1214 578 1202 c 2,42,-1
 519 1082 l 2,24,25
509 1321 m 1,43,-1
 453 1321 l 1,44,-1
 453 1238 l 1,45,-1
 481 1185 l 1,46,-1
 509 1240 l 1,47,-1
 509 1321 l 1,43,-1
EndSplineSet
Validated: 1
EndChar

StartChar: numbersign
Encoding: 35 35 6
Width: 1144
GlyphClass: 2
Flags: W
LayerCount: 2
Fore
SplineSet
162 897 m 2,0,1
 136 897 136 897 118 915.5 c 128,-1,2
 100 934 100 934 100 959 c 0,3,4
 100 985 100 985 118 1003.5 c 128,-1,5
 136 1022 136 1022 162 1022 c 2,6,-1
 309 1022 l 1,7,-1
 309 1376 l 2,8,9
 309 1402 309 1402 327 1420.5 c 128,-1,10
 345 1439 345 1439 371 1439 c 128,-1,11
 397 1439 397 1439 415 1420.5 c 128,-1,12
 433 1402 433 1402 433 1376 c 2,13,-1
 433 1022 l 1,14,-1
 725 1022 l 1,15,-1
 725 1376 l 2,16,17
 725 1402 725 1402 743.5 1420.5 c 128,-1,18
 762 1439 762 1439 788 1439 c 128,-1,19
 814 1439 814 1439 832 1420.5 c 128,-1,20
 850 1402 850 1402 850 1376 c 2,21,-1
 850 1022 l 1,22,-1
 982 1022 l 2,23,24
 1008 1022 1008 1022 1026.5 1003.5 c 128,-1,25
 1045 985 1045 985 1045 959 c 128,-1,26
 1045 933 1045 933 1026.5 915 c 128,-1,27
 1008 897 1008 897 982 897 c 2,28,-1
 850 897 l 1,29,-1
 850 597 l 1,30,-1
 982 597 l 2,31,32
 1008 597 1008 597 1026.5 579 c 128,-1,33
 1045 561 1045 561 1045 535 c 128,-1,34
 1045 509 1045 509 1026.5 490.5 c 128,-1,35
 1008 472 1008 472 982 472 c 2,36,-1
 850 472 l 1,37,-1
 850 120 l 2,38,39
 850 94 850 94 832 75.5 c 128,-1,40
 814 57 814 57 788 57 c 128,-1,41
 762 57 762 57 743.5 75.5 c 128,-1,42
 725 94 725 94 725 120 c 2,43,-1
 725 472 l 1,44,-1
 433 472 l 1,45,-1
 433 120 l 2,46,47
 433 94 433 94 415 75.5 c 128,-1,48
 397 57 397 57 371 57 c 128,-1,49
 345 57 345 57 327 75.5 c 128,-1,50
 309 94 309 94 309 120 c 2,51,-1
 309 472 l 1,52,-1
 162 472 l 2,53,54
 136 472 136 472 118 490.5 c 128,-1,55
 100 509 100 509 100 535 c 0,56,57
 100 560 100 560 118 578.5 c 128,-1,58
 136 597 136 597 162 597 c 2,59,-1
 309 597 l 1,60,-1
 309 897 l 1,61,-1
 162 897 l 2,0,1
433 897 m 1,62,-1
 433 597 l 1,63,-1
 725 597 l 1,64,-1
 725 897 l 1,65,-1
 433 897 l 1,62,-1
EndSplineSet
Validated: 1
EndChar

StartChar: dollar
Encoding: 36 36 7
Width: 1177
GlyphClass: 2
Flags: W
LayerCount: 2
Fore
SplineSet
373 634 m 2,0,1
 346 634 346 634 330 652 c 2,2,-1
 118 863 l 2,3,4
 100 880 100 880 100 906 c 2,5,-1
 100 1108 l 2,6,7
 100 1136 100 1136 118 1152 c 2,8,-1
 329 1363 l 2,9,10
 347 1381 347 1381 373 1381 c 2,11,-1
 532 1381 l 1,12,-1
 532 1463 l 2,13,14
 532 1489 532 1489 550 1507 c 128,-1,15
 568 1525 568 1525 594 1525 c 128,-1,16
 620 1525 620 1525 638 1506.5 c 128,-1,17
 656 1488 656 1488 656 1463 c 2,18,-1
 656 1381 l 1,19,-1
 793 1381 l 2,20,21
 799 1381 799 1381 811 1379 c 0,22,23
 831 1376 831 1376 846 1361 c 2,24,-1
 1059 1149 l 2,25,26
 1077 1131 1077 1131 1077 1105 c 128,-1,27
 1077 1079 1077 1079 1059 1061 c 128,-1,28
 1041 1043 1041 1043 1015.5 1043 c 128,-1,29
 990 1043 990 1043 971 1061 c 2,30,-1
 775 1257 l 1,31,-1
 656 1257 l 1,32,-1
 656 758 l 1,33,-1
 800 758 l 1,34,-1
 802 758 l 2,35,36
 830 758 830 758 848 740 c 2,37,-1
 1059 529 l 2,38,39
 1078 510 1078 510 1078 485 c 2,40,-1
 1078 265 l 2,41,42
 1078 238 1078 238 1059 221 c 2,43,-1
 848 17 l 2,44,45
 830 -1 830 -1 805 -1 c 2,46,-1
 656 -1 l 1,47,-1
 656 -148 l 2,48,49
 656 -174 656 -174 638 -192 c 128,-1,50
 620 -210 620 -210 594 -210 c 128,-1,51
 568 -210 568 -210 550 -192 c 128,-1,52
 532 -174 532 -174 532 -148 c 2,53,-1
 532 -1 l 1,54,-1
 384 -1 l 2,55,56
 367 -1 367 -1 352 8 c 0,57,58
 343 12 343 12 333 20 c 2,59,-1
 120 221 l 2,60,61
 101 238 101 238 100 264 c 128,-1,62
 99 290 99 290 117 309 c 0,63,64
 134 327 134 327 160 328 c 128,-1,65
 186 329 186 329 205 311 c 2,66,-1
 405 123 l 1,67,-1
 532 123 l 1,68,-1
 532 634 l 1,69,-1
 373 634 l 2,0,1
399 1257 m 1,70,-1
 224 1083 l 1,71,-1
 224 932 l 1,72,-1
 399 758 l 1,73,-1
 532 758 l 1,74,-1
 532 1257 l 1,75,-1
 399 1257 l 1,70,-1
656 634 m 1,76,-1
 656 123 l 1,77,-1
 779 123 l 1,78,-1
 953 291 l 1,79,-1
 953 459 l 1,80,-1
 779 634 l 1,81,-1
 656 634 l 1,76,-1
EndSplineSet
Validated: 1
EndChar

StartChar: percent
Encoding: 37 37 8
Width: 1175
GlyphClass: 2
Flags: W
LayerCount: 2
Fore
SplineSet
1057 1134 m 0,0,1
 1073 1121 1073 1121 1075.5 1099 c 128,-1,2
 1078 1077 1078 1077 1064 1061 c 2,3,-1
 191 19 l 2,4,5
 177 2 177 2 156 0.5 c 128,-1,6
 135 -1 135 -1 118 13 c 0,7,8
 102 26 102 26 100 47.5 c 128,-1,9
 98 69 98 69 112 85 c 2,10,-1
 984 1127 l 2,11,12
 998 1143 998 1143 1019.5 1145.5 c 128,-1,13
 1041 1148 1041 1148 1057 1134 c 0,0,1
329 1150 m 2,14,15
 351 1150 351 1150 366 1134.5 c 128,-1,16
 381 1119 381 1119 381 1098 c 2,17,-1
 381 933 l 2,18,19
 381 912 381 912 366 897 c 128,-1,20
 351 882 351 882 329 882 c 2,21,-1
 155 882 l 2,22,23
 134 882 134 882 119 897 c 128,-1,24
 104 912 104 912 104 933 c 2,25,-1
 104 1098 l 2,26,27
 104 1119 104 1119 119 1134.5 c 128,-1,28
 134 1150 134 1150 155 1150 c 2,29,-1
 329 1150 l 2,14,15
207 985 m 1,30,-1
 277 985 l 1,31,-1
 277 1046 l 1,32,-1
 207 1046 l 1,33,-1
 207 985 l 1,30,-1
1024 268 m 2,34,35
 1046 268 1046 268 1061 253 c 128,-1,36
 1076 238 1076 238 1076 217 c 2,37,-1
 1076 52 l 2,38,39
 1076 31 1076 31 1061 16 c 128,-1,40
 1046 1 1046 1 1024 1 c 2,41,-1
 850 1 l 2,42,43
 829 1 829 1 814 16 c 128,-1,44
 799 31 799 31 799 52 c 2,45,-1
 799 217 l 2,46,47
 799 238 799 238 814 253 c 128,-1,48
 829 268 829 268 850 268 c 2,49,-1
 1024 268 l 2,34,35
902 104 m 1,50,-1
 972 104 l 1,51,-1
 972 165 l 1,52,-1
 902 165 l 1,53,-1
 902 104 l 1,50,-1
EndSplineSet
Validated: 1
EndChar

StartChar: ampersand
Encoding: 38 38 9
Width: 1144
GlyphClass: 2
Flags: W
LayerCount: 2
Fore
SplineSet
782 362 m 1,0,-1
 939 521 l 2,1,2
 957 539 957 539 982.5 539 c 128,-1,3
 1008 539 1008 539 1026 521 c 0,4,5
 1045 503 1045 503 1045 477.5 c 128,-1,6
 1045 452 1045 452 1027 434 c 2,7,-1
 870 274 l 1,8,-1
 1030 115 l 2,9,10
 1048 97 1048 97 1048 71.5 c 128,-1,11
 1048 46 1048 46 1030 27 c 0,12,13
 1012 9 1012 9 986.5 9 c 128,-1,14
 961 9 961 9 942 27 c 2,15,-1
 783 186 l 1,16,-1
 626 28 l 2,17,18
 609 9 609 9 582 9 c 2,19,-1
 369 9 l 2,20,21
 345 9 345 9 325 27 c 2,22,-1
 118 234 l 2,23,24
 100 252 100 252 100 278 c 2,25,-1
 100 483 l 2,26,27
 100 507 100 507 117 526 c 2,28,-1
 277 690 l 1,29,-1
 118 849 l 2,30,31
 100 865 100 865 100 893 c 2,32,-1
 100 1107 l 2,33,34
 100 1131 100 1131 116 1150 c 2,35,-1
 322 1369 l 2,36,37
 340 1387 340 1387 367 1389 c 0,38,39
 393 1389 393 1389 412 1370 c 2,40,-1
 627 1151 l 2,41,42
 645 1131 645 1131 645 1107 c 2,43,-1
 645 915 l 2,44,45
 645 891 645 891 627 871 c 2,46,-1
 452 691 l 1,47,-1
 782 362 l 1,0,-1
521 940 m 1,48,-1
 521 1082 l 1,49,-1
 369 1237 l 1,50,-1
 224 1083 l 1,51,-1
 224 918 l 1,52,-1
 364 779 l 1,53,-1
 521 940 l 1,48,-1
365 603 m 1,54,-1
 224 458 l 1,55,-1
 224 304 l 1,56,-1
 394 133 l 1,57,-1
 557 133 l 1,58,-1
 695 274 l 1,59,-1
 365 603 l 1,54,-1
EndSplineSet
Validated: 1
EndChar

StartChar: quotesingle
Encoding: 39 39 10
Width: 477
GlyphClass: 2
Flags: W
LayerCount: 2
Fore
SplineSet
283 1145 m 2,0,1
 265 1145 265 1145 252 1158 c 128,-1,2
 239 1171 239 1171 239 1189 c 2,3,-1
 239 1337 l 2,4,5
 239 1355 239 1355 252 1368 c 128,-1,6
 265 1381 265 1381 283 1381 c 2,7,-1
 433 1381 l 2,8,9
 451 1381 451 1381 464 1368 c 128,-1,10
 477 1355 477 1355 477 1337 c 2,11,-1
 477 1189 l 2,12,13
 477 1170 477 1170 464 1158 c 2,14,-1
 162 856 l 2,15,16
 149 842 149 842 131 842 c 128,-1,17
 113 842 113 842 100 856 c 0,18,19
 87 869 87 869 87 887 c 128,-1,20
 87 905 87 905 100 918 c 2,21,-1
 327 1145 l 1,22,-1
 283 1145 l 2,0,1
389 1293 m 1,23,-1
 327 1293 l 1,24,-1
 327 1233 l 1,25,-1
 389 1233 l 1,26,-1
 389 1293 l 1,23,-1
EndSplineSet
Validated: 1
EndChar

StartChar: parenleft
Encoding: 40 40 11
Width: 799
GlyphClass: 2
Flags: W
LayerCount: 2
Fore
SplineSet
679 1409 m 0,0,1
 659 1429 659 1429 630.5 1429 c 128,-1,2
 602 1429 602 1429 582 1409 c 2,3,-1
 120 945 l 2,4,5
 100 925 100 925 100 896 c 2,6,-1
 100 439 l 2,7,8
 100 411 100 411 120 391 c 2,9,-1
 582 -71 l 2,10,11
 604 -89 604 -89 630.5 -81.5 c 128,-1,12
 657 -74 657 -74 679 -50 c 1,13,14
 699 -35 699 -35 699 -7.5 c 128,-1,15
 699 20 699 20 679 40 c 2,16,-1
 237 482 l 1,17,-1
 237 882 l 1,18,-1
 679 1326 l 2,19,20
 721 1368 721 1368 679 1409 c 0,0,1
EndSplineSet
Validated: 41
EndChar

StartChar: parenright
Encoding: 41 41 12
Width: 794
GlyphClass: 2
Flags: W
LayerCount: 2
Fore
SplineSet
120 1409 m 0,0,1
 140 1429 140 1429 168.5 1429 c 128,-1,2
 197 1429 197 1429 216 1409 c 2,3,-1
 674 949 l 2,4,5
 694 929 694 929 694 901 c 2,6,-1
 694 448 l 2,7,8
 694 420 694 420 674 400 c 2,9,-1
 216 -58 l 2,10,11
 194 -76 194 -76 168.5 -68.5 c 128,-1,12
 143 -61 143 -61 120 -38 c 0,13,14
 100 -23 100 -23 100 4.5 c 128,-1,15
 100 32 100 32 120 51 c 2,16,-1
 558 489 l 1,17,-1
 558 886 l 1,18,-1
 120 1326 l 2,19,20
 78 1368 78 1368 120 1409 c 0,0,1
EndSplineSet
Validated: 33
EndChar

StartChar: asterisk
Encoding: 42 42 13
Width: 1132
GlyphClass: 2
Flags: W
LayerCount: 2
Fore
SplineSet
201 328 m 2,0,1
 184 310 184 310 158 310 c 128,-1,2
 132 310 132 310 115 328 c 0,3,4
 96 346 96 346 96 371.5 c 128,-1,5
 96 397 96 397 115 415 c 2,6,-1
 416 717 l 1,7,-1
 162 717 l 2,8,9
 136 717 136 717 118 735 c 128,-1,10
 100 753 100 753 100 778 c 0,11,12
 100 804 100 804 118 822 c 128,-1,13
 136 840 136 840 162 840 c 2,14,-1
 416 840 l 1,15,-1
 115 1140 l 2,16,17
 98 1158 98 1158 98 1183.5 c 128,-1,18
 98 1209 98 1209 115 1227 c 0,19,20
 134 1245 134 1245 159 1245 c 128,-1,21
 184 1245 184 1245 203 1227 c 2,22,-1
 503 926 l 1,23,-1
 503 1185 l 2,24,25
 503 1211 503 1211 521 1229 c 128,-1,26
 539 1247 539 1247 564 1247 c 0,27,28
 590 1247 590 1247 608 1228.5 c 128,-1,29
 626 1210 626 1210 626 1185 c 2,30,-1
 626 926 l 1,31,-1
 928 1228 l 2,32,33
 946 1246 946 1246 971.5 1246 c 128,-1,34
 997 1246 997 1246 1015 1228 c 128,-1,35
 1033 1210 1033 1210 1033 1184.5 c 128,-1,36
 1033 1159 1033 1159 1015 1141 c 2,37,-1
 713 840 l 1,38,-1
 971 840 l 2,39,40
 996 840 996 840 1014.5 822 c 128,-1,41
 1033 804 1033 804 1033 778 c 0,42,43
 1033 753 1033 753 1015 735 c 128,-1,44
 997 717 997 717 971 717 c 2,45,-1
 713 717 l 1,46,-1
 1013 416 l 2,47,48
 1031 398 1031 398 1031 372.5 c 128,-1,49
 1031 347 1031 347 1013 329 c 128,-1,50
 995 311 995 311 969.5 311 c 128,-1,51
 944 311 944 311 926 329 c 2,52,-1
 626 630 l 1,53,-1
 626 371 l 2,54,55
 626 346 626 346 608 327.5 c 128,-1,56
 590 309 590 309 564 309 c 0,57,58
 539 309 539 309 521 327 c 128,-1,59
 503 345 503 345 503 371 c 2,60,-1
 503 629 l 1,61,-1
 201 328 l 2,0,1
EndSplineSet
Validated: 1
EndChar

StartChar: plus
Encoding: 43 43 14
Width: 1148
GlyphClass: 2
Flags: W
LayerCount: 2
Fore
SplineSet
161 603 m 2,0,1
 136 603 136 603 118 621 c 128,-1,2
 100 639 100 639 100 664 c 128,-1,3
 100 689 100 689 118 707 c 128,-1,4
 136 725 136 725 161 725 c 2,5,-1
 513 725 l 1,6,-1
 513 1078 l 2,7,8
 513 1103 513 1103 531 1121 c 128,-1,9
 549 1139 549 1139 574 1139 c 0,10,11
 600 1139 600 1139 617.5 1121.5 c 128,-1,12
 635 1104 635 1104 635 1078 c 2,13,-1
 635 725 l 1,14,-1
 988 725 l 2,15,16
 1013 725 1013 725 1031 707 c 128,-1,17
 1049 689 1049 689 1049 664 c 128,-1,18
 1049 639 1049 639 1031 621 c 128,-1,19
 1013 603 1013 603 988 603 c 2,20,-1
 635 603 l 1,21,-1
 635 249 l 2,22,23
 635 224 635 224 617 206 c 128,-1,24
 599 188 599 188 574 188 c 128,-1,25
 549 188 549 188 531 206 c 128,-1,26
 513 224 513 224 513 249 c 2,27,-1
 513 603 l 1,28,-1
 161 603 l 2,0,1
EndSplineSet
Validated: 1
EndChar

StartChar: comma
Encoding: 44 44 15
Width: 577
GlyphClass: 2
Flags: W
LayerCount: 2
Fore
SplineSet
283 1 m 2,0,1
 265 1 265 1 252 13.5 c 128,-1,2
 239 26 239 26 239 45 c 2,3,-1
 239 193 l 2,4,5
 239 211 239 211 252 224 c 128,-1,6
 265 237 265 237 283 237 c 2,7,-1
 433 237 l 2,8,9
 451 237 451 237 464 224 c 128,-1,10
 477 211 477 211 477 193 c 2,11,-1
 477 45 l 2,12,13
 477 26 477 26 464 14 c 2,14,-1
 162 -288 l 2,15,16
 149 -302 149 -302 131 -302 c 128,-1,17
 113 -302 113 -302 100 -288 c 0,18,19
 87 -275 87 -275 87 -257 c 128,-1,20
 87 -239 87 -239 100 -226 c 2,21,-1
 327 1 l 1,22,-1
 283 1 l 2,0,1
389 149 m 1,23,-1
 327 149 l 1,24,-1
 327 89 l 1,25,-1
 389 89 l 1,26,-1
 389 149 l 1,23,-1
EndSplineSet
Validated: 1
EndChar

StartChar: hyphen
Encoding: 45 45 16
Width: 1147
GlyphClass: 2
Flags: W
LayerCount: 2
Fore
SplineSet
100 688 m 0,0,1
 100 713 100 713 118 731 c 128,-1,2
 136 749 136 749 161 749 c 2,3,-1
 986 749 l 2,4,5
 1011 749 1011 749 1029 731 c 128,-1,6
 1047 713 1047 713 1047 688 c 0,7,8
 1047 662 1047 662 1029 644 c 128,-1,9
 1011 626 1011 626 986 626 c 2,10,-1
 161 626 l 2,11,12
 136 626 136 626 118 644 c 128,-1,13
 100 662 100 662 100 688 c 0,0,1
EndSplineSet
Validated: 1
EndChar

StartChar: period
Encoding: 46 46 17
Width: 437
GlyphClass: 2
Flags: W
LayerCount: 2
Fore
SplineSet
294 3 m 2,0,-1
 144 3 l 2,1,2
 126 3 126 3 113 15.5 c 128,-1,3
 100 28 100 28 100 47 c 2,4,-1
 100 195 l 2,5,6
 100 213 100 213 113 226 c 128,-1,7
 126 239 126 239 144 239 c 2,8,-1
 294 239 l 2,9,10
 312 239 312 239 325 226 c 128,-1,11
 338 213 338 213 338 195 c 2,12,-1
 338 47 l 2,13,14
 338 28 338 28 325 15.5 c 128,-1,15
 312 3 312 3 294 3 c 2,0,-1
250 151 m 1,16,-1
 188 151 l 1,17,-1
 188 91 l 1,18,-1
 250 91 l 1,19,-1
 250 151 l 1,16,-1
EndSplineSet
Validated: 1
EndChar

StartChar: slash
Encoding: 47 47 18
Width: 1169
GlyphClass: 2
Flags: W
LayerCount: 2
Fore
SplineSet
1042 1374 m 128,-1,1
 1063 1360 1063 1360 1068 1334.5 c 128,-1,2
 1073 1309 1073 1309 1059 1288 c 2,3,-1
 214 29 l 2,4,5
 200 8 200 8 174.5 3 c 128,-1,6
 149 -2 149 -2 127 12 c 0,7,8
 106 26 106 26 101 51.5 c 128,-1,9
 96 77 96 77 111 98 c 2,10,-1
 956 1357 l 2,11,12
 970 1379 970 1379 995.5 1383.5 c 128,-1,0
 1021 1388 1021 1388 1042 1374 c 128,-1,1
EndSplineSet
Validated: 1
EndChar

StartChar: zero
Encoding: 48 48 19
Width: 1175
GlyphClass: 2
Flags: W
LayerCount: 2
Fore
SplineSet
100 283 m 2,0,-1
 100 1119 l 2,1,2
 100 1146 100 1146 118 1163 c 2,3,-1
 336 1379 l 2,4,5
 356 1397 356 1397 380 1397 c 2,6,-1
 801 1397 l 2,7,8
 826 1397 826 1397 846 1379 c 2,9,-1
 1057 1168 l 1,10,-1
 1058 1168 l 1,11,12
 1067 1157 1067 1157 1071 1148 c 0,13,14
 1076 1135 1076 1135 1076 1124 c 2,15,-1
 1076 283 l 2,16,17
 1076 271 1076 271 1071 259 c 0,18,19
 1063 245 1063 245 1057 239 c 2,20,-1
 845 32 l 2,21,22
 828 15 828 15 801 15 c 2,23,-1
 380 15 l 2,24,25
 356 15 356 15 337 32 c 2,26,-1
 119 238 l 1,27,-1
 118 239 l 2,28,29
 107 250 107 250 102 268 c 0,30,31
 100 272 100 272 100 283 c 2,0,-1
776 1273 m 1,32,-1
 406 1273 l 1,33,-1
 224 1094 l 1,34,-1
 224 431 l 1,35,-1
 925 1124 l 1,36,37
 901 1148 901 1148 872 1177 c 128,-1,38
 843 1206 843 1206 813.5 1235.5 c 128,-1,39
 784 1265 784 1265 776 1273 c 1,32,-1
951 976 m 1,40,-1
 251 284 l 1,41,-1
 405 138 l 1,42,-1
 776 138 l 1,43,-1
 951 309 l 1,44,-1
 951 976 l 1,40,-1
EndSplineSet
Validated: 1
EndChar

StartChar: one
Encoding: 49 49 20
Width: 1175
GlyphClass: 2
Flags: W
LayerCount: 2
Fore
SplineSet
1013 128 m 2,0,1
 1039 128 1039 128 1057 110 c 128,-1,2
 1075 92 1075 92 1075 66 c 128,-1,3
 1075 40 1075 40 1057 22 c 128,-1,4
 1039 4 1039 4 1013 4 c 2,5,-1
 162 4 l 2,6,7
 136 4 136 4 118 22 c 128,-1,8
 100 40 100 40 100 66 c 128,-1,9
 100 92 100 92 118 110 c 128,-1,10
 136 128 136 128 162 128 c 2,11,-1
 535 128 l 1,12,-1
 535 1178 l 1,13,-1
 205 857 l 2,14,15
 187 839 187 839 161.5 839 c 128,-1,16
 136 839 136 839 118 858 c 0,17,18
 100 876 100 876 100 902 c 128,-1,19
 100 928 100 928 119 945 c 2,20,-1
 553 1369 l 2,21,22
 584 1397 584 1397 621 1381 c 0,23,24
 658 1367 658 1367 658 1324 c 2,25,-1
 658 128 l 1,26,-1
 1013 128 l 2,0,1
EndSplineSet
Validated: 33
EndChar

StartChar: two
Encoding: 50 50 21
Width: 1176
GlyphClass: 2
Flags: W
LayerCount: 2
Fore
SplineSet
123 1076 m 128,-1,1
 105 1094 105 1094 105 1119.5 c 128,-1,2
 105 1145 105 1145 123 1163 c 2,3,-1
 328 1368 l 2,4,5
 348 1386 348 1386 372 1386 c 2,6,-1
 792 1386 l 2,7,8
 816 1386 816 1386 835 1370 c 2,9,-1
 1057 1165 l 2,10,11
 1077 1145 1077 1145 1077 1119 c 2,12,-1
 1077 925 l 2,13,14
 1077 901 1077 901 1059 881 c 2,15,-1
 311 127 l 1,16,-1
 1015 127 l 2,17,18
 1041 127 1041 127 1059 109 c 128,-1,19
 1077 91 1077 91 1077 65 c 0,20,21
 1077 40 1077 40 1059 22 c 128,-1,22
 1041 4 1041 4 1015 4 c 2,23,-1
 162 4 l 2,24,25
 120 4 120 4 105 42 c 0,26,27
 89 80 89 80 118 109 c 2,28,-1
 953 950 l 1,29,-1
 953 1092 l 1,30,-1
 768 1262 l 1,31,-1
 398 1262 l 1,32,-1
 211 1076 l 2,33,34
 193 1058 193 1058 167 1058 c 128,-1,0
 141 1058 141 1058 123 1076 c 128,-1,1
EndSplineSet
Validated: 33
EndChar

StartChar: three
Encoding: 51 51 22
Width: 1174
GlyphClass: 2
Flags: W
LayerCount: 2
Fore
SplineSet
951 931 m 1,0,-1
 951 1085 l 1,1,-1
 773 1262 l 1,2,-1
 393 1262 l 1,3,-1
 206 1073 l 2,4,5
 188 1055 188 1055 162.5 1055 c 128,-1,6
 137 1055 137 1055 119 1073 c 0,7,8
 100 1090 100 1090 100 1115.5 c 128,-1,9
 100 1141 100 1141 118 1160 c 2,10,-1
 323 1367 l 2,11,12
 341 1385 341 1385 367 1385 c 2,13,-1
 799 1385 l 2,14,15
 825 1385 825 1385 843 1367 c 2,16,-1
 1057 1154 l 2,17,18
 1075 1136 1075 1136 1075 1110 c 2,19,-1
 1075 905 l 2,20,21
 1075 880 1075 880 1056 861 c 2,22,-1
 888 694 l 1,23,-1
 1057 531 l 2,24,25
 1075 514 1075 514 1075 488 c 2,26,-1
 1075 279 l 2,27,28
 1075 254 1075 254 1057 236 c 2,29,-1
 843 22 l 2,30,31
 825 4 825 4 799 4 c 2,32,-1
 367 4 l 2,33,34
 340 4 340 4 323 23 c 2,35,-1
 117 237 l 2,36,37
 99 255 99 255 99.5 280.5 c 128,-1,38
 100 306 100 306 119 324 c 0,39,40
 138 341 138 341 163.5 340.5 c 128,-1,41
 189 340 189 340 207 322 c 2,42,-1
 394 127 l 1,43,-1
 773 127 l 1,44,-1
 951 305 l 1,45,-1
 951 462 l 1,46,-1
 773 633 l 1,47,-1
 579 633 l 2,48,49
 553 633 553 633 535 651 c 128,-1,50
 517 669 517 669 517 694 c 0,51,52
 517 720 517 720 535.5 738 c 128,-1,53
 554 756 554 756 579 756 c 2,54,-1
 774 756 l 1,55,-1
 951 931 l 1,0,-1
EndSplineSet
Validated: 1
EndChar

StartChar: four
Encoding: 52 52 23
Width: 1174
GlyphClass: 2
Flags: W
LayerCount: 2
Fore
SplineSet
1014 759 m 2,0,1
 1039 759 1039 759 1057 741.5 c 128,-1,2
 1075 724 1075 724 1075 699 c 128,-1,3
 1075 674 1075 674 1057 656 c 128,-1,4
 1039 638 1039 638 1014 638 c 2,5,-1
 861 638 l 1,6,-1
 861 69 l 2,7,8
 861 44 861 44 843.5 26 c 128,-1,9
 826 8 826 8 800 8 c 0,10,11
 775 8 775 8 757 26 c 128,-1,12
 739 44 739 44 739 69 c 2,13,-1
 739 638 l 1,14,-1
 161 638 l 2,15,16
 120 638 120 638 105 675 c 0,17,18
 89 713 89 713 118 742 c 2,19,-1
 757 1372 l 2,20,21
 786 1400 786 1400 824 1385 c 0,22,23
 841 1378 841 1378 851 1362.5 c 128,-1,24
 861 1347 861 1347 861 1329 c 2,25,-1
 861 759 l 1,26,-1
 1014 759 l 2,0,1
739 1182 m 1,27,-1
 308 759 l 1,28,-1
 739 759 l 1,29,-1
 739 1182 l 1,27,-1
EndSplineSet
Validated: 33
EndChar

StartChar: five
Encoding: 53 53 24
Width: 1174
GlyphClass: 2
Flags: W
LayerCount: 2
Fore
SplineSet
1074 1321 m 128,-1,1
 1074 1295 1074 1295 1056 1276.5 c 128,-1,2
 1038 1258 1038 1258 1013 1258 c 2,3,-1
 224 1258 l 1,4,-1
 224 788 l 1,5,-1
 546 960 l 2,6,7
 559 967 559 967 575 967 c 2,8,-1
 787 967 l 2,9,10
 814 967 814 967 831 948 c 2,11,-1
 1057 718 l 2,12,13
 1074 699 1074 699 1074 674 c 2,14,-1
 1074 266 l 2,15,16
 1074 238 1074 238 1056 222 c 2,17,-1
 850 19 l 2,18,19
 830 1 830 1 807 1 c 2,20,-1
 364 1 l 2,21,22
 339 1 339 1 320 20 c 2,23,-1
 117 223 l 2,24,25
 99 242 99 242 99 267.5 c 128,-1,26
 99 293 99 293 117 311 c 0,27,28
 135 330 135 330 160.5 330 c 128,-1,29
 186 330 186 330 205 311 c 2,30,-1
 390 126 l 1,31,-1
 781 126 l 1,32,-1
 951 292 l 1,33,-1
 951 649 l 1,34,-1
 761 843 l 1,35,-1
 591 843 l 1,36,-1
 191 629 l 2,37,38
 161 613 161 613 130 631 c 0,39,40
 100 649 100 649 100 684 c 2,41,-1
 100 1321 l 2,42,43
 100 1346 100 1346 118 1364.5 c 128,-1,44
 136 1383 136 1383 162 1383 c 2,45,-1
 1013 1383 l 2,46,47
 1038 1383 1038 1383 1056 1365 c 128,-1,0
 1074 1347 1074 1347 1074 1321 c 128,-1,1
EndSplineSet
Validated: 1
EndChar

StartChar: six
Encoding: 54 54 25
Width: 1176
GlyphClass: 2
Flags: W
LayerCount: 2
Fore
SplineSet
786 761 m 2,0,1
 810 761 810 761 830 743 c 2,2,-1
 1058 519 l 2,3,4
 1076 501 1076 501 1076 476 c 2,5,-1
 1076 298 l 2,6,7
 1076 271 1076 271 1056 254 c 2,8,-1
 812 25 l 2,9,10
 793 9 793 9 769 9 c 2,11,-1
 395 8 l 2,12,13
 369 8 369 8 351 26 c 2,14,-1
 118 255 l 2,15,16
 100 275 100 275 100 299 c 2,17,-1
 100 727 l 2,18,19
 100 754 100 754 119 771 c 2,20,-1
 555 1190 l 2,21,22
 562 1197 562 1197 572 1202 c 2,23,-1
 985 1384 l 2,24,25
 1009 1394 1009 1394 1033 1385 c 128,-1,26
 1057 1376 1057 1376 1068 1353 c 0,27,28
 1078 1330 1078 1330 1069 1306.5 c 128,-1,29
 1060 1283 1060 1283 1037 1272 c 2,30,-1
 634 1094 l 1,31,-1
 287 761 l 1,32,-1
 786 761 l 2,0,1
225 324 m 1,33,-1
 421 131 l 1,34,-1
 744 132 l 1,35,-1
 951 325 l 1,36,-1
 951 450 l 1,37,-1
 760 638 l 1,38,-1
 225 638 l 1,39,-1
 225 324 l 1,33,-1
EndSplineSet
Validated: 1
EndChar

StartChar: seven
Encoding: 55 55 26
Width: 1174
GlyphClass: 2
Flags: W
LayerCount: 2
Fore
SplineSet
101 1320 m 128,-1,1
 101 1346 101 1346 119.5 1364 c 128,-1,2
 138 1382 138 1382 163 1382 c 2,3,-1
 1012 1382 l 2,4,5
 1038 1382 1038 1382 1056 1364 c 128,-1,6
 1074 1346 1074 1346 1074 1320 c 2,7,-1
 1074 1113 l 2,8,9
 1074 1087 1074 1087 1056 1069 c 2,10,-1
 225 241 l 1,11,-1
 225 63 l 2,12,13
 225 38 225 38 206.5 19.5 c 128,-1,14
 188 1 188 1 162 1 c 128,-1,15
 136 1 136 1 118 19.5 c 128,-1,16
 100 38 100 38 100 63 c 2,17,-1
 100 267 l 2,18,19
 100 293 100 293 118 311 c 2,20,-1
 950 1139 l 1,21,-1
 950 1258 l 1,22,-1
 163 1258 l 2,23,24
 138 1258 138 1258 119.5 1276 c 128,-1,0
 101 1294 101 1294 101 1320 c 128,-1,1
EndSplineSet
Validated: 1
EndChar

StartChar: eight
Encoding: 56 56 27
Width: 1175
GlyphClass: 2
Flags: W
LayerCount: 2
Fore
SplineSet
100 280 m 1,0,-1
 100 489 l 2,1,2
 100 514 100 514 118 532 c 2,3,-1
 288 695 l 1,4,-1
 119 862 l 2,5,6
 100 881 100 881 100 906 c 2,7,-1
 100 1111 l 1,8,-1
 100 1115 l 2,9,10
 98 1141 98 1141 118 1161 c 2,11,-1
 323 1368 l 2,12,13
 342 1387 342 1387 367 1387 c 2,14,-1
 808 1387 l 2,15,16
 835 1387 835 1387 852 1368 c 2,17,-1
 1057 1161 l 2,18,19
 1077 1141 1077 1141 1075 1115 c 2,20,-1
 1075 1111 l 1,21,-1
 1075 906 l 2,22,23
 1075 881 1075 881 1056 862 c 2,24,-1
 888 695 l 1,25,-1
 1057 532 l 2,26,27
 1075 516 1075 516 1075 489 c 2,28,-1
 1075 280 l 1,29,-1
 1075 278 l 2,30,31
 1075 256 1075 256 1058 237 c 2,32,-1
 852 24 l 2,33,34
 835 4 835 4 808 4 c 2,35,-1
 367 4 l 2,36,37
 340 4 340 4 323 24 c 2,38,-1
 117 237 l 2,39,40
 102 254 102 254 100 278 c 2,41,-1
 100 280 l 1,0,-1
224 1086 m 1,42,-1
 224 933 l 1,43,-1
 401 758 l 1,44,-1
 774 758 l 1,45,-1
 951 933 l 1,46,-1
 951 1086 l 1,47,-1
 773 1263 l 1,48,-1
 402 1263 l 1,49,-1
 224 1086 l 1,42,-1
224 463 m 1,50,-1
 224 306 l 1,51,-1
 402 128 l 1,52,-1
 773 128 l 1,53,-1
 951 306 l 1,54,-1
 951 463 l 1,55,-1
 773 635 l 1,56,-1
 402 635 l 1,57,-1
 224 463 l 1,50,-1
EndSplineSet
Validated: 1
EndChar

StartChar: nine
Encoding: 57 57 28
Width: 1175
GlyphClass: 2
Flags: W
LayerCount: 2
Fore
SplineSet
951 308 m 1,0,-1
 951 641 l 1,1,-1
 390 641 l 2,2,3
 362 641 362 641 346 659 c 2,4,-1
 118 881 l 2,5,6
 100 901 100 901 100 925 c 2,7,-1
 100 1102 l 2,8,9
 100 1129 100 1129 120 1147 c 2,10,-1
 364 1375 l 2,11,12
 383 1392 383 1392 407 1392 c 2,13,-1
 780 1393 l 2,14,15
 806 1393 806 1393 824 1375 c 2,16,-1
 1057 1145 l 2,17,18
 1075 1127 1075 1127 1075 1102 c 2,19,-1
 1075 282 l 2,20,21
 1075 256 1075 256 1056 239 c 2,22,-1
 840 29 l 2,23,24
 833 21 833 21 820 16 c 0,25,26
 808 11 808 11 797 11 c 2,27,-1
 368 11 l 2,28,29
 340 11 340 11 323 30 c 2,30,-1
 117 242 l 2,31,32
 100 260 100 260 100.5 285.5 c 128,-1,33
 101 311 101 311 119 328 c 0,34,35
 138 346 138 346 163.5 345.5 c 128,-1,36
 189 345 189 345 208 327 c 2,37,-1
 394 134 l 1,38,-1
 771 134 l 1,39,-1
 951 308 l 1,0,-1
951 1077 m 1,40,-1
 755 1270 l 1,41,-1
 432 1269 l 1,42,-1
 224 1076 l 1,43,-1
 224 950 l 1,44,-1
 415 764 l 1,45,-1
 951 764 l 1,46,-1
 951 1077 l 1,40,-1
EndSplineSet
Validated: 1
EndChar

StartChar: colon
Encoding: 58 58 29
Width: 437
GlyphClass: 2
Flags: W
LayerCount: 2
Fore
SplineSet
294 725 m 2,0,-1
 144 725 l 2,1,2
 126 725 126 725 113 738 c 128,-1,3
 100 751 100 751 100 769 c 2,4,-1
 100 918 l 2,5,6
 100 936 100 936 113 949 c 128,-1,7
 126 962 126 962 144 962 c 2,8,-1
 294 962 l 2,9,10
 312 962 312 962 325 949 c 128,-1,11
 338 936 338 936 338 918 c 2,12,-1
 338 769 l 2,13,14
 338 751 338 751 325 738 c 128,-1,15
 312 725 312 725 294 725 c 2,0,-1
250 874 m 1,16,-1
 188 874 l 1,17,-1
 188 813 l 1,18,-1
 250 813 l 1,19,-1
 250 874 l 1,16,-1
294 301 m 2,20,-1
 144 301 l 2,21,22
 126 301 126 301 113 314 c 128,-1,23
 100 327 100 327 100 345 c 2,24,-1
 100 493 l 2,25,26
 100 511 100 511 113 524 c 128,-1,27
 126 537 126 537 144 537 c 2,28,-1
 294 537 l 2,29,30
 312 537 312 537 325 524 c 128,-1,31
 338 511 338 511 338 493 c 2,32,-1
 338 345 l 2,33,34
 338 327 338 327 325 314 c 128,-1,35
 312 301 312 301 294 301 c 2,20,-1
250 449 m 1,36,-1
 188 449 l 1,37,-1
 188 389 l 1,38,-1
 250 389 l 1,39,-1
 250 449 l 1,36,-1
EndSplineSet
Validated: 1
EndChar

StartChar: semicolon
Encoding: 59 59 30
Width: 577
GlyphClass: 2
Flags: W
LayerCount: 2
Fore
SplineSet
283 310 m 2,0,1
 265 310 265 310 252 323 c 128,-1,2
 239 336 239 336 239 354 c 2,3,-1
 239 502 l 2,4,5
 239 520 239 520 252 533 c 128,-1,6
 265 546 265 546 283 546 c 2,7,-1
 433 546 l 2,8,9
 451 546 451 546 464 533 c 128,-1,10
 477 520 477 520 477 502 c 2,11,-1
 477 354 l 2,12,13
 477 335 477 335 464 323 c 2,14,-1
 162 21 l 2,15,16
 149 8 149 8 131 8 c 128,-1,17
 113 8 113 8 100 21 c 128,-1,18
 87 34 87 34 87 52 c 128,-1,19
 87 70 87 70 100 83 c 2,20,-1
 327 310 l 1,21,-1
 283 310 l 2,0,1
389 458 m 1,22,-1
 327 458 l 1,23,-1
 327 398 l 1,24,-1
 389 398 l 1,25,-1
 389 458 l 1,22,-1
433 725 m 2,26,-1
 283 725 l 2,27,28
 265 725 265 725 252 738 c 128,-1,29
 239 751 239 751 239 769 c 2,30,-1
 239 918 l 2,31,32
 239 936 239 936 252 949 c 128,-1,33
 265 962 265 962 283 962 c 2,34,-1
 433 962 l 2,35,36
 451 962 451 962 464 949 c 128,-1,37
 477 936 477 936 477 918 c 2,38,-1
 477 769 l 2,39,40
 477 751 477 751 464 738 c 128,-1,41
 451 725 451 725 433 725 c 2,26,-1
389 874 m 1,42,-1
 327 874 l 1,43,-1
 327 813 l 1,44,-1
 389 813 l 1,45,-1
 389 874 l 1,42,-1
EndSplineSet
Validated: 1
EndChar

StartChar: less
Encoding: 60 60 31
Width: 1134
GlyphClass: 2
Flags: W
LayerCount: 2
Fore
SplineSet
1022 1360 m 0,0,1
 1038 1339 1038 1339 1034.5 1313.5 c 128,-1,2
 1031 1288 1031 1288 1011 1272 c 2,3,-1
 265 694 l 1,4,-1
 1011 116 l 2,5,6
 1031 100 1031 100 1034.5 74.5 c 128,-1,7
 1038 49 1038 49 1022 28 c 0,8,9
 1006 8 1006 8 980 4.5 c 128,-1,10
 954 1 954 1 934 17 c 2,11,-1
 124 644 l 2,12,13
 100 663 100 663 100 694 c 128,-1,14
 100 725 100 725 124 744 c 2,15,-1
 934 1371 l 2,16,17
 954 1387 954 1387 980 1383.5 c 128,-1,18
 1006 1380 1006 1380 1022 1360 c 0,0,1
EndSplineSet
Validated: 1
EndChar

StartChar: equal
Encoding: 61 61 32
Width: 1147
GlyphClass: 2
Flags: W
LayerCount: 2
Fore
SplineSet
100 837 m 0,0,1
 100 862 100 862 118 880 c 128,-1,2
 136 898 136 898 161 898 c 2,3,-1
 986 898 l 2,4,5
 1011 898 1011 898 1029 880 c 128,-1,6
 1047 862 1047 862 1047 837 c 0,7,8
 1047 811 1047 811 1029 793 c 128,-1,9
 1011 775 1011 775 986 775 c 2,10,-1
 161 775 l 2,11,12
 136 775 136 775 118 793 c 128,-1,13
 100 811 100 811 100 837 c 0,0,1
100 412 m 0,14,15
 100 438 100 438 118 456 c 128,-1,16
 136 474 136 474 161 474 c 2,17,-1
 986 474 l 2,18,19
 1011 474 1011 474 1029 456 c 128,-1,20
 1047 438 1047 438 1047 412 c 0,21,22
 1047 387 1047 387 1029 369 c 128,-1,23
 1011 351 1011 351 986 351 c 2,24,-1
 161 351 l 2,25,26
 136 351 136 351 118 369 c 128,-1,27
 100 387 100 387 100 412 c 0,14,15
EndSplineSet
Validated: 1
EndChar

StartChar: greater
Encoding: 62 62 33
Width: 1134
GlyphClass: 2
Flags: W
LayerCount: 2
Fore
SplineSet
113 1357 m 0,0,1
 97 1336 97 1336 100.5 1310.5 c 128,-1,2
 104 1285 104 1285 124 1269 c 2,3,-1
 870 691 l 1,4,-1
 124 114 l 2,5,6
 104 97 104 97 100.5 71.5 c 128,-1,7
 97 46 97 46 113 26 c 0,8,9
 129 5 129 5 155 1.5 c 128,-1,10
 181 -2 181 -2 201 14 c 2,11,-1
 1011 642 l 2,12,13
 1035 660 1035 660 1035 691 c 128,-1,14
 1035 722 1035 722 1011 741 c 2,15,-1
 201 1368 l 2,16,17
 181 1384 181 1384 155 1380.5 c 128,-1,18
 129 1377 129 1377 113 1357 c 0,0,1
EndSplineSet
Validated: 9
EndChar

StartChar: question
Encoding: 63 63 34
Width: 1247
GlyphClass: 2
Flags: W
LayerCount: 2
Fore
SplineSet
113 1134 m 0,0,1
 95 1155 95 1155 102.5 1181.5 c 128,-1,2
 110 1208 110 1208 134 1229 c 2,3,-1
 378 1481 l 2,4,5
 398 1501 398 1501 426 1501 c 2,6,-1
 835 1501 l 2,7,8
 863 1501 863 1501 883 1481 c 2,9,-1
 1127 1236 l 2,10,11
 1147 1216 1147 1216 1147 1189 c 2,12,-1
 1147 969 l 2,13,14
 1147 943 1147 943 1128 922 c 2,15,-1
 689 479 l 1,16,-1
 689 380 l 2,17,18
 689 352 689 352 669.5 332.5 c 128,-1,19
 650 313 650 313 622 313 c 128,-1,20
 594 313 594 313 574.5 332.5 c 128,-1,21
 555 352 555 352 555 380 c 2,22,-1
 555 507 l 2,23,24
 555 535 555 535 574 554 c 2,25,-1
 1013 997 l 1,26,-1
 1013 1161 l 1,27,-1
 807 1366 l 1,28,-1
 454 1366 l 1,29,-1
 222 1134 l 2,30,31
 202 1114 202 1114 167 1114 c 128,-1,32
 132 1114 132 1114 113 1134 c 0,0,1
695 1 m 2,33,-1
 533 1 l 2,34,35
 513 1 513 1 499 14.5 c 128,-1,36
 485 28 485 28 485 48 c 2,37,-1
 485 209 l 2,38,39
 485 229 485 229 499 243 c 128,-1,40
 513 257 513 257 533 257 c 2,41,-1
 695 257 l 2,42,43
 715 257 715 257 729 243 c 128,-1,44
 743 229 743 229 743 209 c 2,45,-1
 743 48 l 2,46,47
 743 29 743 29 729 15 c 128,-1,48
 715 1 715 1 695 1 c 2,33,-1
648 162 m 1,49,-1
 580 162 l 1,50,-1
 580 96 l 1,51,-1
 648 96 l 1,52,-1
 648 162 l 1,49,-1
EndSplineSet
Validated: 1
EndChar

StartChar: at
Encoding: 64 64 35
Width: 1176
GlyphClass: 2
Flags: W
LayerCount: 2
Fore
SplineSet
952 695 m 1,0,-1
 951 1084 l 1,1,-1
 775 1260 l 1,2,-1
 398 1260 l 1,3,-1
 225 1083 l 1,4,-1
 225 312 l 1,5,-1
 399 128 l 1,6,-1
 768 128 l 1,7,-1
 969 331 l 2,8,9
 988 350 988 350 1013.5 350 c 128,-1,10
 1039 350 1039 350 1058 332 c 0,11,12
 1076 313 1076 313 1076 287.5 c 128,-1,13
 1076 262 1076 262 1058 243 c 2,14,-1
 838 21 l 2,15,16
 818 3 818 3 793 3 c 2,17,-1
 372 3 l 2,18,19
 344 3 344 3 326 23 c 2,20,-1
 117 245 l 2,21,22
 100 262 100 262 100 288 c 2,23,-1
 100 1109 l 2,24,25
 100 1133 100 1133 118 1153 c 2,26,-1
 327 1366 l 2,27,28
 345 1384 345 1384 372 1384 c 2,29,-1
 801 1384 l 2,30,31
 827 1384 827 1384 845 1366 c 2,32,-1
 1058 1153 l 2,33,34
 1078 1133 1078 1133 1076 1108 c 2,35,-1
 1077 668 l 2,36,37
 1075 641 1075 641 1058 625 c 2,38,-1
 875 436 l 2,39,40
 856 417 856 417 831 417 c 2,41,-1
 372 417 l 2,42,43
 346 417 346 417 327.5 435.5 c 128,-1,44
 309 454 309 454 309 480 c 2,45,-1
 309 903 l 2,46,47
 309 929 309 929 327.5 947 c 128,-1,48
 346 965 346 965 372 965 c 2,49,-1
 793 965 l 2,50,51
 819 965 819 965 837.5 947 c 128,-1,52
 856 929 856 929 856 903 c 2,53,-1
 856 593 l 1,54,-1
 952 695 l 1,0,-1
731 840 m 1,55,-1
 434 840 l 1,56,-1
 434 542 l 1,57,-1
 731 542 l 1,58,-1
 731 840 l 1,55,-1
EndSplineSet
Validated: 1
EndChar

StartChar: A
Encoding: 65 65 36
Width: 1176
GlyphClass: 2
Flags: W
LayerCount: 2
Fore
SplineSet
225 70 m 2,0,1
 225 44 225 44 207 26 c 128,-1,2
 189 8 189 8 163 8 c 128,-1,3
 137 8 137 8 118.5 26 c 128,-1,4
 100 44 100 44 100 70 c 2,5,-1
 100 901 l 2,6,7
 100 926 100 926 118 944 c 2,8,-1
 544 1371 l 2,9,10
 563 1390 563 1390 589 1390 c 0,11,12
 614 1390 614 1390 633 1371 c 2,13,-1
 1059 937 l 2,14,15
 1077 919 1077 919 1077 894 c 2,16,-1
 1077 70 l 2,17,18
 1077 44 1077 44 1058.5 26 c 128,-1,19
 1040 8 1040 8 1014 8 c 128,-1,20
 988 8 988 8 969.5 26 c 128,-1,21
 951 44 951 44 951 70 c 2,22,-1
 951 636 l 1,23,-1
 225 636 l 1,24,-1
 225 70 l 2,0,1
958 869 m 1,25,-1
 595 1239 l 1,26,-1
 232 875 l 1,27,-1
 232 761 l 1,28,-1
 958 761 l 1,29,-1
 958 869 l 1,25,-1
EndSplineSet
Validated: 1
EndChar

StartChar: B
Encoding: 66 66 37
Width: 1176
GlyphClass: 2
Flags: W
LayerCount: 2
Fore
SplineSet
800 1390 m 2,0,1
 824 1390 824 1390 844 1372 c 2,2,-1
 1058 1157 l 2,3,4
 1076 1139 1076 1139 1076 1113 c 2,5,-1
 1076 906 l 2,6,7
 1076 881 1076 881 1057 862 c 2,8,-1
 888 698 l 1,9,-1
 1058 530 l 2,10,11
 1076 512 1076 512 1076 486 c 2,12,-1
 1076 276 l 2,13,14
 1076 249 1076 249 1057 232 c 2,15,-1
 843 25 l 2,16,17
 824 8 824 8 800 8 c 2,18,-1
 162 8 l 2,19,20
 136 8 136 8 118 26 c 128,-1,21
 100 44 100 44 100 70 c 2,22,-1
 100 1328 l 2,23,24
 100 1354 100 1354 118 1372 c 128,-1,25
 136 1390 136 1390 162 1390 c 2,26,-1
 800 1390 l 2,0,1
949 943 m 1,27,-1
 949 1097 l 1,28,-1
 770 1276 l 1,29,-1
 221 1276 l 1,30,-1
 221 771 l 1,31,-1
 771 771 l 1,32,-1
 949 943 l 1,27,-1
221 142 m 1,33,-1
 771 142 l 1,34,-1
 949 313 l 1,35,-1
 949 470 l 1,36,-1
 771 647 l 1,37,-1
 221 647 l 1,38,-1
 221 142 l 1,33,-1
EndSplineSet
Validated: 1
EndChar

StartChar: C
Encoding: 67 67 38
Width: 1172
GlyphClass: 2
Flags: W
LayerCount: 2
Fore
SplineSet
1055 320 m 0,0,1
 1073 301 1073 301 1073 275.5 c 128,-1,2
 1073 250 1073 250 1054 232 c 2,3,-1
 846 26 l 2,4,5
 828 8 828 8 802 8 c 2,6,-1
 377 8 l 2,7,8
 353 8 353 8 334 25 c 2,9,-1
 119 231 l 2,10,11
 100 250 100 250 100 276 c 2,12,-1
 100 1112 l 2,13,14
 100 1140 100 1140 118 1156 c 2,15,-1
 333 1372 l 2,16,17
 353 1390 353 1390 377 1390 c 2,18,-1
 802 1390 l 2,19,20
 826 1390 826 1390 846 1372 c 0,21,22
 984 1233 984 1233 1055 1161 c 0,23,24
 1073 1142 1073 1142 1073 1116.5 c 128,-1,25
 1073 1091 1073 1091 1054 1073 c 0,26,27
 1036 1055 1036 1055 1010.5 1055 c 128,-1,28
 985 1055 985 1055 967 1074 c 0,29,30
 938 1103 938 1103 866 1175.5 c 128,-1,31
 794 1248 794 1248 776 1266 c 1,32,-1
 403 1266 l 1,33,-1
 224 1087 l 1,34,-1
 224 303 l 1,35,-1
 402 132 l 1,36,-1
 776 132 l 1,37,-1
 967 320 l 2,38,39
 986 338 986 338 1011.5 338 c 128,-1,40
 1037 338 1037 338 1055 320 c 0,0,1
EndSplineSet
Validated: 1
EndChar

StartChar: D
Encoding: 68 68 39
Width: 1176
GlyphClass: 2
Flags: W
LayerCount: 2
Fore
SplineSet
800 1396 m 2,0,1
 826 1396 826 1396 844 1378 c 2,2,-1
 1058 1163 l 2,3,4
 1076 1146 1076 1146 1076 1119 c 2,5,-1
 1076 283 l 2,6,7
 1076 256 1076 256 1058 238 c 2,8,-1
 843 31 l 2,9,10
 824 14 824 14 800 14 c 2,11,-1
 162 14 l 2,12,13
 136 14 136 14 118 32 c 128,-1,14
 100 50 100 50 100 76 c 2,15,-1
 100 1334 l 2,16,17
 100 1360 100 1360 118 1378 c 128,-1,18
 136 1396 136 1396 162 1396 c 2,19,-1
 800 1396 l 2,0,1
224 138 m 1,20,-1
 775 138 l 1,21,-1
 952 309 l 1,22,-1
 952 1094 l 1,23,-1
 774 1272 l 1,24,-1
 224 1272 l 1,25,-1
 224 138 l 1,20,-1
EndSplineSet
Validated: 1
EndChar

StartChar: E
Encoding: 69 69 40
Width: 1175
GlyphClass: 2
Flags: W
LayerCount: 2
Fore
SplineSet
223 128 m 1,0,-1
 1014 128 l 2,1,2
 1040 128 1040 128 1058 110 c 128,-1,3
 1076 92 1076 92 1076 66 c 128,-1,4
 1076 40 1076 40 1058 22 c 128,-1,5
 1040 4 1040 4 1014 4 c 2,6,-1
 162 4 l 2,7,8
 136 4 136 4 118 22 c 128,-1,9
 100 40 100 40 100 66 c 2,10,-1
 100 1324 l 2,11,12
 100 1350 100 1350 118 1368 c 128,-1,13
 136 1386 136 1386 162 1386 c 2,14,-1
 1014 1386 l 2,15,16
 1040 1386 1040 1386 1058 1368 c 128,-1,17
 1076 1350 1076 1350 1076 1324 c 128,-1,18
 1076 1298 1076 1298 1058 1280 c 128,-1,19
 1040 1262 1040 1262 1014 1262 c 2,20,-1
 223 1262 l 1,21,-1
 223 757 l 1,22,-1
 592 757 l 2,23,24
 618 757 618 757 636 738.5 c 128,-1,25
 654 720 654 720 654 695 c 0,26,27
 654 669 654 669 636 651 c 128,-1,28
 618 633 618 633 592 633 c 2,29,-1
 223 633 l 1,30,-1
 223 128 l 1,0,-1
EndSplineSet
Validated: 1
EndChar

StartChar: F
Encoding: 70 70 41
Width: 1174
GlyphClass: 2
Flags: W
LayerCount: 2
Fore
SplineSet
224 64 m 2,0,1
 224 38 224 38 206 20 c 128,-1,2
 188 2 188 2 162 2 c 128,-1,3
 136 2 136 2 118 20 c 128,-1,4
 100 38 100 38 100 64 c 2,5,-1
 100 1320 l 2,6,7
 100 1346 100 1346 118 1364 c 128,-1,8
 136 1382 136 1382 162 1382 c 2,9,-1
 1013 1382 l 2,10,11
 1038 1382 1038 1382 1056.5 1364 c 128,-1,12
 1075 1346 1075 1346 1075 1320 c 128,-1,13
 1075 1294 1075 1294 1056.5 1276 c 128,-1,14
 1038 1258 1038 1258 1013 1258 c 2,15,-1
 224 1258 l 1,16,-1
 224 753 l 1,17,-1
 594 753 l 2,18,19
 620 753 620 753 637.5 735 c 128,-1,20
 655 717 655 717 655 691 c 128,-1,21
 655 665 655 665 637 647 c 128,-1,22
 619 629 619 629 594 629 c 2,23,-1
 224 629 l 1,24,-1
 224 64 l 2,0,1
EndSplineSet
Validated: 1
EndChar

StartChar: G
Encoding: 71 71 42
Width: 1173
GlyphClass: 2
Flags: W
LayerCount: 2
Fore
SplineSet
1056 228 m 2,0,-1
 847 22 l 2,1,2
 829 4 829 4 802 4 c 2,3,-1
 377 4 l 2,4,5
 353 4 353 4 334 21 c 2,6,-1
 119 227 l 2,7,8
 100 246 100 246 100 272 c 2,9,-1
 100 1109 l 2,10,11
 100 1135 100 1135 118 1153 c 2,12,-1
 333 1368 l 2,13,14
 351 1386 351 1386 377 1386 c 2,15,-1
 802 1386 l 2,16,17
 830 1386 830 1386 846 1368 c 0,18,19
 985 1229 985 1229 1055 1157 c 0,20,21
 1073 1139 1073 1139 1073 1113.5 c 128,-1,22
 1073 1088 1073 1088 1055 1069 c 0,23,24
 1036 1051 1036 1051 1010.5 1051.5 c 128,-1,25
 985 1052 985 1052 967 1070 c 0,26,27
 912 1126 912 1126 776 1262 c 1,28,-1
 403 1262 l 1,29,-1
 224 1083 l 1,30,-1
 224 299 l 1,31,-1
 402 128 l 1,32,-1
 776 128 l 1,33,-1
 950 298 l 1,34,-1
 950 633 l 1,35,-1
 592 633 l 2,36,37
 566 633 566 633 547.5 651 c 128,-1,38
 529 669 529 669 529 695 c 128,-1,39
 529 721 529 721 547.5 739 c 128,-1,40
 566 757 566 757 592 757 c 2,41,-1
 1012 757 l 2,42,43
 1038 757 1038 757 1056 738.5 c 128,-1,44
 1074 720 1074 720 1074 695 c 2,45,-1
 1074 272 l 2,46,47
 1074 261 1074 261 1069 249 c 0,48,49
 1064 236 1064 236 1056 228 c 2,0,-1
EndSplineSet
Validated: 1
EndChar

StartChar: H
Encoding: 72 72 43
Width: 1176
GlyphClass: 2
Flags: W
LayerCount: 2
Fore
SplineSet
100 1320 m 2,0,1
 100 1346 100 1346 118 1364 c 128,-1,2
 136 1382 136 1382 162 1382 c 128,-1,3
 188 1382 188 1382 206 1364 c 128,-1,4
 224 1346 224 1346 224 1320 c 2,5,-1
 224 754 l 1,6,-1
 952 754 l 1,7,-1
 952 1320 l 2,8,9
 952 1346 952 1346 970 1364 c 128,-1,10
 988 1382 988 1382 1014 1382 c 128,-1,11
 1040 1382 1040 1382 1058 1364 c 128,-1,12
 1076 1346 1076 1346 1076 1320 c 2,13,-1
 1076 64 l 2,14,15
 1076 38 1076 38 1058 20 c 128,-1,16
 1040 2 1040 2 1014 2 c 128,-1,17
 988 2 988 2 970 20 c 128,-1,18
 952 38 952 38 952 64 c 2,19,-1
 952 630 l 1,20,-1
 224 630 l 1,21,-1
 224 64 l 2,22,23
 224 38 224 38 206 20 c 128,-1,24
 188 2 188 2 162 2 c 128,-1,25
 136 2 136 2 118 20 c 128,-1,26
 100 38 100 38 100 64 c 2,27,-1
 100 1320 l 2,0,1
EndSplineSet
Validated: 1
EndChar

StartChar: I
Encoding: 73 73 44
Width: 740
GlyphClass: 2
Flags: W
LayerCount: 2
Fore
SplineSet
162 1262 m 2,0,1
 136 1262 136 1262 118 1280 c 128,-1,2
 100 1298 100 1298 100 1324 c 128,-1,3
 100 1350 100 1350 118 1368 c 128,-1,4
 136 1386 136 1386 162 1386 c 2,5,-1
 369 1386 l 1,6,-1
 374 1386 l 1,7,-1
 379 1386 l 1,8,-1
 578 1386 l 2,9,10
 604 1386 604 1386 622 1368 c 128,-1,11
 640 1350 640 1350 640 1324 c 128,-1,12
 640 1298 640 1298 622 1280 c 128,-1,13
 604 1262 604 1262 578 1262 c 2,14,-1
 436 1262 l 1,15,-1
 436 128 l 1,16,-1
 578 128 l 2,17,18
 604 128 604 128 622 110 c 128,-1,19
 640 92 640 92 640 66 c 128,-1,20
 640 40 640 40 622 22 c 128,-1,21
 604 4 604 4 578 4 c 2,22,-1
 162 4 l 2,23,24
 136 4 136 4 118 22 c 128,-1,25
 100 40 100 40 100 66 c 128,-1,26
 100 92 100 92 118 110 c 128,-1,27
 136 128 136 128 162 128 c 2,28,-1
 312 128 l 1,29,-1
 312 1262 l 1,30,-1
 162 1262 l 2,0,1
EndSplineSet
Validated: 1
EndChar

StartChar: J
Encoding: 74 74 45
Width: 1166
GlyphClass: 2
Flags: W
LayerCount: 2
Fore
SplineSet
858 272 m 2,0,1
 858 244 858 244 839 228 c 2,2,-1
 624 22 l 2,3,4
 608 4 608 4 582 4 c 2,5,-1
 370 4 l 2,6,7
 347 4 347 4 327 22 c 2,8,-1
 118 228 l 2,9,10
 100 246 100 246 100 272 c 128,-1,11
 100 298 100 298 118 316 c 128,-1,12
 136 334 136 334 161.5 334.5 c 128,-1,13
 187 335 187 335 205 316 c 2,14,-1
 396 128 l 1,15,-1
 557 128 l 1,16,-1
 734 299 l 1,17,-1
 734 1262 l 1,18,-1
 589 1262 l 2,19,20
 564 1262 564 1262 545.5 1280 c 128,-1,21
 527 1298 527 1298 527 1324 c 128,-1,22
 527 1350 527 1350 545.5 1368 c 128,-1,23
 564 1386 564 1386 589 1386 c 2,24,-1
 1004 1386 l 2,25,26
 1030 1386 1030 1386 1048 1368 c 128,-1,27
 1066 1350 1066 1350 1066 1324 c 128,-1,28
 1066 1298 1066 1298 1048 1280 c 128,-1,29
 1030 1262 1030 1262 1004 1262 c 2,30,-1
 858 1262 l 1,31,-1
 858 272 l 2,0,1
EndSplineSet
Validated: 1
EndChar

StartChar: K
Encoding: 75 75 46
Width: 1176
GlyphClass: 2
Flags: W
LayerCount: 2
Fore
SplineSet
225 66 m 2,0,1
 225 40 225 40 206.5 22 c 128,-1,2
 188 4 188 4 162 4 c 128,-1,3
 136 4 136 4 118 22 c 128,-1,4
 100 40 100 40 100 66 c 2,5,-1
 100 1324 l 2,6,7
 100 1350 100 1350 118 1368 c 128,-1,8
 136 1386 136 1386 162 1386 c 128,-1,9
 188 1386 188 1386 206.5 1368 c 128,-1,10
 225 1350 225 1350 225 1324 c 2,11,-1
 225 637 l 1,12,-1
 970 1368 l 2,13,14
 989 1386 989 1386 1014.5 1386 c 128,-1,15
 1040 1386 1040 1386 1058 1368 c 0,16,17
 1076 1349 1076 1349 1076 1323.5 c 128,-1,18
 1076 1298 1076 1298 1057 1280 c 2,19,-1
 463 696 l 1,20,-1
 1057 110 l 2,21,22
 1076 92 1076 92 1076 66.5 c 128,-1,23
 1076 41 1076 41 1058 23 c 0,24,25
 1040 4 1040 4 1014.5 4 c 128,-1,26
 989 4 989 4 970 22 c 2,27,-1
 374 609 l 1,28,-1
 225 463 l 1,29,-1
 225 66 l 2,0,1
EndSplineSet
Validated: 1
EndChar

StartChar: L
Encoding: 76 76 47
Width: 1176
GlyphClass: 2
Flags: W
LayerCount: 2
Fore
SplineSet
100 1324 m 2,0,1
 100 1350 100 1350 118 1368 c 128,-1,2
 136 1386 136 1386 162 1386 c 128,-1,3
 188 1386 188 1386 206 1368 c 128,-1,4
 224 1350 224 1350 224 1324 c 2,5,-1
 224 128 l 1,6,-1
 1014 128 l 2,7,8
 1040 128 1040 128 1058 110 c 128,-1,9
 1076 92 1076 92 1076 66 c 128,-1,10
 1076 40 1076 40 1058 22 c 128,-1,11
 1040 4 1040 4 1014 4 c 2,12,-1
 162 4 l 2,13,14
 136 4 136 4 118 22 c 128,-1,15
 100 40 100 40 100 66 c 2,16,-1
 100 1324 l 2,0,1
EndSplineSet
Validated: 1
EndChar

StartChar: M
Encoding: 77 77 48
Width: 1176
GlyphClass: 2
Flags: W
LayerCount: 2
Fore
SplineSet
162 4 m 128,-1,1
 136 4 136 4 118 22 c 128,-1,2
 100 40 100 40 100 66 c 2,3,-1
 100 1324 l 2,4,5
 100 1365 100 1365 138 1382 c 0,6,7
 177 1397 177 1397 206 1368 c 2,8,-1
 588 991 l 1,9,-1
 971 1368 l 2,10,11
 1000 1397 1000 1397 1038 1382 c 0,12,13
 1077 1366 1077 1366 1077 1324 c 2,14,-1
 1077 66 l 2,15,16
 1077 40 1077 40 1058.5 22 c 128,-1,17
 1040 4 1040 4 1015 4 c 0,18,19
 989 4 989 4 970.5 22 c 128,-1,20
 952 40 952 40 952 66 c 2,21,-1
 952 1176 l 1,22,-1
 632 860 l 2,23,24
 614 842 614 842 588.5 842 c 128,-1,25
 563 842 563 842 545 860 c 2,26,-1
 224 1176 l 1,27,-1
 224 66 l 2,28,29
 224 40 224 40 206 22 c 128,-1,0
 188 4 188 4 162 4 c 128,-1,1
EndSplineSet
Validated: 33
EndChar

StartChar: N
Encoding: 78 78 49
Width: 1175
GlyphClass: 2
Flags: W
LayerCount: 2
Fore
SplineSet
162 4 m 128,-1,1
 136 4 136 4 118 22 c 128,-1,2
 100 40 100 40 100 66 c 2,3,-1
 100 1323 l 2,4,5
 100 1343 100 1343 112 1359.5 c 128,-1,6
 124 1376 124 1376 143 1382 c 0,7,8
 188 1395 188 1395 213 1358 c 2,9,-1
 952 268 l 1,10,-1
 952 1323 l 2,11,12
 952 1348 952 1348 970 1366.5 c 128,-1,13
 988 1385 988 1385 1014 1385 c 128,-1,14
 1040 1385 1040 1385 1058 1366.5 c 128,-1,15
 1076 1348 1076 1348 1076 1323 c 2,16,-1
 1076 66 l 2,17,18
 1076 46 1076 46 1064 29.5 c 128,-1,19
 1052 13 1052 13 1032 7 c 0,20,21
 988 -6 988 -6 963 31 c 2,22,-1
 224 1121 l 1,23,-1
 224 66 l 2,24,25
 224 40 224 40 206 22 c 128,-1,0
 188 4 188 4 162 4 c 128,-1,1
EndSplineSet
Validated: 33
EndChar

StartChar: O
Encoding: 79 79 50
Width: 1175
GlyphClass: 2
Flags: W
LayerCount: 2
Fore
SplineSet
1057 235 m 2,0,-1
 848 29 l 2,1,2
 832 11 832 11 805 11 c 2,3,-1
 377 11 l 2,4,5
 353 11 353 11 334 28 c 2,6,-1
 119 234 l 2,7,8
 100 253 100 253 100 279 c 2,9,-1
 100 1115 l 2,10,11
 100 1139 100 1139 118 1159 c 2,12,-1
 333 1374 l 2,13,14
 351 1392 351 1392 377 1392 c 2,15,-1
 805 1392 l 2,16,17
 831 1392 831 1392 849 1374 c 0,18,19
 987 1235 987 1235 1058 1163 c 0,20,21
 1067 1152 1067 1152 1071 1143 c 128,-1,22
 1075 1134 1075 1134 1075 1120 c 2,23,-1
 1075 279 l 2,24,25
 1075 266 1075 266 1071 255 c 0,26,27
 1063 241 1063 241 1057 235 c 2,0,-1
779 1268 m 1,28,-1
 403 1268 l 1,29,-1
 224 1089 l 1,30,-1
 224 306 l 1,31,-1
 402 135 l 1,32,-1
 779 135 l 1,33,-1
 951 305 l 1,34,-1
 951 1094 l 1,35,36
 839 1208 839 1208 779 1268 c 1,28,-1
EndSplineSet
Validated: 1
EndChar

StartChar: P
Encoding: 80 80 51
Width: 1176
GlyphClass: 2
Flags: W
LayerCount: 2
Fore
SplineSet
224 76 m 2,0,1
 224 50 224 50 206 32 c 128,-1,2
 188 14 188 14 162 14 c 128,-1,3
 136 14 136 14 118 32 c 128,-1,4
 100 50 100 50 100 76 c 2,5,-1
 100 1334 l 2,6,7
 100 1360 100 1360 118 1378 c 128,-1,8
 136 1396 136 1396 162 1396 c 2,9,-1
 173 1396 l 1,10,-1
 804 1395 l 2,11,12
 830 1395 830 1395 848 1377 c 2,13,-1
 1058 1166 l 2,14,15
 1076 1150 1076 1150 1076 1122 c 2,16,-1
 1076 702 l 2,17,18
 1076 676 1076 676 1058 659 c 2,19,-1
 847 448 l 2,20,21
 830 430 830 430 804 430 c 2,22,-1
 224 430 l 1,23,-1
 224 76 l 2,0,1
224 554 m 1,24,-1
 778 554 l 1,25,-1
 952 728 l 1,26,-1
 952 1097 l 1,27,-1
 778 1271 l 1,28,-1
 224 1271 l 1,29,-1
 224 554 l 1,24,-1
EndSplineSet
Validated: 1
EndChar

StartChar: Q
Encoding: 81 81 52
Width: 1176
GlyphClass: 2
Flags: W
LayerCount: 2
Fore
SplineSet
848 29 m 2,0,1
 832 11 832 11 805 11 c 2,2,-1
 380 11 l 2,3,4
 356 11 356 11 337 28 c 2,5,-1
 119 235 l 2,6,7
 100 252 100 252 100 279 c 2,8,-1
 100 1116 l 2,9,10
 100 1142 100 1142 118 1160 c 2,11,-1
 336 1375 l 2,12,13
 354 1393 354 1393 380 1393 c 2,14,-1
 793 1393 l 2,15,16
 819 1393 819 1393 837 1375 c 0,17,18
 987 1225 987 1225 1058 1153 c 0,19,20
 1066 1145 1066 1145 1071 1133 c 128,-1,21
 1076 1121 1076 1121 1076 1110 c 2,22,-1
 1076 279 l 2,23,24
 1076 268 1076 268 1071 256 c 0,25,26
 1066 243 1066 243 1057 235 c 2,27,-1
 998 176 l 1,28,-1
 1058 117 l 2,29,30
 1076 99 1076 99 1076 73.5 c 128,-1,31
 1076 48 1076 48 1058 29 c 0,32,33
 1040 11 1040 11 1014.5 11 c 128,-1,34
 989 11 989 11 970 29 c 2,35,-1
 910 89 l 1,36,-1
 848 29 l 2,0,1
767 1269 m 1,37,-1
 406 1269 l 1,38,-1
 224 1084 l 1,39,-1
 224 306 l 1,40,-1
 405 135 l 1,41,-1
 780 135 l 1,42,-1
 821 177 l 1,43,-1
 550 445 l 2,44,45
 532 463 532 463 532 489 c 128,-1,46
 532 515 532 515 550 533 c 128,-1,47
 568 551 568 551 593.5 551 c 128,-1,48
 619 551 619 551 638 533 c 2,49,-1
 910 264 l 1,50,-1
 952 305 l 1,51,-1
 952 1084 l 1,52,53
 927 1109 927 1109 890.5 1145.5 c 128,-1,54
 854 1182 854 1182 815 1221 c 128,-1,55
 776 1260 776 1260 767 1269 c 1,37,-1
EndSplineSet
Validated: 1
EndChar

StartChar: R
Encoding: 82 82 53
Width: 1175
GlyphClass: 2
Flags: W
LayerCount: 2
Fore
SplineSet
224 73 m 2,0,1
 224 48 224 48 206 29.5 c 128,-1,2
 188 11 188 11 162 11 c 128,-1,3
 136 11 136 11 118 29.5 c 128,-1,4
 100 48 100 48 100 73 c 2,5,-1
 100 1331 l 2,6,7
 100 1357 100 1357 118 1375 c 128,-1,8
 136 1393 136 1393 162 1393 c 2,9,-1
 164 1393 l 1,10,-1
 166 1393 l 1,11,-1
 802 1393 l 2,12,13
 830 1393 830 1393 846 1375 c 2,14,-1
 1057 1163 l 2,15,16
 1075 1146 1075 1146 1075 1120 c 2,17,-1
 1075 700 l 2,18,19
 1075 672 1075 672 1057 656 c 2,20,-1
 846 445 l 2,21,22
 828 427 828 427 802 427 c 2,23,-1
 740 427 l 1,24,-1
 1057 117 l 2,25,26
 1075 99 1075 99 1075 73.5 c 128,-1,27
 1075 48 1075 48 1058 30 c 0,28,29
 1040 11 1040 11 1014 11 c 128,-1,30
 988 11 988 11 970 29 c 2,31,-1
 562 427 l 1,32,-1
 224 427 l 1,33,-1
 224 73 l 2,0,1
224 551 m 1,34,-1
 776 551 l 1,35,-1
 951 725 l 1,36,-1
 951 1094 l 1,37,-1
 776 1269 l 1,38,-1
 224 1269 l 1,39,-1
 224 551 l 1,34,-1
EndSplineSet
Validated: 1
EndChar

StartChar: S
Encoding: 83 83 54
Width: 1177
GlyphClass: 2
Flags: W
LayerCount: 2
Fore
SplineSet
373 631 m 2,0,1
 349 631 349 631 329 649 c 2,2,-1
 118 856 l 2,3,4
 100 872 100 872 100 899 c 2,5,-1
 100 1110 l 2,6,7
 100 1136 100 1136 118 1154 c 2,8,-1
 329 1365 l 2,9,10
 349 1383 349 1383 373 1383 c 2,11,-1
 798 1383 l 2,12,13
 807 1383 807 1383 816 1380 c 0,14,15
 835 1377 835 1377 851 1363 c 2,16,-1
 1057 1150 l 2,17,18
 1075 1132 1075 1132 1075 1106.5 c 128,-1,19
 1075 1081 1075 1081 1057 1063 c 128,-1,20
 1039 1045 1039 1045 1013 1045 c 128,-1,21
 987 1045 987 1045 969 1063 c 2,22,-1
 779 1259 l 1,23,-1
 399 1259 l 1,24,-1
 224 1084 l 1,25,-1
 224 925 l 1,26,-1
 399 755 l 1,27,-1
 800 755 l 1,28,-1
 802 755 l 2,29,30
 828 755 828 755 848 737 c 2,31,-1
 1059 522 l 2,32,33
 1077 506 1077 506 1077 478 c 2,34,-1
 1077 268 l 2,35,36
 1077 242 1077 242 1058 223 c 2,37,-1
 847 20 l 2,38,39
 830 2 830 2 804 2 c 2,40,-1
 384 2 l 2,41,42
 367 2 367 2 352 11 c 0,43,44
 340 16 340 16 333 23 c 2,45,-1
 120 224 l 2,46,47
 101 241 101 241 100 266.5 c 128,-1,48
 99 292 99 292 117 311 c 0,49,50
 134 330 134 330 160 330.5 c 128,-1,51
 186 331 186 331 205 314 c 2,52,-1
 405 126 l 1,53,-1
 779 126 l 1,54,-1
 953 294 l 1,55,-1
 953 453 l 1,56,-1
 778 631 l 1,57,-1
 373 631 l 2,0,1
EndSplineSet
Validated: 1
EndChar

StartChar: T
Encoding: 84 84 55
Width: 1175
GlyphClass: 2
Flags: W
LayerCount: 2
Fore
SplineSet
162 1259 m 2,0,1
 136 1259 136 1259 118 1277.5 c 128,-1,2
 100 1296 100 1296 100 1321 c 128,-1,3
 100 1346 100 1346 118 1364.5 c 128,-1,4
 136 1383 136 1383 162 1383 c 2,5,-1
 1014 1383 l 2,6,7
 1040 1383 1040 1383 1058 1364.5 c 128,-1,8
 1076 1346 1076 1346 1076 1321 c 128,-1,9
 1076 1296 1076 1296 1058 1277.5 c 128,-1,10
 1040 1259 1040 1259 1014 1259 c 2,11,-1
 645 1259 l 1,12,-1
 645 63 l 2,13,14
 645 38 645 38 627 20 c 128,-1,15
 609 2 609 2 583 2 c 128,-1,16
 557 2 557 2 539 20 c 128,-1,17
 521 38 521 38 521 63 c 2,18,-1
 521 1259 l 1,19,-1
 162 1259 l 2,0,1
EndSplineSet
Validated: 1
EndChar

StartChar: U
Encoding: 85 85 56
Width: 1176
GlyphClass: 2
Flags: W
LayerCount: 2
Fore
SplineSet
1058 231 m 2,0,-1
 849 25 l 2,1,2
 831 7 831 7 805 7 c 2,3,-1
 373 7 l 2,4,5
 346 7 346 7 330 25 c 2,6,-1
 119 231 l 2,7,8
 100 250 100 250 100 275 c 2,9,-1
 100 1327 l 2,10,11
 100 1353 100 1353 118 1371 c 128,-1,12
 136 1389 136 1389 162 1389 c 128,-1,13
 188 1389 188 1389 206 1371 c 128,-1,14
 224 1353 224 1353 224 1327 c 2,15,-1
 224 301 l 1,16,-1
 398 131 l 1,17,-1
 780 131 l 1,18,-1
 952 301 l 1,19,-1
 952 1327 l 2,20,21
 952 1353 952 1353 970 1371 c 128,-1,22
 988 1389 988 1389 1014 1389 c 128,-1,23
 1040 1389 1040 1389 1058 1371 c 128,-1,24
 1076 1353 1076 1353 1076 1327 c 2,25,-1
 1076 275 l 2,26,27
 1076 261 1076 261 1071 251 c 0,28,29
 1066 239 1066 239 1058 231 c 2,0,-1
EndSplineSet
Validated: 1
EndChar

StartChar: V
Encoding: 86 86 57
Width: 1175
GlyphClass: 2
Flags: W
LayerCount: 2
Fore
SplineSet
163 1383 m 0,0,1
 188 1383 188 1383 206.5 1364.5 c 128,-1,2
 225 1346 225 1346 225 1321 c 2,3,-1
 225 507 l 1,4,-1
 587 151 l 1,5,-1
 951 514 l 1,6,-1
 951 1321 l 2,7,8
 951 1346 951 1346 969.5 1364.5 c 128,-1,9
 988 1383 988 1383 1013 1383 c 0,10,11
 1039 1383 1039 1383 1057.5 1365 c 128,-1,12
 1076 1347 1076 1347 1076 1321 c 2,13,-1
 1076 488 l 2,14,15
 1076 462 1076 462 1058 444 c 2,16,-1
 632 20 l 2,17,18
 614 1 614 1 588.5 1 c 128,-1,19
 563 1 563 1 544 19 c 2,20,-1
 118 437 l 2,21,22
 100 457 100 457 100 481 c 2,23,-1
 100 1321 l 2,24,25
 100 1347 100 1347 118.5 1365 c 128,-1,26
 137 1383 137 1383 163 1383 c 0,0,1
EndSplineSet
Validated: 1
EndChar

StartChar: W
Encoding: 87 87 58
Width: 1176
GlyphClass: 2
Flags: W
LayerCount: 2
Fore
SplineSet
1014 1385 m 128,-1,1
 1040 1385 1040 1385 1058.5 1367 c 128,-1,2
 1077 1349 1077 1349 1077 1323 c 2,3,-1
 1077 66 l 2,4,5
 1077 25 1077 25 1038 9 c 0,6,7
 1000 -7 1000 -7 971 22 c 2,8,-1
 588 394 l 1,9,-1
 206 22 l 2,10,11
 175 -7 175 -7 138 9 c 0,12,13
 100 26 100 26 100 66 c 2,14,-1
 100 1323 l 2,15,16
 100 1348 100 1348 118 1366.5 c 128,-1,17
 136 1385 136 1385 162 1385 c 128,-1,18
 188 1385 188 1385 206 1366.5 c 128,-1,19
 224 1348 224 1348 224 1323 c 2,20,-1
 224 215 l 1,21,-1
 545 525 l 2,22,23
 563 543 563 543 588.5 543 c 128,-1,24
 614 543 614 543 632 525 c 2,25,-1
 952 215 l 1,26,-1
 952 1323 l 2,27,28
 952 1348 952 1348 970 1366.5 c 128,-1,0
 988 1385 988 1385 1014 1385 c 128,-1,1
EndSplineSet
Validated: 33
EndChar

StartChar: X
Encoding: 88 88 59
Width: 1175
GlyphClass: 2
Flags: W
LayerCount: 2
Fore
SplineSet
111 1289 m 2,0,1
 96 1310 96 1310 101 1335.5 c 128,-1,2
 106 1361 106 1361 127 1375 c 128,-1,3
 148 1389 148 1389 173.5 1384.5 c 128,-1,4
 199 1380 199 1380 213 1358 c 2,5,-1
 588 805 l 1,6,-1
 963 1358 l 2,7,8
 977 1379 977 1379 1002 1383.5 c 128,-1,9
 1027 1388 1027 1388 1049 1374 c 0,10,11
 1070 1360 1070 1360 1074.5 1335 c 128,-1,12
 1079 1310 1079 1310 1065 1288 c 2,13,-1
 662 695 l 1,14,-1
 1065 101 l 2,15,16
 1079 79 1079 79 1074.5 54 c 128,-1,17
 1070 29 1070 29 1049 15 c 0,18,19
 1027 1 1027 1 1002 5.5 c 128,-1,20
 977 10 977 10 963 31 c 2,21,-1
 588 584 l 1,22,-1
 213 31 l 2,23,24
 199 10 199 10 173.5 5.5 c 128,-1,25
 148 1 148 1 127 15 c 128,-1,26
 106 29 106 29 101 54.5 c 128,-1,27
 96 80 96 80 111 101 c 2,28,-1
 513 695 l 1,29,-1
 111 1289 l 2,0,1
EndSplineSet
Validated: 1
EndChar

StartChar: Y
Encoding: 89 89 60
Width: 1175
GlyphClass: 2
Flags: W
LayerCount: 2
Fore
SplineSet
119 1070 m 2,0,1
 100 1087 100 1087 100 1114 c 2,2,-1
 100 1321 l 2,3,4
 100 1347 100 1347 118.5 1365 c 128,-1,5
 137 1383 137 1383 163 1383 c 0,6,7
 188 1383 188 1383 206.5 1364.5 c 128,-1,8
 225 1346 225 1346 225 1321 c 2,9,-1
 225 1140 l 1,10,-1
 588 783 l 1,11,-1
 950 1146 l 1,12,-1
 950 1321 l 2,13,14
 950 1346 950 1346 968.5 1364.5 c 128,-1,15
 987 1383 987 1383 1013 1383 c 128,-1,16
 1039 1383 1039 1383 1057.5 1365 c 128,-1,17
 1076 1347 1076 1347 1076 1321 c 2,18,-1
 1076 1120 l 2,19,20
 1076 1095 1076 1095 1058 1077 c 2,21,-1
 651 670 l 1,22,-1
 651 64 l 2,23,24
 651 38 651 38 632.5 20 c 128,-1,25
 614 2 614 2 588 2 c 128,-1,26
 562 2 562 2 543.5 20 c 128,-1,27
 525 38 525 38 525 64 c 2,28,-1
 525 670 l 1,29,-1
 119 1070 l 2,0,1
EndSplineSet
Validated: 1
EndChar

StartChar: Z
Encoding: 90 90 61
Width: 1175
GlyphClass: 2
Flags: W
LayerCount: 2
Fore
SplineSet
101 1321 m 0,0,1
 101 1346 101 1346 119.5 1364.5 c 128,-1,2
 138 1383 138 1383 163 1383 c 2,3,-1
 1013 1383 l 2,4,5
 1038 1383 1038 1383 1056.5 1364.5 c 128,-1,6
 1075 1346 1075 1346 1075 1321 c 2,7,-1
 1075 1114 l 2,8,9
 1075 1088 1075 1088 1057 1070 c 2,10,-1
 225 242 l 1,11,-1
 225 126 l 1,12,-1
 1013 126 l 2,13,14
 1038 126 1038 126 1056.5 108 c 128,-1,15
 1075 90 1075 90 1075 64 c 128,-1,16
 1075 38 1075 38 1057 20 c 128,-1,17
 1039 2 1039 2 1013 2 c 2,18,-1
 162 2 l 2,19,20
 136 2 136 2 118 20 c 128,-1,21
 100 38 100 38 100 64 c 2,22,-1
 100 268 l 2,23,24
 100 294 100 294 118 311 c 2,25,-1
 951 1139 l 1,26,-1
 951 1259 l 1,27,-1
 163 1259 l 2,28,29
 137 1259 137 1259 119 1277 c 128,-1,30
 101 1295 101 1295 101 1321 c 0,0,1
EndSplineSet
Validated: 1
EndChar

StartChar: bracketleft
Encoding: 91 91 62
Width: 792
GlyphClass: 2
Flags: W
LayerCount: 2
Fore
SplineSet
693 1362 m 128,-1,1
 693 1390 693 1390 673 1409.5 c 128,-1,2
 653 1429 653 1429 625 1429 c 2,3,-1
 167 1429 l 2,4,5
 139 1429 139 1429 119.5 1409.5 c 128,-1,6
 100 1390 100 1390 100 1362 c 2,7,-1
 100 -3 l 2,8,9
 100 -31 100 -31 119.5 -51 c 128,-1,10
 139 -71 139 -71 167 -71 c 2,11,-1
 625 -71 l 2,12,13
 653 -71 653 -71 673 -51 c 128,-1,14
 693 -31 693 -31 693 -3 c 128,-1,15
 693 25 693 25 673 44.5 c 128,-1,16
 653 64 653 64 625 64 c 2,17,-1
 235 64 l 1,18,-1
 235 1294 l 1,19,-1
 625 1294 l 2,20,21
 653 1294 653 1294 673 1314 c 128,-1,0
 693 1334 693 1334 693 1362 c 128,-1,1
EndSplineSet
Validated: 9
EndChar

StartChar: backslash
Encoding: 92 92 63
Width: 1169
GlyphClass: 2
Flags: W
LayerCount: 2
Fore
SplineSet
128 1376 m 0,0,1
 106 1362 106 1362 101 1337 c 128,-1,2
 96 1312 96 1312 110 1290 c 2,3,-1
 955 31 l 2,4,5
 970 10 970 10 995 5 c 128,-1,6
 1020 0 1020 0 1042 14 c 0,7,8
 1063 28 1063 28 1068 53.5 c 128,-1,9
 1073 79 1073 79 1059 101 c 2,10,-1
 214 1359 l 2,11,12
 199 1381 199 1381 174 1386 c 128,-1,13
 149 1391 149 1391 128 1376 c 0,0,1
EndSplineSet
Validated: 9
EndChar

StartChar: bracketright
Encoding: 93 93 64
Width: 745
GlyphClass: 2
Flags: W
LayerCount: 2
Fore
SplineSet
100 1362 m 128,-1,1
 100 1390 100 1390 120 1409.5 c 128,-1,2
 140 1429 140 1429 168 1429 c 2,3,-1
 626 1429 l 2,4,5
 654 1429 654 1429 673.5 1409.5 c 128,-1,6
 693 1390 693 1390 693 1362 c 2,7,-1
 693 -3 l 2,8,9
 693 -31 693 -31 673.5 -51 c 128,-1,10
 654 -71 654 -71 626 -71 c 2,11,-1
 168 -71 l 2,12,13
 140 -71 140 -71 120 -51.5 c 128,-1,14
 100 -32 100 -32 100 -3 c 0,15,16
 100 25 100 25 120 44.5 c 128,-1,17
 140 64 140 64 168 64 c 2,18,-1
 558 64 l 1,19,-1
 558 1294 l 1,20,-1
 168 1294 l 2,21,22
 140 1294 140 1294 120 1314 c 128,-1,0
 100 1334 100 1334 100 1362 c 128,-1,1
EndSplineSet
Validated: 1
EndChar

StartChar: asciicircum
Encoding: 94 94 65
Width: 1133
GlyphClass: 2
Flags: W
LayerCount: 2
Fore
SplineSet
118 936 m 0,0,1
 100 954 100 954 100 979.5 c 128,-1,2
 100 1005 100 1005 118 1023 c 2,3,-1
 528 1441 l 2,4,5
 548 1459 548 1459 571 1459 c 0,6,7
 597 1459 597 1459 615 1441 c 2,8,-1
 1033 1023 l 2,9,10
 1051 1005 1051 1005 1051 979.5 c 128,-1,11
 1051 954 1051 954 1033 936 c 128,-1,12
 1015 918 1015 918 989.5 918 c 128,-1,13
 964 918 964 918 946 936 c 2,14,-1
 572 1310 l 1,15,-1
 205 937 l 2,16,17
 188 918 188 918 162.5 918 c 128,-1,18
 137 918 137 918 118 936 c 0,0,1
EndSplineSet
Validated: 1
EndChar

StartChar: underscore
Encoding: 95 95 66
Width: 1147
GlyphClass: 2
Flags: W
LayerCount: 2
Fore
SplineSet
100 -75 m 0,0,1
 100 -49 100 -49 118 -31 c 128,-1,2
 136 -13 136 -13 161 -13 c 2,3,-1
 986 -13 l 2,4,5
 1011 -13 1011 -13 1029 -31 c 128,-1,6
 1047 -49 1047 -49 1047 -75 c 0,7,8
 1047 -100 1047 -100 1029 -118.5 c 128,-1,9
 1011 -137 1011 -137 986 -137 c 2,10,-1
 161 -137 l 2,11,12
 136 -137 136 -137 118 -118.5 c 128,-1,13
 100 -100 100 -100 100 -75 c 0,0,1
EndSplineSet
Validated: 1
EndChar

StartChar: grave
Encoding: 96 96 67
Width: 2048
GlyphClass: 2
LayerCount: 2
Fore
SplineSet
1107.66210938 1343.84277344 m 2,0,-1
 948.32421875 1446.16894531 l 2,1,2
 926.556091869 1460.14856369 926.556091869 1460.14856369 921.04296875 1485.45581055 c 128,-1,3
 915.529845631 1510.7630574 915.529845631 1510.7630574 929.509765625 1532.53125 c 128,-1,4
 943.489507818 1554.29956968 943.489507818 1554.29956968 968.797119141 1559.81347656 c 128,-1,5
 994.104730463 1565.32738345 994.104730463 1565.32738345 1015.87304688 1551.34765625 c 2,6,-1
 1175.20898438 1449.02050781 l 2,7,8
 1196.97734998 1435.0400037 1196.97734998 1435.0400037 1202.49060059 1409.73327637 c 128,-1,9
 1208.00385119 1384.42654903 1208.00385119 1384.42654903 1194.0234375 1362.65820312 c 128,-1,10
 1180.04449435 1340.88925477 1180.04449435 1340.88925477 1154.73742676 1335.37573242 c 128,-1,11
 1129.43035916 1329.86221007 1129.43035916 1329.86221007 1107.66210938 1343.84277344 c 2,0,-1
EndSplineSet
Validated: 524289
EndChar

StartChar: a
Encoding: 97 97 68
Width: 1175
GlyphClass: 2
Flags: W
LayerCount: 2
Fore
SplineSet
951 660 m 1,0,-1
 772 840 l 1,1,-1
 362 840 l 2,2,3
 336 840 336 840 318 858 c 128,-1,4
 300 876 300 876 300 902 c 128,-1,5
 300 928 300 928 318 946 c 128,-1,6
 336 964 336 964 362 964 c 2,7,-1
 797 964 l 2,8,9
 821 964 821 964 841 946 c 2,10,-1
 1057 730 l 2,11,12
 1075 710 1075 710 1075 686 c 2,13,-1
 1075 63 l 2,14,15
 1075 38 1075 38 1056.5 19.5 c 128,-1,16
 1038 1 1038 1 1013 1 c 2,17,-1
 353 1 l 2,18,19
 326 1 326 1 307 22 c 2,20,-1
 116 225 l 2,21,22
 100 244 100 244 100.5 268.5 c 128,-1,23
 101 293 101 293 118 311 c 2,24,-1
 330 522 l 2,25,26
 346 540 346 540 373 540 c 2,27,-1
 951 540 l 1,28,-1
 951 660 l 1,0,-1
399 423 m 1,29,-1
 248 272 l 1,30,-1
 380 132 l 1,31,-1
 951 132 l 1,32,-1
 951 423 l 1,33,-1
 399 423 l 1,29,-1
EndSplineSet
Validated: 1
EndChar

StartChar: b
Encoding: 98 98 69
Width: 1173
GlyphClass: 2
Flags: W
LayerCount: 2
Fore
SplineSet
794 965 m 2,0,1
 820 965 820 965 837 948 c 2,2,-1
 1055 734 l 2,3,4
 1068 721 1068 721 1071 706 c 0,5,6
 1074 699 1074 699 1074 690 c 2,7,-1
 1074 265 l 2,8,9
 1074 240 1074 240 1055 221 c 2,10,-1
 857 22 l 2,11,12
 837 4 837 4 813 4 c 2,13,-1
 162 4 l 2,14,15
 136 4 136 4 118 22 c 128,-1,16
 100 40 100 40 100 66 c 2,17,-1
 100 1324 l 2,18,19
 100 1350 100 1350 118 1368 c 128,-1,20
 136 1386 136 1386 162 1386 c 128,-1,21
 188 1386 188 1386 206 1368 c 128,-1,22
 224 1350 224 1350 224 1324 c 2,23,-1
 224 965 l 1,24,-1
 794 965 l 2,0,1
767 850 m 1,25,-1
 223 850 l 1,26,-1
 223 136 l 1,27,-1
 786 136 l 1,28,-1
 949 298 l 1,29,-1
 949 672 l 1,30,-1
 767 850 l 1,25,-1
EndSplineSet
Validated: 1
EndChar

StartChar: c
Encoding: 99 99 70
Width: 1175
GlyphClass: 2
Flags: W
LayerCount: 2
Fore
SplineSet
224 663 m 1,0,-1
 224 288 l 1,1,-1
 387 126 l 1,2,-1
 1014 126 l 2,3,4
 1039 126 1039 126 1057 107.5 c 128,-1,5
 1075 89 1075 89 1075 63 c 128,-1,6
 1075 37 1075 37 1057 19 c 128,-1,7
 1039 1 1039 1 1014 1 c 2,8,-1
 361 1 l 2,9,10
 335 1 335 1 318 20 c 2,11,-1
 118 219 l 2,12,13
 100 237 100 237 100 263 c 2,14,-1
 100 689 l 2,15,16
 100 695 100 695 102 705 c 0,17,18
 106 720 106 720 119 733 c 2,19,-1
 337 948 l 2,20,21
 356 965 356 965 381 965 c 2,22,-1
 1014 965 l 2,23,24
 1040 965 1040 965 1057.5 947 c 128,-1,25
 1075 929 1075 929 1075 903 c 128,-1,26
 1075 877 1075 877 1057 859 c 128,-1,27
 1039 841 1039 841 1014 841 c 2,28,-1
 406 841 l 1,29,-1
 224 663 l 1,0,-1
EndSplineSet
Validated: 1
EndChar

StartChar: d
Encoding: 100 100 71
Width: 1173
GlyphClass: 2
Flags: W
LayerCount: 2
Fore
SplineSet
380 963 m 2,0,1
 354 963 354 963 337 945 c 2,2,-1
 119 732 l 2,3,4
 107 721 107 721 102 703 c 0,5,6
 100 698 100 698 100 687 c 2,7,-1
 100 262 l 2,8,9
 100 238 100 238 118 218 c 2,10,-1
 317 20 l 2,11,12
 335 2 335 2 360 2 c 2,13,-1
 1012 2 l 2,14,15
 1038 2 1038 2 1056 20 c 128,-1,16
 1074 38 1074 38 1074 64 c 2,17,-1
 1074 1322 l 2,18,19
 1074 1347 1074 1347 1056 1365 c 128,-1,20
 1038 1383 1038 1383 1012 1383 c 128,-1,21
 986 1383 986 1383 968 1365.5 c 128,-1,22
 950 1348 950 1348 950 1322 c 2,23,-1
 950 963 l 1,24,-1
 380 963 l 2,0,1
405 845 m 1,25,-1
 950 845 l 1,26,-1
 950 131 l 1,27,-1
 386 131 l 1,28,-1
 224 294 l 1,29,-1
 224 667 l 1,30,-1
 405 845 l 1,25,-1
EndSplineSet
Validated: 9
EndChar

StartChar: e
Encoding: 101 101 72
Width: 1177
GlyphClass: 2
Flags: W
LayerCount: 2
Fore
SplineSet
102 699 m 2,0,1
 102 723 102 723 120 743 c 2,2,-1
 324 946 l 2,3,4
 341 964 341 964 368 964 c 2,5,-1
 810 964 l 2,6,7
 836 964 836 964 854 946 c 2,8,-1
 1059 741 l 2,9,10
 1077 723 1077 723 1077 697 c 2,11,-1
 1077 479 l 2,12,13
 1077 453 1077 453 1059 435 c 128,-1,14
 1041 417 1041 417 1015 417 c 2,15,-1
 226 417 l 1,16,-1
 226 301 l 1,17,-1
 402 125 l 1,18,-1
 801 125 l 2,19,20
 827 125 827 125 845 107 c 128,-1,21
 863 89 863 89 863 64 c 0,22,23
 863 38 863 38 845 20 c 128,-1,24
 827 2 827 2 801 2 c 2,25,-1
 376 2 l 2,26,27
 350 2 350 2 332 20 c 2,28,-1
 120 232 l 2,29,30
 102 250 102 250 102 275 c 2,31,-1
 102 470 l 2,32,33
 100 480 100 480 100 486 c 128,-1,34
 100 492 100 492 102 502 c 2,35,-1
 102 699 l 2,0,1
956 546 m 1,36,-1
 956 677 l 1,37,-1
 787 846 l 1,38,-1
 395 846 l 1,39,-1
 228 678 l 1,40,-1
 228 546 l 1,41,-1
 956 546 l 1,36,-1
EndSplineSet
Validated: 1
EndChar

StartChar: f
Encoding: 102 102 73
Width: 892
GlyphClass: 2
Flags: W
LayerCount: 2
Fore
SplineSet
161 843 m 2,0,1
 136 843 136 843 118 860.5 c 128,-1,2
 100 878 100 878 100 904 c 128,-1,3
 100 930 100 930 118 947.5 c 128,-1,4
 136 965 136 965 161 965 c 2,5,-1
 304 965 l 1,6,-1
 304 1116 l 2,7,8
 304 1142 304 1142 322 1159 c 2,9,-1
 528 1366 l 2,10,11
 539 1375 539 1375 548 1379 c 0,12,13
 560 1384 560 1384 571 1384 c 2,14,-1
 731 1384 l 2,15,16
 756 1384 756 1384 774 1366 c 128,-1,17
 792 1348 792 1348 792 1322 c 0,18,19
 792 1297 792 1297 774 1279 c 128,-1,20
 756 1261 756 1261 731 1261 c 2,21,-1
 597 1261 l 1,22,-1
 427 1091 l 1,23,-1
 427 965 l 1,24,-1
 726 965 l 2,25,26
 751 965 751 965 769 947 c 128,-1,27
 787 929 787 929 787 904 c 128,-1,28
 787 879 787 879 769 861 c 128,-1,29
 751 843 751 843 726 843 c 2,30,-1
 427 843 l 1,31,-1
 427 63 l 2,32,33
 427 38 427 38 408.5 19.5 c 128,-1,34
 390 1 390 1 365 1 c 128,-1,35
 340 1 340 1 322 19 c 128,-1,36
 304 37 304 37 304 63 c 2,37,-1
 304 843 l 1,38,-1
 161 843 l 2,0,1
EndSplineSet
Validated: 1
EndChar

StartChar: g
Encoding: 103 103 74
Width: 1174
GlyphClass: 2
Flags: W
LayerCount: 2
Fore
SplineSet
1056 -181 m 2,0,-1
 821 -416 l 2,1,2
 804 -434 804 -434 777 -434 c 2,3,-1
 395 -434 l 2,4,5
 369 -434 369 -434 351 -416 c 128,-1,6
 333 -398 333 -398 333 -373 c 0,7,8
 333 -347 333 -347 351 -329 c 128,-1,9
 369 -311 369 -311 395 -311 c 2,10,-1
 752 -311 l 1,11,-1
 951 -112 l 1,12,-1
 951 0 l 1,13,-1
 376 0 l 2,14,15
 350 0 350 0 333 18 c 2,16,-1
 118 233 l 2,17,18
 100 249 100 249 100 276 c 2,19,-1
 100 693 l 2,20,21
 100 718 100 718 119 737 c 2,22,-1
 333 946 l 2,23,24
 352 963 352 963 376 963 c 2,25,-1
 1012 963 l 2,26,27
 1038 963 1038 963 1056.5 945 c 128,-1,28
 1075 927 1075 927 1075 902 c 2,29,-1
 1075 -137 l 2,30,31
 1075 -164 1075 -164 1056 -181 c 2,0,-1
942 843 m 1,32,-1
 393 843 l 1,33,-1
 215 669 l 1,34,-1
 215 305 l 1,35,-1
 393 126 l 1,36,-1
 942 126 l 1,37,-1
 942 843 l 1,32,-1
EndSplineSet
Validated: 1
EndChar

StartChar: h
Encoding: 104 104 75
Width: 1175
GlyphClass: 2
Flags: W
LayerCount: 2
Fore
SplineSet
326 947 m 2,0,1
 345 966 345 966 370 966 c 2,2,-1
 800 966 l 2,3,4
 825 966 825 966 844 947 c 2,5,-1
 1057 734 l 2,6,7
 1076 715 1076 715 1076 690 c 2,8,-1
 1076 64 l 2,9,10
 1076 39 1076 39 1057.5 20.5 c 128,-1,11
 1039 2 1039 2 1013 2 c 0,12,13
 988 2 988 2 969.5 20 c 128,-1,14
 951 38 951 38 951 64 c 2,15,-1
 951 664 l 1,16,-1
 774 841 l 1,17,-1
 396 841 l 1,18,-1
 225 669 l 1,19,-1
 225 64 l 2,20,21
 225 38 225 38 206.5 20 c 128,-1,22
 188 2 188 2 162 2 c 128,-1,23
 136 2 136 2 118 20 c 128,-1,24
 100 38 100 38 100 64 c 2,25,-1
 100 1320 l 2,26,27
 100 1346 100 1346 118 1364 c 128,-1,28
 136 1382 136 1382 162 1382 c 128,-1,29
 188 1382 188 1382 206.5 1364 c 128,-1,30
 225 1346 225 1346 225 1320 c 2,31,-1
 225 845 l 1,32,-1
 326 947 l 2,0,1
EndSplineSet
Validated: 1
EndChar

StartChar: i
Encoding: 105 105 76
Width: 734
GlyphClass: 2
Flags: W
LayerCount: 2
Fore
SplineSet
318 843 m 1,0,-1
 162 843 l 2,1,2
 136 843 136 843 118 861 c 128,-1,3
 100 879 100 879 100 905 c 128,-1,4
 100 931 100 931 118 949 c 128,-1,5
 136 967 136 967 162 967 c 2,6,-1
 379 967 l 2,7,8
 404 967 404 967 422.5 948.5 c 128,-1,9
 441 930 441 930 441 905 c 2,10,-1
 441 127 l 1,11,-1
 572 127 l 2,12,13
 598 127 598 127 616 108.5 c 128,-1,14
 634 90 634 90 634 65 c 128,-1,15
 634 40 634 40 616 21.5 c 128,-1,16
 598 3 598 3 572 3 c 2,17,-1
 162 3 l 2,18,19
 136 3 136 3 118 21 c 128,-1,20
 100 39 100 39 100 65 c 128,-1,21
 100 91 100 91 118 109 c 128,-1,22
 136 127 136 127 162 127 c 2,23,-1
 318 127 l 1,24,-1
 318 843 l 1,0,-1
381 1151 m 128,-1,26
 356 1151 356 1151 337.5 1169.5 c 128,-1,27
 319 1188 319 1188 319 1213 c 2,28,-1
 319 1318 l 2,29,30
 319 1344 319 1344 337 1362 c 128,-1,31
 355 1380 355 1380 381 1380 c 128,-1,32
 407 1380 407 1380 425 1362 c 128,-1,33
 443 1344 443 1344 443 1318 c 2,34,-1
 443 1213 l 2,35,36
 443 1188 443 1188 424.5 1169.5 c 128,-1,25
 406 1151 406 1151 381 1151 c 128,-1,26
EndSplineSet
Validated: 1
EndChar

StartChar: j
Encoding: 106 106 77
Width: 834
GlyphClass: 2
Flags: W
LayerCount: 2
Fore
SplineSet
671 1159 m 128,-1,1
 646 1159 646 1159 627.5 1177.5 c 128,-1,2
 609 1196 609 1196 609 1221 c 2,3,-1
 609 1326 l 2,4,5
 609 1352 609 1352 627.5 1370 c 128,-1,6
 646 1388 646 1388 671 1388 c 128,-1,7
 696 1388 696 1388 714.5 1370 c 128,-1,8
 733 1352 733 1352 733 1326 c 2,9,-1
 733 1221 l 2,10,11
 733 1196 733 1196 714.5 1177.5 c 128,-1,0
 696 1159 696 1159 671 1159 c 128,-1,1
669 990 m 0,12,13
 696 990 696 990 715 971 c 128,-1,14
 734 952 734 952 734 925 c 2,15,-1
 734 -136 l 2,16,17
 734 -163 734 -163 715 -182 c 2,18,-1
 445 -452 l 2,19,20
 426 -471 426 -471 400 -471 c 2,21,-1
 165 -471 l 2,22,23
 138 -471 138 -471 119 -452 c 128,-1,24
 100 -433 100 -433 100 -406 c 0,25,26
 100 -380 100 -380 119 -361 c 128,-1,27
 138 -342 138 -342 165 -342 c 2,28,-1
 373 -342 l 1,29,-1
 605 -110 l 1,30,-1
 605 925 l 2,31,32
 605 952 605 952 624 971 c 128,-1,33
 643 990 643 990 669 990 c 0,12,13
EndSplineSet
Validated: 1
EndChar

StartChar: k
Encoding: 107 107 78
Width: 1076
GlyphClass: 2
Flags: W
LayerCount: 2
Fore
SplineSet
225 63 m 2,0,1
 225 37 225 37 206.5 19 c 128,-1,2
 188 1 188 1 162 1 c 128,-1,3
 136 1 136 1 118 19.5 c 128,-1,4
 100 38 100 38 100 63 c 2,5,-1
 100 1325 l 2,6,7
 100 1351 100 1351 118 1369.5 c 128,-1,8
 136 1388 136 1388 162 1388 c 128,-1,9
 188 1388 188 1388 206.5 1369.5 c 128,-1,10
 225 1351 225 1351 225 1325 c 2,11,-1
 225 577 l 1,12,-1
 454 577 l 1,13,-1
 825 948 l 2,14,15
 844 967 844 967 869.5 967 c 128,-1,16
 895 967 895 967 914 948 c 0,17,18
 932 930 932 930 932 904.5 c 128,-1,19
 932 879 932 879 914 860 c 2,20,-1
 568 515 l 1,21,-1
 977 107 l 2,22,23
 995 89 995 89 995 63 c 128,-1,24
 995 37 995 37 977 19 c 0,25,26
 958 0 958 0 932.5 0 c 128,-1,27
 907 0 907 0 888 19 c 2,28,-1
 455 452 l 1,29,-1
 225 452 l 1,30,-1
 225 63 l 2,0,1
EndSplineSet
Validated: 1
EndChar

StartChar: l
Encoding: 108 108 79
Width: 745
GlyphClass: 2
Flags: W
LayerCount: 2
Fore
SplineSet
322 1257 m 1,0,-1
 162 1257 l 2,1,2
 136 1257 136 1257 118 1275.5 c 128,-1,3
 100 1294 100 1294 100 1320 c 128,-1,4
 100 1346 100 1346 118 1364 c 128,-1,5
 136 1382 136 1382 162 1382 c 2,6,-1
 384 1382 l 2,7,8
 410 1382 410 1382 428 1364 c 128,-1,9
 446 1346 446 1346 446 1320 c 2,10,-1
 446 124 l 1,11,-1
 583 124 l 2,12,13
 609 124 609 124 627.5 105.5 c 128,-1,14
 646 87 646 87 646 62 c 0,15,16
 646 36 646 36 627.5 17.5 c 128,-1,17
 609 -1 609 -1 583 -1 c 2,18,-1
 162 -1 l 2,19,20
 136 -1 136 -1 118 17.5 c 128,-1,21
 100 36 100 36 100 62 c 128,-1,22
 100 88 100 88 118 106 c 128,-1,23
 136 124 136 124 162 124 c 2,24,-1
 322 124 l 1,25,-1
 322 1257 l 1,0,-1
EndSplineSet
Validated: 1
EndChar

StartChar: m
Encoding: 109 109 80
Width: 1175
GlyphClass: 2
Flags: W
LayerCount: 2
Fore
SplineSet
358 840 m 1,0,-1
 224 840 l 1,1,-1
 224 63 l 2,2,3
 224 37 224 37 206 19 c 128,-1,4
 188 1 188 1 162 1 c 128,-1,5
 136 1 136 1 118 19.5 c 128,-1,6
 100 38 100 38 100 63 c 2,7,-1
 100 902 l 2,8,9
 100 928 100 928 118 946 c 128,-1,10
 136 964 136 964 162 964 c 2,11,-1
 383 964 l 2,12,13
 410 964 410 964 427 945 c 2,14,-1
 588 785 l 1,15,-1
 744 941 l 2,16,17
 762 959 762 959 788 959 c 0,18,19
 816 959 816 959 832 941 c 2,20,-1
 1058 715 l 2,21,22
 1076 697 1076 697 1076 671 c 2,23,-1
 1076 63 l 2,24,25
 1076 38 1076 38 1058 19.5 c 128,-1,26
 1040 1 1040 1 1014 1 c 128,-1,27
 988 1 988 1 970 19.5 c 128,-1,28
 952 38 952 38 952 63 c 2,29,-1
 952 645 l 1,30,-1
 788 809 l 1,31,-1
 650 671 l 1,32,-1
 650 63 l 2,33,34
 650 38 650 38 632 19.5 c 128,-1,35
 614 1 614 1 588 1 c 128,-1,36
 562 1 562 1 544 19.5 c 128,-1,37
 526 38 526 38 526 63 c 2,38,-1
 526 671 l 1,39,-1
 358 840 l 1,0,-1
EndSplineSet
Validated: 1
EndChar

StartChar: n
Encoding: 110 110 81
Width: 1175
GlyphClass: 2
Flags: W
LayerCount: 2
Fore
SplineSet
162 0 m 128,-1,1
 136 0 136 0 118 18 c 128,-1,2
 100 36 100 36 100 62 c 2,3,-1
 100 901 l 2,4,5
 100 927 100 927 118 945 c 0,6,7
 138 963 138 963 162 963 c 2,8,-1
 788 962 l 2,9,10
 814 962 814 962 831 944 c 2,11,-1
 1057 718 l 2,12,13
 1075 700 1075 700 1075 674 c 2,14,-1
 1075 62 l 2,15,16
 1075 36 1075 36 1057 18 c 128,-1,17
 1039 0 1039 0 1013 0 c 0,18,19
 988 0 988 0 969.5 18 c 128,-1,20
 951 36 951 36 951 62 c 2,21,-1
 951 648 l 1,22,-1
 762 838 l 1,23,-1
 224 838 l 1,24,-1
 224 62 l 2,25,26
 224 36 224 36 206 18 c 128,-1,0
 188 0 188 0 162 0 c 128,-1,1
EndSplineSet
Validated: 1
EndChar

StartChar: o
Encoding: 111 111 82
Width: 1176
GlyphClass: 2
Flags: W
LayerCount: 2
Fore
SplineSet
100 684 m 2,0,1
 100 708 100 708 118 728 c 2,2,-1
 344 955 l 2,3,4
 364 973 364 973 388 973 c 2,5,-1
 788 973 l 2,6,7
 814 973 814 973 832 955 c 2,8,-1
 1059 728 l 2,9,10
 1077 708 1077 708 1077 684 c 2,11,-1
 1077 298 l 2,12,13
 1077 272 1077 272 1059 254 c 2,14,-1
 832 27 l 2,15,16
 814 9 814 9 788 9 c 2,17,-1
 388 9 l 2,18,19
 364 9 364 9 344 27 c 2,20,-1
 118 254 l 2,21,22
 100 272 100 272 100 298 c 2,23,-1
 100 684 l 2,0,1
414 849 m 1,24,-1
 224 659 l 1,25,-1
 224 323 l 1,26,-1
 414 133 l 1,27,-1
 651 133 l 1,28,-1
 762 133 l 1,29,-1
 952 323 l 1,30,-1
 952 659 l 1,31,-1
 762 849 l 1,32,-1
 525 849 l 1,33,-1
 414 849 l 1,24,-1
EndSplineSet
Validated: 1
EndChar

StartChar: p
Encoding: 112 112 83
Width: 1175
GlyphClass: 2
Flags: W
LayerCount: 2
Fore
SplineSet
795 5 m 2,0,1
 820 5 820 5 839 22 c 2,2,-1
 1057 236 l 2,3,4
 1070 251 1070 251 1073 265 c 0,5,6
 1076 272 1076 272 1076 281 c 2,7,-1
 1076 707 l 2,8,9
 1076 732 1076 732 1057 751 c 2,10,-1
 859 950 l 2,11,12
 839 968 839 968 815 968 c 2,13,-1
 162 968 l 2,14,15
 136 968 136 968 118 950 c 128,-1,16
 100 932 100 932 100 906 c 2,17,-1
 100 -355 l 2,18,19
 100 -380 100 -380 118 -398.5 c 128,-1,20
 136 -417 136 -417 162 -417 c 128,-1,21
 188 -417 188 -417 206 -398.5 c 128,-1,22
 224 -380 224 -380 224 -355 c 2,23,-1
 224 5 l 1,24,-1
 795 5 l 2,0,1
770 129 m 1,25,-1
 224 129 l 1,26,-1
 224 844 l 1,27,-1
 789 844 l 1,28,-1
 952 681 l 1,29,-1
 952 307 l 1,30,-1
 770 129 l 1,25,-1
EndSplineSet
Validated: 9
EndChar

StartChar: q
Encoding: 113 113 84
Width: 1175
GlyphClass: 2
Flags: W
LayerCount: 2
Fore
SplineSet
381 1 m 2,0,1
 357 1 357 1 337 19 c 2,2,-1
 119 233 l 2,3,4
 107 243 107 243 102 261 c 0,5,6
 100 271 100 271 100 277 c 2,7,-1
 100 703 l 2,8,9
 100 729 100 729 118 747 c 2,10,-1
 317 946 l 2,11,12
 336 965 336 965 361 965 c 2,13,-1
 1014 965 l 2,14,15
 1040 965 1040 965 1058 946.5 c 128,-1,16
 1076 928 1076 928 1076 902 c 2,17,-1
 1076 -358 l 2,18,19
 1076 -384 1076 -384 1058 -402 c 128,-1,20
 1040 -420 1040 -420 1014 -420 c 128,-1,21
 988 -420 988 -420 970 -402 c 128,-1,22
 952 -384 952 -384 952 -358 c 2,23,-1
 952 1 l 1,24,-1
 381 1 l 2,0,1
406 125 m 1,25,-1
 952 125 l 1,26,-1
 952 840 l 1,27,-1
 387 840 l 1,28,-1
 224 678 l 1,29,-1
 224 303 l 1,30,-1
 406 125 l 1,25,-1
EndSplineSet
Validated: 1
EndChar

StartChar: r
Encoding: 114 114 85
Width: 876
GlyphClass: 2
Flags: W
LayerCount: 2
Fore
SplineSet
226 64 m 2,0,1
 226 38 226 38 207.5 19.5 c 128,-1,2
 189 1 189 1 163 1 c 128,-1,3
 137 1 137 1 118.5 19.5 c 128,-1,4
 100 38 100 38 100 64 c 2,5,-1
 100 902 l 2,6,7
 100 928 100 928 118.5 946 c 128,-1,8
 137 964 137 964 163 964 c 128,-1,9
 189 964 189 964 207.5 945.5 c 128,-1,10
 226 927 226 927 226 902 c 2,11,-1
 226 648 l 1,12,-1
 524 946 l 2,13,14
 542 964 542 964 568 964 c 2,15,-1
 809 964 l 2,16,17
 835 964 835 964 853.5 946 c 128,-1,18
 872 928 872 928 872 902 c 128,-1,19
 872 876 872 876 853.5 858 c 128,-1,20
 835 840 835 840 809 840 c 2,21,-1
 594 840 l 1,22,-1
 226 472 l 1,23,-1
 226 64 l 2,0,1
EndSplineSet
Validated: 1
EndChar

StartChar: s
Encoding: 115 115 86
Width: 1174
GlyphClass: 2
Flags: W
LayerCount: 2
Fore
SplineSet
1074 901 m 0,0,1
 1074 876 1074 876 1055.5 858 c 128,-1,2
 1037 840 1037 840 1011 840 c 2,3,-1
 388 840 l 1,4,-1
 251 691 l 1,5,-1
 415 540 l 1,6,-1
 790 540 l 2,7,8
 815 540 815 540 834 523 c 2,9,-1
 1055 317 l 2,10,11
 1074 300 1074 300 1074 273 c 0,12,13
 1074 248 1074 248 1055 229 c 2,14,-1
 842 19 l 2,15,16
 824 1 824 1 797 1 c 2,17,-1
 162 1 l 2,18,19
 136 1 136 1 118 19.5 c 128,-1,20
 100 38 100 38 100 63 c 128,-1,21
 100 88 100 88 118 106.5 c 128,-1,22
 136 125 136 125 162 125 c 2,23,-1
 772 125 l 1,24,-1
 922 272 l 1,25,-1
 765 417 l 1,26,-1
 390 417 l 2,27,28
 366 417 366 417 347 433 c 2,29,-1
 120 643 l 2,30,31
 101 660 101 660 100 685.5 c 128,-1,32
 99 711 99 711 117 730 c 2,33,-1
 314 943 l 2,34,35
 332 963 332 963 360 963 c 2,36,-1
 1011 963 l 2,37,38
 1037 963 1037 963 1055.5 945 c 128,-1,39
 1074 927 1074 927 1074 901 c 0,0,1
EndSplineSet
Validated: 1
EndChar

StartChar: t
Encoding: 116 116 87
Width: 845
GlyphClass: 2
Flags: W
LayerCount: 2
Fore
SplineSet
112 841 m 2,0,1
 86 841 86 841 68 859.5 c 128,-1,2
 50 878 50 878 50 903 c 0,3,4
 50 929 50 929 68 947 c 128,-1,5
 86 965 86 965 112 965 c 2,6,-1
 287 965 l 1,7,-1
 287 1135 l 2,8,9
 287 1160 287 1160 305.5 1178.5 c 128,-1,10
 324 1197 324 1197 349 1197 c 128,-1,11
 374 1197 374 1197 392.5 1178.5 c 128,-1,12
 411 1160 411 1160 411 1135 c 2,13,-1
 411 965 l 1,14,-1
 683 965 l 2,15,16
 709 965 709 965 727.5 947 c 128,-1,17
 746 929 746 929 746 903 c 128,-1,18
 746 877 746 877 727.5 859 c 128,-1,19
 709 841 709 841 683 841 c 2,20,-1
 411 841 l 1,21,-1
 411 295 l 1,22,-1
 580 126 l 1,23,-1
 683 126 l 2,24,25
 709 126 709 126 727.5 108 c 128,-1,26
 746 90 746 90 746 64 c 128,-1,27
 746 38 746 38 727.5 20 c 128,-1,28
 709 2 709 2 683 2 c 2,29,-1
 555 2 l 2,30,31
 528 2 528 2 511 20 c 2,32,-1
 305 225 l 2,33,34
 287 245 287 245 287 269 c 2,35,-1
 287 841 l 1,36,-1
 112 841 l 2,0,1
EndSplineSet
Validated: 1
EndChar

StartChar: u
Encoding: 117 117 88
Width: 1175
GlyphClass: 2
Flags: W
LayerCount: 2
Fore
SplineSet
1013 964 m 0,0,1
 1039 964 1039 964 1057 946 c 128,-1,2
 1075 928 1075 928 1075 902 c 2,3,-1
 1075 63 l 2,4,5
 1075 37 1075 37 1057 19 c 0,6,7
 1037 1 1037 1 1013 1 c 2,8,-1
 387 2 l 2,9,10
 360 2 360 2 344 20 c 2,11,-1
 118 246 l 2,12,13
 100 264 100 264 100 290 c 2,14,-1
 100 902 l 2,15,16
 100 928 100 928 118 946 c 128,-1,17
 136 964 136 964 162 964 c 128,-1,18
 188 964 188 964 206 946 c 128,-1,19
 224 928 224 928 224 902 c 2,20,-1
 224 316 l 1,21,-1
 414 126 l 1,22,-1
 951 126 l 1,23,-1
 951 902 l 2,24,25
 951 928 951 928 969.5 946 c 128,-1,26
 988 964 988 964 1013 964 c 0,0,1
EndSplineSet
Validated: 1
EndChar

StartChar: v
Encoding: 118 118 89
Width: 1175
GlyphClass: 2
Flags: W
LayerCount: 2
Fore
SplineSet
134 959 m 128,-1,1
 157 971 157 971 182 962.5 c 128,-1,2
 207 954 207 954 218 931 c 2,3,-1
 584 204 l 1,4,-1
 957 932 l 2,5,6
 970 955 970 955 994.5 963 c 128,-1,7
 1019 971 1019 971 1042 959 c 128,-1,8
 1065 947 1065 947 1072.5 922 c 128,-1,9
 1080 897 1080 897 1068 874 c 2,10,-1
 638 36 l 2,11,12
 622 2 622 2 583 2 c 0,13,14
 544 4 544 4 527 37 c 2,15,-1
 107 875 l 2,16,17
 95 897 95 897 103 922 c 128,-1,0
 111 947 111 947 134 959 c 128,-1,1
EndSplineSet
Validated: 1
EndChar

StartChar: w
Encoding: 119 119 90
Width: 1171
GlyphClass: 2
Flags: W
LayerCount: 2
Fore
SplineSet
792 154 m 1,0,-1
 947 312 l 1,1,-1
 947 903 l 2,2,3
 947 928 947 928 965.5 946.5 c 128,-1,4
 984 965 984 965 1009 965 c 128,-1,5
 1034 965 1034 965 1052.5 946.5 c 128,-1,6
 1071 928 1071 928 1071 903 c 2,7,-1
 1071 286 l 2,8,9
 1071 260 1071 260 1053 242 c 2,10,-1
 834 20 l 2,11,12
 816 2 816 2 788 2 c 0,13,14
 762 2 762 2 744 22 c 2,15,-1
 589 193 l 1,16,-1
 434 22 l 2,17,18
 416 2 416 2 390 2 c 0,19,20
 364 0 364 0 344 20 c 2,21,-1
 118 242 l 2,22,23
 100 260 100 260 100 286 c 2,24,-1
 100 903 l 2,25,26
 100 928 100 928 118 946.5 c 128,-1,27
 136 965 136 965 162 965 c 128,-1,28
 188 965 188 965 206 946.5 c 128,-1,29
 224 928 224 928 224 903 c 2,30,-1
 224 312 l 1,31,-1
 385 154 l 1,32,-1
 526 309 l 1,33,-1
 526 631 l 2,34,35
 526 656 526 656 544 674.5 c 128,-1,36
 562 693 562 693 588 693 c 128,-1,37
 614 693 614 693 632 675 c 128,-1,38
 650 657 650 657 650 631 c 2,39,-1
 650 311 l 1,40,-1
 792 154 l 1,0,-1
EndSplineSet
Validated: 1
EndChar

StartChar: x
Encoding: 120 120 91
Width: 1138
GlyphClass: 2
Flags: W
LayerCount: 2
Fore
SplineSet
100 854 m 2,0,1
 82 872 82 872 82 898 c 128,-1,2
 82 924 82 924 100 942 c 0,3,4
 119 960 119 960 144.5 960 c 128,-1,5
 170 960 170 960 189 942 c 2,6,-1
 570 566 l 1,7,-1
 950 942 l 2,8,9
 968 960 968 960 994 960 c 128,-1,10
 1020 960 1020 960 1039 942 c 0,11,12
 1057 923 1057 923 1057 897.5 c 128,-1,13
 1057 872 1057 872 1039 854 c 2,14,-1
 658 478 l 1,15,-1
 1039 102 l 2,16,17
 1057 84 1057 84 1057 58.5 c 128,-1,18
 1057 33 1057 33 1039 15 c 0,19,20
 1020 -3 1020 -3 994 -3 c 128,-1,21
 968 -3 968 -3 950 15 c 2,22,-1
 570 391 l 1,23,-1
 189 15 l 2,24,25
 170 -3 170 -3 144.5 -3 c 128,-1,26
 119 -3 119 -3 100 15 c 0,27,28
 82 33 82 33 82 58.5 c 128,-1,29
 82 84 82 84 100 102 c 2,30,-1
 481 478 l 1,31,-1
 100 854 l 2,0,1
EndSplineSet
Validated: 1
EndChar

StartChar: y
Encoding: 121 121 92
Width: 1174
GlyphClass: 2
Flags: W
LayerCount: 2
Fore
SplineSet
949 901 m 2,0,1
 949 927 949 927 967.5 945 c 128,-1,2
 986 963 986 963 1012 963 c 128,-1,3
 1038 963 1038 963 1056.5 944.5 c 128,-1,4
 1075 926 1075 926 1075 901 c 2,5,-1
 1075 -137 l 2,6,7
 1075 -163 1075 -163 1056 -182 c 2,8,-1
 818 -418 l 2,9,10
 800 -436 800 -436 773 -436 c 2,11,-1
 397 -436 l 2,12,13
 372 -436 372 -436 353.5 -418 c 128,-1,14
 335 -400 335 -400 335 -374 c 128,-1,15
 335 -348 335 -348 353 -329.5 c 128,-1,16
 371 -311 371 -311 397 -311 c 2,17,-1
 748 -311 l 1,18,-1
 949 -111 l 1,19,-1
 949 0 l 1,20,-1
 380 0 l 2,21,22
 354 0 354 0 336 18 c 2,23,-1
 118 236 l 2,24,25
 100 254 100 254 100 280 c 2,26,-1
 100 901 l 2,27,28
 100 926 100 926 118 944.5 c 128,-1,29
 136 963 136 963 162 963 c 128,-1,30
 188 963 188 963 206.5 945 c 128,-1,31
 225 927 225 927 225 901 c 2,32,-1
 225 306 l 1,33,-1
 406 125 l 1,34,-1
 949 125 l 1,35,-1
 949 901 l 2,0,1
EndSplineSet
Validated: 1
EndChar

StartChar: z
Encoding: 122 122 93
Width: 1174
GlyphClass: 2
Flags: W
LayerCount: 2
Fore
SplineSet
113 908 m 128,-1,1
 113 934 113 934 131.5 952 c 128,-1,2
 150 970 150 970 176 970 c 2,3,-1
 1012 970 l 2,4,5
 1055 970 1055 970 1070 932 c 0,6,7
 1086 893 1086 893 1056 864 c 2,8,-1
 313 129 l 1,9,-1
 1004 129 l 2,10,11
 1030 129 1030 129 1048 110.5 c 128,-1,12
 1066 92 1066 92 1066 66 c 128,-1,13
 1066 40 1066 40 1048 22 c 128,-1,14
 1030 4 1030 4 1004 4 c 2,15,-1
 162 4 l 2,16,17
 120 4 120 4 105 43 c 0,18,19
 88 82 88 82 119 111 c 2,20,-1
 862 846 l 1,21,-1
 176 846 l 2,22,23
 150 846 150 846 131.5 864 c 128,-1,0
 113 882 113 882 113 908 c 128,-1,1
EndSplineSet
Validated: 33
EndChar

StartChar: braceleft
Encoding: 123 123 94
Width: 607
GlyphClass: 2
Flags: W
LayerCount: 2
Fore
SplineSet
488 1410 m 128,-1,1
 469 1430 469 1430 441.5 1429.5 c 128,-1,2
 414 1429 414 1429 395 1409 c 2,3,-1
 294 1302 l 2,4,5
 274 1282 274 1282 274 1254 c 2,6,-1
 274 860 l 1,7,-1
 124 733 l 2,8,9
 100 714 100 714 100 681 c 0,10,11
 100 650 100 650 124 629 c 2,12,-1
 274 503 l 1,13,-1
 274 117 l 2,14,15
 274 92 274 92 291 72 c 2,16,-1
 393 -48 l 2,17,18
 411 -69 411 -69 438 -70.5 c 128,-1,19
 465 -72 465 -72 485 -53 c 128,-1,20
 505 -34 505 -34 507 -6.5 c 128,-1,21
 509 21 509 21 491 42 c 2,22,-1
 405 143 l 1,23,-1
 405 535 l 2,24,25
 405 567 405 567 381 588 c 2,26,-1
 268 682 l 1,27,-1
 381 776 l 2,28,29
 405 797 405 797 405 828 c 2,30,-1
 405 1228 l 1,31,-1
 488 1315 l 2,32,33
 507 1335 507 1335 507 1362.5 c 128,-1,0
 507 1390 507 1390 488 1410 c 128,-1,1
EndSplineSet
Validated: 9
EndChar

StartChar: bar
Encoding: 124 124 95
Width: 324
GlyphClass: 2
Flags: W
LayerCount: 2
Fore
SplineSet
162 1545 m 128,-1,1
 188 1545 188 1545 206.5 1527 c 128,-1,2
 225 1509 225 1509 225 1483 c 2,3,-1
 225 -49 l 2,4,5
 225 -75 225 -75 206.5 -93.5 c 128,-1,6
 188 -112 188 -112 162 -112 c 128,-1,7
 136 -112 136 -112 118 -93.5 c 128,-1,8
 100 -75 100 -75 100 -49 c 2,9,-1
 100 1483 l 2,10,11
 100 1508 100 1508 118 1526.5 c 128,-1,0
 136 1545 136 1545 162 1545 c 128,-1,1
EndSplineSet
Validated: 1
EndChar

StartChar: braceright
Encoding: 125 125 96
Width: 621
GlyphClass: 2
Flags: W
LayerCount: 2
Fore
SplineSet
120 1410 m 128,-1,1
 140 1430 140 1430 168 1429.5 c 128,-1,2
 196 1429 196 1429 216 1409 c 2,3,-1
 321 1302 l 2,4,5
 341 1282 341 1282 341 1254 c 2,6,-1
 341 860 l 1,7,-1
 496 733 l 2,8,9
 521 714 521 714 521 681 c 0,10,11
 521 649 521 649 496 629 c 2,12,-1
 341 503 l 1,13,-1
 341 117 l 2,14,15
 341 94 341 94 324 72 c 2,16,-1
 218 -48 l 2,17,18
 200 -69 200 -69 172 -70.5 c 128,-1,19
 144 -72 144 -72 123 -53 c 128,-1,20
 102 -34 102 -34 100 -6 c 128,-1,21
 98 22 98 22 117 42 c 2,22,-1
 206 143 l 1,23,-1
 206 536 l 2,24,25
 206 568 206 568 231 588 c 2,26,-1
 347 682 l 1,27,-1
 231 776 l 2,28,29
 206 796 206 796 206 828 c 2,30,-1
 206 1228 l 1,31,-1
 120 1315 l 2,32,33
 100 1335 100 1335 100 1362.5 c 128,-1,0
 100 1390 100 1390 120 1410 c 128,-1,1
EndSplineSet
Validated: 1
EndChar

StartChar: asciitilde
Encoding: 126 126 97
Width: 1140
GlyphClass: 2
Flags: W
LayerCount: 2
Fore
SplineSet
100 641 m 0,0,1
 82 660 82 660 82 686 c 128,-1,2
 82 712 82 712 100 730 c 2,3,-1
 319 949 l 2,4,5
 337 967 337 967 363 967 c 128,-1,6
 389 967 389 967 407 949 c 2,7,-1
 779 578 l 1,8,-1
 951 750 l 2,9,10
 970 769 970 769 996 769 c 128,-1,11
 1022 769 1022 769 1040 750 c 0,12,13
 1059 732 1059 732 1059 706 c 128,-1,14
 1059 680 1059 680 1040 662 c 2,15,-1
 823 444 l 2,16,17
 804 426 804 426 778.5 426 c 128,-1,18
 753 426 753 426 734 444 c 2,19,-1
 363 816 l 1,20,-1
 189 641 l 2,21,22
 170 623 170 623 144.5 623 c 128,-1,23
 119 623 119 623 100 641 c 0,0,1
EndSplineSet
Validated: 1
EndChar

StartChar: cedilla
Encoding: 184 184 98
Width: 2048
LayerCount: 2
Fore
SplineSet
1021 -182.615234375 m 2,0,1
 993.405273438 -182.615234375 993.405273438 -182.615234375 973.870117188 -202.150390625 c 128,-1,2
 954.334960938 -221.685546875 954.334960938 -221.685546875 954.334960938 -249.280273438 c 128,-1,3
 954.334960938 -276.875 954.334960938 -276.875 973.870117188 -296.41015625 c 128,-1,4
 993.405273438 -315.9453125 993.405273438 -315.9453125 1021 -315.9453125 c 2,5,-1
 1161.62011719 -315.9453125 l 2,6,7
 1189.21168182 -315.9453125 1189.21168182 -315.9453125 1208.74609375 -296.4140625 c 2,8,-1
 1273.27636719 -231.893554688 l 2,9,10
 1292.81542969 -212.357654104 1292.81542969 -212.357654104 1292.81542969 -184.759765625 c 2,11,-1
 1292.81542969 -86.7001953125 l 2,12,13
 1292.81542969 -59.103887852 1292.81542969 -59.103887852 1273.28027344 -39.5703125 c 2,14,-1
 1193.47949219 40.2294921875 l 2,15,16
 1173.94433594 59.7646484375 1173.94433594 59.7646484375 1146.34960938 59.7646484375 c 2,17,-1
 1087.66503906 59.7646484375 l 1,18,-1
 1087.66503906 87.6796875 l 2,19,20
 1087.66503906 115.274414062 1087.66503906 115.274414062 1068.12988281 134.809570312 c 128,-1,21
 1048.59472656 154.344726562 1048.59472656 154.344726562 1021 154.344726562 c 128,-1,22
 993.405273438 154.344726562 993.405273438 154.344726562 973.870117188 134.809570312 c 128,-1,23
 954.334960938 115.274414062 954.334960938 115.274414062 954.334960938 87.6796875 c 2,24,-1
 954.334960938 -6.900390625 l 2,25,26
 954.334960938 -34.4951171875 954.334960938 -34.4951171875 973.870117188 -54.0302734375 c 128,-1,27
 993.405273438 -73.5654296875 993.405273438 -73.5654296875 1021 -73.5654296875 c 2,28,-1
 1118.75488281 -73.5654296875 l 1,29,-1
 1159.48535156 -114.295898438 l 1,30,-1
 1159.48535156 -157.162109375 l 1,31,-1
 1134.02832031 -182.615234375 l 1,32,-1
 1021 -182.615234375 l 2,0,1
EndSplineSet
Validated: 524297
EndChar

StartChar: cent
Encoding: 162 162 100
Width: 2048
LayerCount: 2
Fore
SplineSet
868.064453125 98.951171875 m 5,0,-1
 816.264648438 98.951171875 l 6,1,2
 789.174804688 98.951171875 789.174804688 98.951171875 769.857421875 117.985351562 c 6,3,-1
 554.454101562 330.307617188 l 6,4,5
 534.78515625 349.69140625 534.78515625 349.69140625 534.78515625 377.348632812 c 6,6,-1
 534.78515625 810.603515625 l 6,7,8
 534.78515625 837.739257812 534.78515625 837.739257812 553.7734375 857.010742188 c 6,9,-1
 751.049804688 1057.32324219 l 6,10,11
 770.479492188 1077.03710938 770.479492188 1077.03710938 798.13671875 1077.03710938 c 6,12,-1
 868.064453125 1077.03710938 l 5,13,-1
 868.064453125 1109.66699219 l 6,14,15
 868.064453125 1135.86523438 868.064453125 1135.86523438 886.607421875 1154.3984375 c 132,-1,16
 905.150390625 1172.93261719 905.150390625 1172.93261719 931.331054688 1172.93261719 c 132,-1,17
 957.510742188 1172.93261719 957.510742188 1172.93261719 976.053710938 1154.3984375 c 132,-1,18
 994.596679688 1135.86523438 994.596679688 1135.86523438 994.596679688 1109.66699219 c 6,19,-1
 994.596679688 1077.03710938 l 5,20,-1
 1050.38476562 1077.03710938 l 5,21,-1
 1050.38476562 1109.66699219 l 6,22,23
 1050.38476562 1135.86523438 1050.38476562 1135.86523438 1068.92773438 1154.3984375 c 132,-1,24
 1087.47070312 1172.93261719 1087.47070312 1172.93261719 1113.65136719 1172.93261719 c 132,-1,25
 1139.83105469 1172.93261719 1139.83105469 1172.93261719 1158.37402344 1154.3984375 c 132,-1,26
 1176.91699219 1135.86523438 1176.91699219 1135.86523438 1176.91699219 1109.66699219 c 6,27,-1
 1176.91699219 1077.03710938 l 5,28,-1
 1444.12109375 1077.03710938 l 6,29,30
 1471.47851562 1077.03710938 1471.47851562 1077.03710938 1490.86035156 1057.6640625 c 132,-1,31
 1510.2421875 1038.29199219 1510.2421875 1038.29199219 1510.2421875 1010.9609375 c 132,-1,32
 1510.2421875 983.599609375 1510.2421875 983.599609375 1490.86230469 964.219726562 c 132,-1,33
 1471.48242188 944.83984375 1471.48242188 944.83984375 1444.12109375 944.83984375 c 6,34,-1
 1176.91699219 944.83984375 l 5,35,-1
 1176.91699219 231.1484375 l 5,36,-1
 1444.12109375 231.1484375 l 6,37,38
 1471.47851562 231.1484375 1471.47851562 231.1484375 1490.86035156 211.776367188 c 132,-1,39
 1510.2421875 192.403320312 1510.2421875 192.403320312 1510.2421875 165.072265625 c 132,-1,40
 1510.2421875 137.7109375 1510.2421875 137.7109375 1490.86230469 118.331054688 c 132,-1,41
 1471.48242188 98.951171875 1471.48242188 98.951171875 1444.12109375 98.951171875 c 6,42,-1
 1176.91699219 98.951171875 l 5,43,-1
 1176.91699219 66.3212890625 l 6,44,45
 1176.91699219 40.1494140625 1176.91699219 40.1494140625 1158.37011719 21.6025390625 c 132,-1,46
 1139.82324219 3.0556640625 1139.82324219 3.0556640625 1113.65136719 3.0556640625 c 132,-1,47
 1087.47949219 3.0556640625 1087.47949219 3.0556640625 1068.93164062 21.6025390625 c 132,-1,48
 1050.38476562 40.1494140625 1050.38476562 40.1494140625 1050.38476562 66.3212890625 c 6,49,-1
 1050.38476562 98.951171875 l 5,50,-1
 994.596679688 98.951171875 l 5,51,-1
 994.596679688 66.3212890625 l 6,52,53
 994.596679688 40.1494140625 994.596679688 40.1494140625 976.049804688 21.6025390625 c 132,-1,54
 957.502929688 3.0556640625 957.502929688 3.0556640625 931.331054688 3.0556640625 c 132,-1,55
 905.159179688 3.0556640625 905.159179688 3.0556640625 886.611328125 21.6025390625 c 132,-1,56
 868.064453125 40.1494140625 868.064453125 40.1494140625 868.064453125 66.3212890625 c 6,57,-1
 868.064453125 98.951171875 l 5,0,-1
868.064453125 944.83984375 m 5,58,-1
 825.78125 944.83984375 l 5,59,-1
 666.936523438 783.547851562 l 5,60,-1
 666.936523438 405.0390625 l 5,61,-1
 843.365234375 231.1484375 l 5,62,-1
 868.064453125 231.1484375 l 5,63,-1
 868.064453125 944.83984375 l 5,58,-1
1050.38476562 944.83984375 m 5,64,-1
 994.596679688 944.83984375 l 5,65,-1
 994.596679688 231.1484375 l 5,66,-1
 1050.38476562 231.1484375 l 5,67,-1
 1050.38476562 944.83984375 l 5,64,-1
EndSplineSet
Validated: 524289
EndChar

StartChar: germandbls
Encoding: 223 223 101
Width: 2048
LayerCount: 2
Fore
SplineSet
1054.39941406 1255.01269531 m 5,0,-1
 907.994140625 1255.01269531 l 5,1,-1
 740.736328125 1077.37402344 l 5,2,-1
 740.736328125 -135.084960938 l 6,3,4
 740.736328125 -160.71484375 740.736328125 -160.71484375 722.502929688 -178.8671875 c 132,-1,5
 704.270507812 -197.01953125 704.270507812 -197.01953125 678.625 -197.01953125 c 132,-1,6
 653.021484375 -197.01953125 653.021484375 -197.01953125 634.989257812 -178.888671875 c 132,-1,7
 616.95703125 -160.756835938 616.95703125 -160.756835938 616.95703125 -135.084960938 c 6,8,-1
 616.95703125 1101.95214844 l 6,9,10
 616.95703125 1126.94335938 616.95703125 1126.94335938 633.81640625 1144.41015625 c 6,11,-1
 836.122070312 1359.40429688 l 6,12,13
 854.903320312 1378.88085938 854.903320312 1378.88085938 881.375 1378.88085938 c 6,14,-1
 1065.046875 1378.88085938 l 5,15,16
 1102.04296875 1389.97851562 1102.04296875 1389.97851562 1129.8203125 1362.6875 c 6,17,-1
 1326.35839844 1166.10449219 l 6,18,19
 1331.52832031 1160.80664062 1331.52832031 1160.80664062 1335.67578125 1154.16992188 c 4,20,21
 1351.203125 1136.171875 1351.203125 1136.171875 1351.203125 1112.15625 c 6,22,-1
 1351.203125 924.934570312 l 6,23,24
 1351.203125 897.79296875 1351.203125 897.79296875 1332.12597656 879.194335938 c 6,25,-1
 1145.79199219 692.815429688 l 5,26,-1
 1401.3359375 535.850585938 l 6,27,28
 1431.06054688 517.435546875 1431.06054688 517.435546875 1431.06054688 483.056640625 c 6,29,-1
 1431.06054688 61.8525390625 l 6,30,31
 1431.06054688 36.22265625 1431.06054688 36.22265625 1412.82714844 18.0703125 c 132,-1,32
 1394.59472656 -0.08203125 1394.59472656 -0.08203125 1368.94921875 -0.08203125 c 6,33,-1
 899.564453125 -0.08203125 l 6,34,35
 873.9609375 -0.08203125 873.9609375 -0.08203125 855.928710938 18.048828125 c 132,-1,36
 837.896484375 36.1806640625 837.896484375 36.1806640625 837.896484375 61.8525390625 c 132,-1,37
 837.896484375 87.494140625 837.896484375 87.494140625 855.930664062 105.618164062 c 132,-1,38
 873.96484375 123.7421875 873.96484375 123.7421875 899.564453125 123.7421875 c 6,39,-1
 1307.28125 123.7421875 l 5,40,-1
 1307.28125 448.451171875 l 5,41,-1
 1027.78027344 620.01171875 l 5,42,43
 1010.83984375 624.530273438 1010.83984375 624.530273438 998.499023438 636.87109375 c 4,44,45
 979.533203125 655.803710938 979.533203125 655.803710938 979.533203125 682.611328125 c 132,-1,46
 979.533203125 709.419921875 979.533203125 709.419921875 998.499023438 728.352539062 c 6,47,-1
 1221.65625 951.731445312 l 5,48,-1
 1221.65625 1087.53320312 l 5,49,-1
 1054.39941406 1255.01269531 l 5,0,-1
EndSplineSet
Validated: 524321
EndChar

StartChar: ae
Encoding: 230 230 102
Width: 2048
LayerCount: 2
Fore
SplineSet
1090.70214844 140.1171875 m 1,0,-1
 1090.70214844 70.2841796875 l 2,1,2
 1090.70214844 42.5498046875 1090.70214844 42.5498046875 1071.22070312 22.962890625 c 128,-1,3
 1051.74023438 3.375 1051.74023438 3.375 1024.08007812 3.375 c 2,4,-1
 419.21484375 3.375 l 2,5,6
 389.424804688 3.375 389.424804688 3.375 369.84765625 25.134765625 c 2,7,-1
 163.2734375 250.78515625 l 2,8,9
 144.9609375 270.612304688 144.9609375 270.612304688 145.540039062 297.42578125 c 128,-1,10
 146.118164062 324.240234375 146.118164062 324.240234375 165.190429688 343.240234375 c 2,11,-1
 393.8125 571.670898438 l 2,12,13
 413.267578125 591.2734375 413.267578125 591.2734375 440.783203125 591.2734375 c 2,14,-1
 956.979492188 591.2734375 l 1,15,-1
 956.979492188 719.1484375 l 1,16,-1
 762.8671875 913.548828125 l 1,17,-1
 417.77734375 913.548828125 l 2,18,19
 390.125976562 913.548828125 390.125976562 913.548828125 370.640625 933.150390625 c 128,-1,20
 351.155273438 952.751953125 351.155273438 952.751953125 351.155273438 980.458007812 c 128,-1,21
 351.155273438 1008.1640625 351.155273438 1008.1640625 370.640625 1027.765625 c 128,-1,22
 390.125976562 1047.3671875 390.125976562 1047.3671875 417.77734375 1047.3671875 c 2,23,-1
 790.186523438 1047.3671875 l 2,24,25
 818.18359375 1047.3671875 818.18359375 1047.3671875 837.635742188 1027.76367188 c 2,26,-1
 1019.76660156 845.920898438 l 1,27,-1
 1199.02148438 1025.31933594 l 2,28,29
 1218.50097656 1044.87402344 1218.50097656 1044.87402344 1246.47167969 1044.87402344 c 2,30,-1
 1613.60839844 1044.87402344 l 2,31,32
 1641.09960938 1044.87402344 1641.09960938 1044.87402344 1660.57910156 1025.31933594 c 2,33,-1
 1882.49023438 803.456054688 l 2,34,35
 1902.14160156 783.729492188 1902.14160156 783.729492188 1902.14160156 756.149414062 c 2,36,-1
 1902.14160156 527.624023438 l 2,37,38
 1902.14160156 499.852539062 1902.14160156 499.852539062 1882.58300781 480.283203125 c 128,-1,39
 1863.0234375 460.71484375 1863.0234375 460.71484375 1835.04101562 460.71484375 c 2,40,-1
 1093.09863281 460.71484375 l 1,41,-1
 1093.09863281 327.135742188 l 1,42,-1
 1282.89746094 137.193359375 l 1,43,-1
 1607.37792969 137.193359375 l 2,44,45
 1635.08300781 137.193359375 1635.08300781 137.193359375 1654.78125 117.583007812 c 128,-1,46
 1674.47851562 97.97265625 1674.47851562 97.97265625 1674.47851562 70.2841796875 c 128,-1,47
 1674.47851562 42.623046875 1674.47851562 42.623046875 1654.77636719 22.9990234375 c 128,-1,48
 1635.07519531 3.375 1635.07519531 3.375 1607.37792969 3.375 c 2,49,-1
 1255.578125 3.375 l 2,50,51
 1227.58203125 3.375 1227.58203125 3.375 1208.12792969 22.978515625 c 2,52,-1
 1090.70214844 140.1171875 l 1,0,-1
956.979492188 457.455078125 m 1,53,-1
 468.58203125 457.455078125 l 1,54,-1
 305.143554688 293.873046875 l 1,55,-1
 448.452148438 137.193359375 l 1,56,-1
 956.979492188 137.193359375 l 1,57,-1
 956.979492188 457.455078125 l 1,53,-1
1093.09863281 594.484375 m 1,58,-1
 1768.41894531 594.484375 l 1,59,-1
 1768.41894531 728.446289062 l 1,60,-1
 1585.80957031 911.104492188 l 1,61,-1
 1273.79101562 911.104492188 l 1,62,-1
 1093.09863281 730.267578125 l 1,63,-1
 1093.09863281 594.484375 l 1,58,-1
EndSplineSet
Validated: 524289
EndChar

StartChar: sterling
Encoding: 163 163 104
Width: 2048
LayerCount: 2
Fore
SplineSet
690.95703125 632.08203125 m 5,0,-1
 596.733398438 632.08203125 l 6,1,2
 571.041992188 632.08203125 571.041992188 632.08203125 552.775390625 650.266601562 c 132,-1,3
 534.509765625 668.451171875 534.509765625 668.451171875 534.509765625 694.126953125 c 132,-1,4
 534.509765625 719.77734375 534.509765625 719.77734375 552.779296875 737.975585938 c 132,-1,5
 571.049804688 756.172851562 571.049804688 756.172851562 596.733398438 756.172851562 c 6,6,-1
 690.95703125 756.172851562 l 5,7,-1
 690.95703125 1107.42382812 l 6,8,9
 690.95703125 1133.6328125 690.95703125 1133.6328125 709.1796875 1151.24707031 c 6,10,-1
 924.294921875 1366.62890625 l 6,11,12
 942.37890625 1384.8515625 942.37890625 1384.8515625 967.8515625 1384.8515625 c 6,13,-1
 1240.30175781 1384.8515625 l 6,14,15
 1266.22363281 1384.8515625 1266.22363281 1384.8515625 1284.30273438 1366.49609375 c 4,16,17
 1422.66601562 1227.46386719 1422.66601562 1227.46386719 1493.1953125 1155.87011719 c 4,18,19
 1511.22949219 1137.63671875 1511.22949219 1137.63671875 1511.13964844 1111.88574219 c 132,-1,20
 1511.04980469 1086.13476562 1511.04980469 1086.13476562 1492.75097656 1068.13476562 c 132,-1,21
 1474.41601562 1050.06835938 1474.41601562 1050.06835938 1448.80566406 1050.21191406 c 132,-1,22
 1423.1953125 1050.35546875 1423.1953125 1050.35546875 1405.19335938 1068.62304688 c 4,23,24
 1290.44335938 1184.66992188 1290.44335938 1184.66992188 1214.5234375 1260.76074219 c 5,25,-1
 993.629882812 1260.76074219 l 5,26,-1
 814.959960938 1081.73535156 l 5,27,-1
 814.959960938 756.172851562 l 5,28,-1
 1226.96777344 756.172851562 l 6,29,30
 1252.90820312 756.172851562 1252.90820312 756.172851562 1271.04980469 738.013671875 c 132,-1,31
 1289.19140625 719.854492188 1289.19140625 719.854492188 1289.19140625 694.126953125 c 132,-1,32
 1289.19140625 668.375 1289.19140625 668.375 1271.05371094 650.228515625 c 132,-1,33
 1252.91601562 632.08203125 1252.91601562 632.08203125 1226.96777344 632.08203125 c 6,34,-1
 814.959960938 632.08203125 l 5,35,-1
 814.959960938 543.857421875 l 5,36,-1
 1226.96777344 543.857421875 l 6,37,38
 1252.91601562 543.857421875 1252.91601562 543.857421875 1271.05371094 525.7109375 c 132,-1,39
 1289.19140625 507.564453125 1289.19140625 507.564453125 1289.19140625 481.8125 c 132,-1,40
 1289.19140625 456.08984375 1289.19140625 456.08984375 1271.05175781 437.950195312 c 132,-1,41
 1252.91210938 419.810546875 1252.91210938 419.810546875 1226.96777344 419.810546875 c 6,42,-1
 814.959960938 419.810546875 l 5,43,-1
 814.959960938 127.450195312 l 5,44,-1
 967.8515625 127.450195312 l 5,45,-1
 1214.96777344 127.450195312 l 5,46,-1
 1405.63769531 315.80859375 l 6,47,48
 1423.97265625 333.875 1423.97265625 333.875 1449.58300781 333.731445312 c 132,-1,49
 1475.19335938 333.587890625 1475.19335938 333.587890625 1493.1953125 315.3203125 c 132,-1,50
 1511.22949219 297.086914062 1511.22949219 297.086914062 1511.13964844 271.3359375 c 132,-1,51
 1511.04980469 245.584960938 1511.04980469 245.584960938 1492.75097656 227.584960938 c 6,52,-1
 1284.30273438 21.314453125 l 6,53,54
 1265.55761719 3.4033203125 1265.55761719 3.4033203125 1240.30175781 3.4033203125 c 6,55,-1
 752.736328125 3.4033203125 l 6,56,57
 727.086914062 3.4033203125 727.086914062 3.4033203125 709.022460938 21.56640625 c 132,-1,58
 690.95703125 39.73046875 690.95703125 39.73046875 690.95703125 65.4482421875 c 6,59,-1
 690.95703125 419.810546875 l 5,60,-1
 596.733398438 419.810546875 l 6,61,62
 571.044921875 419.810546875 571.044921875 419.810546875 552.77734375 437.98828125 c 132,-1,63
 534.509765625 456.166015625 534.509765625 456.166015625 534.509765625 481.8125 c 132,-1,64
 534.509765625 507.48828125 534.509765625 507.48828125 552.775390625 525.672851562 c 132,-1,65
 571.041992188 543.857421875 571.041992188 543.857421875 596.733398438 543.857421875 c 6,66,-1
 690.95703125 543.857421875 l 5,67,-1
 690.95703125 632.08203125 l 5,0,-1
EndSplineSet
Validated: 524289
EndChar

StartChar: yen
Encoding: 165 165 105
Width: 2048
LayerCount: 2
Fore
SplineSet
870.53515625 763.03515625 m 5,0,-1
 556.202148438 1077.98242188 l 6,1,2
 537.581054688 1096.37402344 537.581054688 1096.37402344 537.581054688 1122.640625 c 6,3,-1
 537.581054688 1329.13183594 l 6,4,5
 537.581054688 1355.13085938 537.581054688 1355.13085938 556.075195312 1373.5625 c 132,-1,6
 574.5703125 1391.99414062 574.5703125 1391.99414062 600.536132812 1391.99414062 c 132,-1,7
 626.502929688 1391.99414062 626.502929688 1391.99414062 644.998046875 1373.5625 c 132,-1,8
 663.4921875 1355.13085938 663.4921875 1355.13085938 663.4921875 1329.13183594 c 6,9,-1
 663.4921875 1148.79785156 l 5,10,-1
 1020.83007812 794.295898438 l 5,11,-1
 1378.61230469 1155.13476562 l 5,12,-1
 1378.61230469 1329.13183594 l 6,13,14
 1378.61230469 1355.13085938 1378.61230469 1355.13085938 1397.10644531 1373.5625 c 132,-1,15
 1415.6015625 1391.99414062 1415.6015625 1391.99414062 1441.56738281 1391.99414062 c 132,-1,16
 1467.53417969 1391.99414062 1467.53417969 1391.99414062 1486.02832031 1373.5625 c 132,-1,17
 1504.5234375 1355.13085938 1504.5234375 1355.13085938 1504.5234375 1329.13183594 c 6,18,-1
 1504.5234375 1129.23242188 l 6,19,20
 1504.5234375 1103.53515625 1504.5234375 1103.53515625 1486.34570312 1084.95703125 c 6,21,-1
 1169.79589844 763.03515625 l 5,22,-1
 1334.72070312 763.03515625 l 6,23,24
 1360.99609375 763.03515625 1360.99609375 763.03515625 1379.33691406 745.970703125 c 132,-1,25
 1397.67675781 728.905273438 1397.67675781 728.905273438 1397.67675781 703.192382812 c 4,26,27
 1397.67675781 677.09765625 1397.67675781 677.09765625 1379.13378906 658.204101562 c 132,-1,28
 1360.59179688 639.310546875 1360.59179688 639.310546875 1334.72070312 639.310546875 c 6,29,-1
 1083.78613281 639.310546875 l 5,30,-1
 1083.78613281 550.758789062 l 5,31,-1
 1334.72070312 550.758789062 l 6,32,33
 1360.6875 550.758789062 1360.6875 550.758789062 1379.18164062 532.328125 c 132,-1,34
 1397.67675781 513.896484375 1397.67675781 513.896484375 1397.67675781 487.897460938 c 132,-1,35
 1397.67675781 461.8984375 1397.67675781 461.8984375 1379.18164062 443.466796875 c 132,-1,36
 1360.6875 425.03515625 1360.6875 425.03515625 1334.72070312 425.03515625 c 6,37,-1
 1083.78613281 425.03515625 l 5,38,-1
 1083.78613281 74.2763671875 l 6,39,40
 1083.78613281 48.2001953125 1083.78613281 48.2001953125 1065.41992188 29.8076171875 c 132,-1,41
 1047.05273438 11.4150390625 1047.05273438 11.4150390625 1020.83007812 11.4150390625 c 4,42,43
 994.90625 11.4150390625 994.90625 11.4150390625 976.612304688 29.8251953125 c 132,-1,44
 958.318359375 48.2353515625 958.318359375 48.2353515625 958.318359375 74.2763671875 c 6,45,-1
 958.318359375 425.03515625 l 5,46,-1
 707.383789062 425.03515625 l 6,47,48
 681.416992188 425.03515625 681.416992188 425.03515625 662.922851562 443.466796875 c 132,-1,49
 644.427734375 461.8984375 644.427734375 461.8984375 644.427734375 487.897460938 c 132,-1,50
 644.427734375 513.896484375 644.427734375 513.896484375 662.922851562 532.328125 c 132,-1,51
 681.416992188 550.758789062 681.416992188 550.758789062 707.383789062 550.758789062 c 6,52,-1
 958.318359375 550.758789062 l 5,53,-1
 958.318359375 639.310546875 l 5,54,-1
 707.383789062 639.310546875 l 6,55,56
 681.416992188 639.310546875 681.416992188 639.310546875 662.922851562 657.741210938 c 132,-1,57
 644.427734375 676.172851562 644.427734375 676.172851562 644.427734375 702.171875 c 132,-1,58
 644.427734375 727.981445312 644.427734375 727.981445312 662.822265625 745.508789062 c 132,-1,59
 681.217773438 763.03515625 681.217773438 763.03515625 707.383789062 763.03515625 c 6,60,-1
 870.53515625 763.03515625 l 5,0,-1
EndSplineSet
Validated: 524289
EndChar

StartChar: acute
Encoding: 180 180 107
Width: 2048
LayerCount: 2
Fore
SplineSet
953.709960938 1039.06542969 m 2,0,1
 931.3046875 1026.12988281 931.3046875 1026.12988281 906.287109375 1032.83300781 c 128,-1,2
 881.26953125 1039.53613281 881.26953125 1039.53613281 868.333007812 1061.94140625 c 128,-1,3
 855.397460938 1084.34570312 855.397460938 1084.34570312 862.1015625 1109.36425781 c 128,-1,4
 868.8046875 1134.3828125 868.8046875 1134.3828125 891.209960938 1147.31835938 c 2,5,-1
 1190.49121094 1320.109375 l 2,6,7
 1212.90039062 1333.04589844 1212.90039062 1333.04589844 1237.91601562 1326.34179688 c 128,-1,8
 1262.93261719 1319.63769531 1262.93261719 1319.63769531 1275.86816406 1297.23242188 c 128,-1,9
 1288.8046875 1274.82714844 1288.8046875 1274.82714844 1282.1015625 1249.80957031 c 128,-1,10
 1275.3984375 1224.79296875 1275.3984375 1224.79296875 1252.99121094 1211.85546875 c 2,11,-1
 953.709960938 1039.06542969 l 2,0,1
EndSplineSet
Validated: 524289
EndChar

StartChar: paragraph
Encoding: 182 182 110
Width: 2048
LayerCount: 2
Fore
SplineSet
1091.390625 418.16015625 m 5,0,-1
 929.430664062 418.16015625 l 6,1,2
 904.19921875 418.16015625 904.19921875 418.16015625 885.466796875 436.556640625 c 6,3,-1
 672.162109375 647.66015625 l 6,4,5
 653.529296875 666.326171875 653.529296875 666.326171875 653.529296875 692.272460938 c 6,6,-1
 653.529296875 1123.21582031 l 6,7,8
 653.529296875 1149.41699219 653.529296875 1149.41699219 671.524414062 1167.36816406 c 6,9,-1
 866.833007812 1366.51367188 l 6,10,11
 885.44140625 1385.37011719 885.44140625 1385.37011719 911.48046875 1385.37011719 c 6,12,-1
 1343.41992188 1385.37011719 l 6,13,14
 1369.38378906 1385.37011719 1369.38378906 1385.37011719 1387.72363281 1366.95800781 c 132,-1,15
 1406.0625 1348.546875 1406.0625 1348.546875 1406.0625 1322.36132812 c 4,16,-1
 1406.0625 1321.44140625 l 5,17,-1
 1406.0625 67.2421875 l 6,18,19
 1406.0625 40.7080078125 1406.0625 40.7080078125 1387.43066406 22.0107421875 c 132,-1,20
 1368.79882812 3.3134765625 1368.79882812 3.3134765625 1342.46289062 3.3134765625 c 132,-1,21
 1316.10058594 3.3134765625 1316.10058594 3.3134765625 1297.48242188 22.0068359375 c 132,-1,22
 1278.86328125 40.7001953125 1278.86328125 40.7001953125 1278.86328125 67.2421875 c 6,23,-1
 1278.86328125 1259.8125 l 5,24,-1
 1218.54394531 1259.8125 l 5,25,-1
 1218.54394531 67.2421875 l 6,26,27
 1218.54394531 40.703125 1218.54394531 40.703125 1199.93261719 22.0087890625 c 132,-1,28
 1181.32226562 3.3134765625 1181.32226562 3.3134765625 1154.99023438 3.3134765625 c 132,-1,29
 1128.62792969 3.3134765625 1128.62792969 3.3134765625 1110.00878906 22.0068359375 c 132,-1,30
 1091.390625 40.7001953125 1091.390625 40.7001953125 1091.390625 67.2421875 c 6,31,-1
 1091.390625 418.16015625 l 5,0,-1
1091.390625 1259.8125 m 5,32,-1
 937.72265625 1259.8125 l 5,33,-1
 778.768554688 1097.4609375 l 5,34,-1
 778.768554688 718.947265625 l 5,35,-1
 955.125 544.177734375 l 5,36,-1
 1091.390625 544.177734375 l 5,37,-1
 1091.390625 1259.8125 l 5,32,-1
EndSplineSet
Validated: 524289
EndChar

StartChar: guillemotright
Encoding: 187 187 111
Width: 2048
LayerCount: 2
Fore
SplineSet
641.249023438 26.1826171875 m 6,0,1
 623.124023438 8.1953125 623.124023438 8.1953125 597.591796875 8.375 c 132,-1,2
 572.060546875 8.5556640625 572.060546875 8.5556640625 553.934570312 26.7763671875 c 4,3,4
 536.099609375 44.958984375 536.099609375 44.958984375 536.185546875 70.603515625 c 132,-1,5
 536.271484375 96.2470703125 536.271484375 96.2470703125 554.358398438 114.17578125 c 6,6,-1
 1013.8203125 567.110351562 l 5,7,-1
 554.358398438 1020.08691406 l 6,8,9
 536.271484375 1038.015625 536.271484375 1038.015625 536.185546875 1063.65917969 c 132,-1,10
 536.099609375 1089.30371094 536.099609375 1089.30371094 553.934570312 1107.48632812 c 4,11,12
 572.052734375 1125.70019531 572.052734375 1125.70019531 597.591796875 1125.87109375 c 132,-1,13
 623.131835938 1126.04296875 623.131835938 1126.04296875 641.249023438 1108.08007812 c 6,14,-1
 1145.21679688 611.149414062 l 6,15,16
 1163.86621094 592.899414062 1163.86621094 592.899414062 1163.86621094 567.110351562 c 132,-1,17
 1163.86621094 541.36328125 1163.86621094 541.36328125 1145.21679688 523.11328125 c 6,18,-1
 641.249023438 26.1826171875 l 6,0,1
986.249023438 26.1826171875 m 6,19,20
 968.124023438 8.1953125 968.124023438 8.1953125 942.591796875 8.375 c 132,-1,21
 917.060546875 8.5556640625 917.060546875 8.5556640625 898.934570312 26.7763671875 c 4,22,23
 881.099609375 44.958984375 881.099609375 44.958984375 881.185546875 70.603515625 c 132,-1,24
 881.271484375 96.2470703125 881.271484375 96.2470703125 899.358398438 114.17578125 c 6,25,-1
 1358.8203125 567.110351562 l 5,26,-1
 899.358398438 1020.08691406 l 6,27,28
 881.271484375 1038.015625 881.271484375 1038.015625 881.185546875 1063.65917969 c 132,-1,29
 881.099609375 1089.30371094 881.099609375 1089.30371094 898.934570312 1107.48632812 c 4,30,31
 917.052734375 1125.70019531 917.052734375 1125.70019531 942.591796875 1125.87109375 c 132,-1,32
 968.131835938 1126.04296875 968.131835938 1126.04296875 986.249023438 1108.08007812 c 6,33,-1
 1490.21679688 611.149414062 l 6,34,35
 1508.86621094 592.899414062 1508.86621094 592.899414062 1508.86621094 567.110351562 c 132,-1,36
 1508.86621094 541.36328125 1508.86621094 541.36328125 1490.21679688 523.11328125 c 6,37,-1
 986.249023438 26.1826171875 l 6,19,20
EndSplineSet
Validated: 524289
EndChar

StartChar: plusminus
Encoding: 177 177 112
Width: 2048
LayerCount: 2
Fore
SplineSet
967.071289062 722.842773438 m 1,0,-1
 648.54296875 722.842773438 l 2,1,2
 625.064964574 722.842773438 625.064964574 722.842773438 608.364025256 739.477862931 c 128,-1,3
 591.663085938 756.112952425 591.663085938 756.112952425 591.663085938 779.560546875 c 128,-1,4
 591.663085938 803.031267396 591.663085938 803.031267396 608.360554487 819.654793854 c 128,-1,5
 625.058023036 836.278320312 625.058023036 836.278320312 648.54296875 836.278320312 c 2,6,-1
 966.258789062 836.278320312 l 1,7,-1
 963.821289062 1073.91503906 l 2,8,9
 963.821289062 1097.42519632 963.821289062 1097.42519632 980.334987155 1114.16066214 c 128,-1,10
 996.848685247 1130.89612797 996.848685247 1130.89612797 1020.29492188 1131.07910156 c 128,-1,11
 1043.78414227 1131.23161468 1043.78414227 1131.23161468 1060.47947348 1114.73357127 c 128,-1,12
 1077.17480469 1098.23552786 1077.17480469 1098.23552786 1077.17480469 1074.76757812 c 2,13,-1
 1079.61328125 836.278320312 l 1,14,-1
 1398.14160156 836.278320312 l 2,15,16
 1421.62654728 836.278320312 1421.62654728 836.278320312 1438.32401583 819.654793854 c 128,-1,17
 1455.02148438 803.031267396 1455.02148438 803.031267396 1455.02148438 779.560546875 c 128,-1,18
 1455.02148438 756.112952425 1455.02148438 756.112952425 1438.32054506 739.477862931 c 128,-1,19
 1421.61960574 722.842773438 1421.61960574 722.842773438 1398.14160156 722.842773438 c 2,20,-1
 1080.42578125 722.842773438 l 1,21,-1
 1082.86328125 486.221679688 l 2,22,23
 1083.16732053 462.778496932 1083.16732053 462.778496932 1066.53533329 446.014900897 c 128,-1,24
 1049.90334605 429.251304862 1049.90334605 429.251304862 1026.38964844 429.098632812 c 128,-1,25
 1002.9107576 428.915404384 1002.9107576 428.915404384 986.210261611 445.418551545 c 128,-1,26
 969.509765625 461.921698706 969.509765625 461.921698706 969.509765625 485.369140625 c 2,27,-1
 967.071289062 722.842773438 l 1,0,-1
643.26171875 213.482421875 m 2,28,29
 619.776115701 213.482421875 619.776115701 213.482421875 603.078975819 230.105422541 c 128,-1,30
 586.381835938 246.728423207 586.381835938 246.728423207 586.381835938 270.19921875 c 128,-1,31
 586.381835938 293.643184061 586.381835938 293.643184061 603.080578018 310.260068593 c 128,-1,32
 619.779320098 326.876953125 619.779320098 326.876953125 643.26171875 326.876953125 c 2,33,-1
 1403.42285156 326.876953125 l 2,34,35
 1426.90525021 326.876953125 1426.90525021 326.876953125 1443.60399229 310.260068593 c 128,-1,36
 1460.30273438 293.643184061 1460.30273438 293.643184061 1460.30273438 270.19921875 c 128,-1,37
 1460.30273438 246.728423207 1460.30273438 246.728423207 1443.60559449 230.105422541 c 128,-1,38
 1426.90845461 213.482421875 1426.90845461 213.482421875 1403.42285156 213.482421875 c 2,39,-1
 643.26171875 213.482421875 l 2,28,29
EndSplineSet
Validated: 524289
EndChar

StartChar: macron
Encoding: 175 175 113
Width: 2048
LayerCount: 2
Fore
SplineSet
890.291015625 1466.74511719 m 2,0,1
 867.868652344 1466.74511719 867.868652344 1466.74511719 851.996337891 1482.61743164 c 128,-1,2
 836.124023438 1498.48974609 836.124023438 1498.48974609 836.124023438 1520.91210938 c 128,-1,3
 836.124023438 1543.33325195 836.124023438 1543.33325195 851.996459961 1559.20568848 c 128,-1,4
 867.868896484 1575.078125 867.868896484 1575.078125 890.291015625 1575.078125 c 2,5,-1
 1152.48144531 1575.078125 l 2,6,7
 1174.90619196 1575.078125 1174.90619196 1575.078125 1190.77926785 1559.20583956 c 128,-1,8
 1206.65234375 1543.33355411 1206.65234375 1543.33355411 1206.65234375 1520.91210938 c 128,-1,9
 1206.65234375 1498.48944394 1206.65234375 1498.48944394 1190.77938993 1482.61728056 c 128,-1,10
 1174.90643611 1466.74511719 1174.90643611 1466.74511719 1152.48144531 1466.74511719 c 2,11,-1
 890.291015625 1466.74511719 l 2,0,1
EndSplineSet
Validated: 524289
EndChar

StartChar: registered
Encoding: 174 174 114
Width: 2048
LayerCount: 2
Fore
SplineSet
464.1484375 856.375 m 6,0,-1
 464.1484375 1267.86816406 l 6,1,2
 464.1484375 1283.41210938 464.1484375 1283.41210938 475.5078125 1294.84667969 c 6,3,-1
 715.948242188 1535.66601562 l 6,4,5
 727.018554688 1546.88378906 727.018554688 1546.88378906 742.926757812 1546.88378906 c 6,6,-1
 1162.75097656 1546.88378906 l 6,7,8
 1178.65917969 1546.88378906 1178.65917969 1546.88378906 1189.72949219 1535.66601562 c 6,9,-1
 1429.69628906 1294.84667969 l 6,10,11
 1441.05566406 1283.41210938 1441.05566406 1283.41210938 1441.05566406 1267.86816406 c 6,12,-1
 1441.05566406 856.375 l 6,13,14
 1441.05566406 840.831054688 1441.05566406 840.831054688 1429.69628906 829.395507812 c 6,15,-1
 1189.72949219 588.577148438 l 6,16,17
 1178.65917969 577.359375 1178.65917969 577.359375 1162.75097656 577.359375 c 6,18,-1
 742.926757812 577.359375 l 6,19,20
 727.018554688 577.359375 727.018554688 577.359375 715.948242188 588.577148438 c 6,21,-1
 475.5078125 829.395507812 l 6,22,23
 464.1484375 840.831054688 464.1484375 840.831054688 464.1484375 856.375 c 6,0,-1
1146.65820312 1470.5390625 m 5,24,-1
 758.545898438 1470.5390625 l 5,25,-1
 540.82421875 1252.10742188 l 5,26,-1
 540.82421875 877.15234375 l 5,27,-1
 540.82421875 872.182617188 l 5,28,-1
 758.545898438 653.704101562 l 5,29,-1
 1146.65820312 653.704101562 l 5,30,-1
 1364.85351562 872.182617188 l 5,31,-1
 1364.85351562 1247.08984375 l 5,32,-1
 1364.85351562 1252.10742188 l 5,33,-1
 1146.65820312 1470.5390625 l 5,24,-1
780.376953125 931.407226562 m 5,34,-1
 780.376953125 762.918945312 l 6,35,36
 780.376953125 750.69140625 780.376953125 750.69140625 771.677734375 742.030273438 c 132,-1,37
 762.978515625 733.370117188 762.978515625 733.370117188 750.743164062 733.370117188 c 132,-1,38
 738.528320312 733.370117188 738.528320312 733.370117188 729.924804688 742.020507812 c 132,-1,39
 721.321289062 750.670898438 721.321289062 750.670898438 721.321289062 762.918945312 c 6,40,-1
 721.321289062 1362.19628906 l 6,41,42
 721.321289062 1374.44433594 721.321289062 1374.44433594 729.924804688 1383.09472656 c 132,-1,43
 738.528320312 1391.74511719 738.528320312 1391.74511719 750.743164062 1391.74511719 c 4,44,45
 753.377929688 1391.74511719 753.377929688 1391.74511719 756.03515625 1391.27929688 c 6,46,-1
 1055.12304688 1391.27929688 l 6,47,48
 1067.13476562 1391.27929688 1067.13476562 1391.27929688 1076.07910156 1382.60058594 c 6,49,-1
 1176.41015625 1282.14257812 l 6,50,51
 1184.87695312 1273.64257812 1184.87695312 1273.64257812 1184.87695312 1261.27246094 c 6,52,-1
 1184.87695312 1061.28710938 l 6,53,54
 1184.87695312 1048.80664062 1184.87695312 1048.80664062 1176.19824219 1040.41699219 c 6,55,-1
 1075.8671875 940.064453125 l 6,56,57
 1067.27539062 931.407226562 1067.27539062 931.407226562 1055.12304688 931.407226562 c 6,58,-1
 1025.49023438 931.407226562 l 5,59,-1
 1175.98632812 784.022460938 l 6,60,61
 1184.70507812 775.477539062 1184.70507812 775.477539062 1184.87597656 763.225585938 c 132,-1,62
 1185.04785156 750.973632812 1185.04785156 750.973632812 1176.62109375 742.239257812 c 132,-1,63
 1168.046875 733.505859375 1168.046875 733.505859375 1155.74511719 733.373046875 c 132,-1,64
 1143.44433594 733.239257812 1143.44433594 733.239257812 1134.7109375 741.793945312 c 6,65,-1
 941.034179688 931.407226562 l 5,66,-1
 780.376953125 931.407226562 l 5,34,-1
780.376953125 1332.18164062 m 5,67,-1
 780.376953125 990.484375 l 5,68,-1
 1042.84667969 990.484375 l 5,69,-1
 1125.82128906 1073.54296875 l 5,70,-1
 1125.82128906 1249.03808594 l 5,71,-1
 1042.84667969 1332.18164062 l 5,72,-1
 780.376953125 1332.18164062 l 5,67,-1
EndSplineSet
Validated: 524289
EndChar

StartChar: guillemotleft
Encoding: 171 171 115
Width: 2048
LayerCount: 2
Fore
SplineSet
1403.75097656 1118.1171875 m 6,0,1
 1421.87597656 1136.10449219 1421.87597656 1136.10449219 1447.40820312 1135.92480469 c 132,-1,2
 1472.93945312 1135.74511719 1472.93945312 1135.74511719 1491.06542969 1117.52441406 c 4,3,4
 1508.90039062 1099.34179688 1508.90039062 1099.34179688 1508.81445312 1073.69726562 c 132,-1,5
 1508.72851562 1048.05273438 1508.72851562 1048.05273438 1490.64160156 1030.125 c 6,6,-1
 1031.1796875 577.189453125 l 5,7,-1
 1490.64160156 124.212890625 l 6,8,9
 1508.72851562 106.284179688 1508.72851562 106.284179688 1508.81445312 80.640625 c 132,-1,10
 1508.90039062 54.99609375 1508.90039062 54.99609375 1491.06542969 36.8134765625 c 4,11,12
 1472.94726562 18.599609375 1472.94726562 18.599609375 1447.40820312 18.4287109375 c 132,-1,13
 1421.86816406 18.2568359375 1421.86816406 18.2568359375 1403.75097656 36.2197265625 c 6,14,-1
 899.783203125 533.151367188 l 6,15,16
 881.133789062 551.400390625 881.133789062 551.400390625 881.133789062 577.189453125 c 132,-1,17
 881.133789062 602.936523438 881.133789062 602.936523438 899.783203125 621.186523438 c 6,18,-1
 1403.75097656 1118.1171875 l 6,0,1
1058.75097656 1118.1171875 m 6,19,20
 1076.87597656 1136.10449219 1076.87597656 1136.10449219 1102.40820312 1135.92480469 c 132,-1,21
 1127.93945312 1135.74511719 1127.93945312 1135.74511719 1146.06542969 1117.52441406 c 4,22,23
 1163.90039062 1099.34179688 1163.90039062 1099.34179688 1163.81445312 1073.69726562 c 132,-1,24
 1163.72851562 1048.05273438 1163.72851562 1048.05273438 1145.64160156 1030.125 c 6,25,-1
 686.1796875 577.189453125 l 5,26,-1
 1145.64160156 124.212890625 l 6,27,28
 1163.72851562 106.284179688 1163.72851562 106.284179688 1163.81445312 80.640625 c 132,-1,29
 1163.90039062 54.99609375 1163.90039062 54.99609375 1146.06542969 36.8134765625 c 4,30,31
 1127.94726562 18.599609375 1127.94726562 18.599609375 1102.40820312 18.4287109375 c 132,-1,32
 1076.86816406 18.2568359375 1076.86816406 18.2568359375 1058.75097656 36.2197265625 c 6,33,-1
 554.783203125 533.151367188 l 6,34,35
 536.133789062 551.400390625 536.133789062 551.400390625 536.133789062 577.189453125 c 132,-1,36
 536.133789062 602.936523438 536.133789062 602.936523438 554.783203125 621.186523438 c 6,37,-1
 1058.75097656 1118.1171875 l 6,19,20
EndSplineSet
Validated: 524289
EndChar

StartChar: copyright
Encoding: 169 169 116
Width: 2048
LayerCount: 2
Fore
SplineSet
534.1484375 316.375 m 2,0,-1
 534.1484375 727.868164062 l 2,1,2
 534.1484375 743.412109375 534.1484375 743.412109375 545.5078125 754.846679688 c 2,3,-1
 785.948242188 995.666015625 l 2,4,5
 797.018554688 1006.88378906 797.018554688 1006.88378906 812.926757812 1006.88378906 c 2,6,-1
 1232.75097656 1006.88378906 l 2,7,8
 1248.65917969 1006.88378906 1248.65917969 1006.88378906 1259.72949219 995.666015625 c 2,9,-1
 1499.69628906 754.846679688 l 2,10,11
 1511.05566406 743.412109375 1511.05566406 743.412109375 1511.05566406 727.868164062 c 2,12,-1
 1511.05566406 316.375 l 2,13,14
 1511.05566406 300.831054688 1511.05566406 300.831054688 1499.69628906 289.395507812 c 2,15,-1
 1259.72949219 48.5771484375 l 2,16,17
 1248.65917969 37.359375 1248.65917969 37.359375 1232.75097656 37.359375 c 2,18,-1
 812.926757812 37.359375 l 2,19,20
 797.018554688 37.359375 797.018554688 37.359375 785.948242188 48.5771484375 c 2,21,-1
 545.5078125 289.395507812 l 2,22,23
 534.1484375 300.831054688 534.1484375 300.831054688 534.1484375 316.375 c 2,0,-1
1216.65820312 930.5390625 m 1,24,-1
 828.545898438 930.5390625 l 1,25,-1
 610.82421875 712.107421875 l 1,26,-1
 610.82421875 337.15234375 l 1,27,-1
 610.82421875 332.182617188 l 1,28,-1
 828.545898438 113.704101562 l 1,29,-1
 1216.65820312 113.704101562 l 1,30,-1
 1434.85351562 332.182617188 l 1,31,-1
 1434.85351562 707.08984375 l 1,32,-1
 1434.85351562 712.107421875 l 1,33,-1
 1216.65820312 930.5390625 l 1,24,-1
1226.59765625 817.276367188 m 2,34,35
 1243.27246094 817.276367188 1243.27246094 817.276367188 1255.05078125 805.584960938 c 128,-1,36
 1266.82910156 793.892578125 1266.82910156 793.892578125 1266.82910156 777.376953125 c 128,-1,37
 1266.82910156 760.861328125 1266.82910156 760.861328125 1255.05078125 749.168945312 c 128,-1,38
 1243.27246094 737.4765625 1243.27246094 737.4765625 1226.59765625 737.4765625 c 2,39,-1
 853.630859375 737.4765625 l 1,40,-1
 757.549804688 640.1171875 l 1,41,-1
 757.549804688 411.69921875 l 1,42,-1
 864.043945312 306.766601562 l 1,43,-1
 1226.59765625 306.766601562 l 2,44,45
 1243.27246094 306.766601562 1243.27246094 306.766601562 1255.05078125 295.07421875 c 128,-1,46
 1266.82910156 283.381835938 1266.82910156 283.381835938 1266.82910156 266.866210938 c 128,-1,47
 1266.82910156 250.35546875 1266.82910156 250.35546875 1255.05273438 238.684570312 c 128,-1,48
 1243.27636719 227.013671875 1243.27636719 227.013671875 1226.59765625 227.013671875 c 2,49,-1
 847.951171875 227.013671875 l 2,50,51
 831.111328125 227.013671875 831.111328125 227.013671875 820.026367188 238.467773438 c 2,52,-1
 689.866210938 366.592773438 l 2,53,54
 678.033203125 378.350585938 678.033203125 378.350585938 678.033203125 394.991210938 c 2,55,-1
 678.033203125 656.494140625 l 2,56,57
 678.033203125 673.249023438 678.033203125 673.249023438 689.392578125 684.465820312 c 2,58,-1
 808.666992188 805.348632812 l 2,59,60
 819.778320312 817.276367188 819.778320312 817.276367188 837.065429688 817.276367188 c 2,61,-1
 1226.59765625 817.276367188 l 2,34,35
EndSplineSet
Validated: 524289
EndChar

StartChar: section
Encoding: 167 167 117
Width: 2048
LayerCount: 2
Fore
SplineSet
1314.61328125 477.720703125 m 5,0,-1
 1491.19628906 310.036132812 l 6,1,2
 1510.66210938 291.291992188 1510.66210938 291.291992188 1510.66210938 263.689453125 c 4,3,4
 1509.93066406 236.077148438 1509.93066406 236.077148438 1489.80664062 218.037109375 c 6,5,-1
 1269.19335938 21.7099609375 l 6,6,7
 1251.18066406 5.859375 1251.18066406 5.859375 1227.48144531 5.859375 c 6,8,-1
 592.524414062 5.859375 l 6,9,10
 566.809570312 5.859375 566.809570312 5.859375 548.614257812 24.185546875 c 132,-1,11
 530.418945312 42.5126953125 530.418945312 42.5126953125 530.418945312 68.3818359375 c 132,-1,12
 530.418945312 94.2470703125 530.418945312 94.2470703125 548.612304688 112.552734375 c 132,-1,13
 566.8046875 130.858398438 566.8046875 130.858398438 592.524414062 130.858398438 c 6,14,-1
 1203.84375 130.858398438 l 5,15,-1
 1355.86230469 266.145507812 l 5,16,-1
 1195.50097656 418.48828125 l 5,17,-1
 827.041015625 418.48828125 l 6,18,19
 803.083984375 418.48828125 803.083984375 418.48828125 785.791992188 434.33984375 c 6,20,-1
 551.275390625 643.50390625 l 6,21,22
 531.151367188 661.11328125 531.151367188 661.11328125 530.418945312 687.951171875 c 4,23,24
 528.979492188 714.444335938 528.979492188 714.444335938 548.03125 733.7890625 c 6,25,-1
 712.100585938 902.260742188 l 5,26,-1
 549.421875 1066.74707031 l 6,27,28
 531.381835938 1084.85644531 531.381835938 1084.85644531 531.288085938 1110.41210938 c 132,-1,29
 531.194335938 1135.96777344 531.194335938 1135.96777344 548.958007812 1154.25097656 c 6,30,-1
 752.885742188 1364.15722656 l 6,31,32
 771.04296875 1383.11328125 771.04296875 1383.11328125 797.37890625 1383.11328125 c 6,33,-1
 1448.09375 1383.11328125 l 6,34,35
 1473.86035156 1383.11328125 1473.86035156 1383.11328125 1492.26171875 1364.77832031 c 132,-1,36
 1510.66210938 1346.44335938 1510.66210938 1346.44335938 1510.66210938 1320.59082031 c 132,-1,37
 1510.66210938 1294.76953125 1510.66210938 1294.76953125 1492.25976562 1276.44238281 c 132,-1,38
 1473.85742188 1258.11425781 1473.85742188 1258.11425781 1448.09375 1258.11425781 c 6,39,-1
 823.796875 1258.11425781 l 5,40,-1
 681.047851562 1111.14746094 l 5,41,-1
 823.796875 967.33203125 l 5,42,-1
 1220.06542969 967.33203125 l 6,43,44
 1244.67578125 967.33203125 1244.67578125 967.33203125 1262.70507812 950.600585938 c 6,45,-1
 1490.73339844 738.655273438 l 6,46,47
 1510.66210938 720.0546875 1510.66210938 720.0546875 1510.66210938 693.419921875 c 4,48,49
 1510.66210938 666.389648438 1510.66210938 666.389648438 1491.19628906 647.861328125 c 6,50,-1
 1314.61328125 477.720703125 l 5,0,-1
828.431640625 842.333984375 m 5,51,-1
 682.901367188 693.327148438 l 5,52,-1
 851.141601562 543.487304688 l 5,53,-1
 1202.453125 543.487304688 l 5,54,-1
 1357.25292969 692.168945312 l 5,55,-1
 1195.50097656 842.333984375 l 5,56,-1
 828.431640625 842.333984375 l 5,51,-1
EndSplineSet
Validated: 524289
EndChar

StartChar: exclamdown
Encoding: 161 161 118
Width: 2048
LayerCount: 2
Fore
SplineSet
805.740234375 998.469726562 m 6,0,1
 805.740234375 1016.6796875 805.740234375 1016.6796875 818.6953125 1029.57714844 c 132,-1,2
 831.649414062 1042.47460938 831.649414062 1042.47460938 849.87109375 1042.47460938 c 6,3,-1
 999.600585938 1042.47460938 l 6,4,5
 1017.82226562 1042.47460938 1017.82226562 1042.47460938 1030.77734375 1029.57714844 c 132,-1,6
 1043.73144531 1016.6796875 1043.73144531 1016.6796875 1043.73144531 998.469726562 c 6,7,-1
 1043.73144531 850.221679688 l 6,8,9
 1043.73144531 832.01171875 1043.73144531 832.01171875 1030.77734375 819.114257812 c 132,-1,10
 1017.82226562 806.216796875 1017.82226562 806.216796875 999.600585938 806.216796875 c 6,11,-1
 849.87109375 806.216796875 l 6,12,13
 831.649414062 806.216796875 831.649414062 806.216796875 818.6953125 819.114257812 c 132,-1,14
 805.740234375 832.01171875 805.740234375 832.01171875 805.740234375 850.221679688 c 6,15,-1
 805.740234375 998.469726562 l 6,0,1
893.6875 954.46484375 m 5,16,-1
 893.6875 894.2265625 l 5,17,-1
 955.78515625 894.2265625 l 5,18,-1
 955.78515625 954.46484375 l 5,19,-1
 893.6875 954.46484375 l 5,16,-1
987.59765625 -278.259765625 m 6,20,21
 987.59765625 -303.943359375 987.59765625 -303.943359375 969.294921875 -322.163085938 c 132,-1,22
 950.993164062 -340.383789062 950.993164062 -340.383789062 925.34375 -340.383789062 c 132,-1,23
 899.694335938 -340.383789062 899.694335938 -340.383789062 881.391601562 -322.163085938 c 132,-1,24
 863.088867188 -303.943359375 863.088867188 -303.943359375 863.088867188 -278.259765625 c 6,25,-1
 863.088867188 563.986328125 l 6,26,27
 863.088867188 589.688476562 863.088867188 589.688476562 881.390625 607.9140625 c 132,-1,28
 899.692382812 626.138671875 899.692382812 626.138671875 925.34375 626.138671875 c 132,-1,29
 950.995117188 626.138671875 950.995117188 626.138671875 969.296875 607.9140625 c 132,-1,30
 987.59765625 589.688476562 987.59765625 589.688476562 987.59765625 563.986328125 c 6,31,-1
 987.59765625 -278.259765625 l 6,20,21
EndSplineSet
Validated: 524289
EndChar

StartChar: gravecomb
Encoding: 768 768 120
Width: 0
LayerCount: 2
Fore
SplineSet
1107.66210938 1343.84277344 m 2,0,-1
 948.32421875 1446.16894531 l 2,1,2
 926.556091869 1460.14856369 926.556091869 1460.14856369 921.04296875 1485.45581055 c 128,-1,3
 915.529845631 1510.7630574 915.529845631 1510.7630574 929.509765625 1532.53125 c 128,-1,4
 943.489507818 1554.29956968 943.489507818 1554.29956968 968.797119141 1559.81347656 c 128,-1,5
 994.104730463 1565.32738345 994.104730463 1565.32738345 1015.87304688 1551.34765625 c 2,6,-1
 1175.20898438 1449.02050781 l 2,7,8
 1196.97734998 1435.0400037 1196.97734998 1435.0400037 1202.49060059 1409.73327637 c 128,-1,9
 1208.00385119 1384.42654903 1208.00385119 1384.42654903 1194.0234375 1362.65820312 c 128,-1,10
 1180.04449435 1340.88925477 1180.04449435 1340.88925477 1154.73742676 1335.37573242 c 128,-1,11
 1129.43035916 1329.86221007 1129.43035916 1329.86221007 1107.66210938 1343.84277344 c 2,0,-1
EndSplineSet
Validated: 524289
EndChar

StartChar: uni0302
Encoding: 770 770 121
Width: 0
LayerCount: 2
Fore
SplineSet
1095.05761719 1491.08105469 m 5,0,-1
 983.825195312 1568.68847656 l 6,1,2
 961.416992188 1581.62597656 961.416992188 1581.62597656 954.71484375 1606.64257812 c 132,-1,3
 948.012695312 1631.66015625 948.012695312 1631.66015625 960.94921875 1654.06542969 c 132,-1,4
 973.884765625 1676.47070312 973.884765625 1676.47070312 998.900390625 1683.17480469 c 132,-1,5
 1023.91601562 1689.87890625 1023.91601562 1689.87890625 1046.32519531 1676.94238281 c 6,6,-1
 1157.55761719 1599.33398438 l 6,7,8
 1179.96289062 1586.3984375 1179.96289062 1586.3984375 1186.66601562 1561.38085938 c 132,-1,9
 1193.37011719 1536.36230469 1193.37011719 1536.36230469 1180.43457031 1513.95800781 c 132,-1,10
 1167.49902344 1491.55273438 1167.49902344 1491.55273438 1142.48144531 1484.84960938 c 132,-1,11
 1117.46289062 1478.14550781 1117.46289062 1478.14550781 1095.05761719 1491.08105469 c 5,0,-1
928.208007812 1491.08105469 m 5,12,13
 905.803710938 1478.14550781 905.803710938 1478.14550781 880.78515625 1484.84960938 c 132,-1,14
 855.766601562 1491.55273438 855.766601562 1491.55273438 842.831054688 1513.95800781 c 132,-1,15
 829.895507812 1536.36328125 829.895507812 1536.36328125 836.599609375 1561.38085938 c 132,-1,16
 843.302734375 1586.3984375 843.302734375 1586.3984375 865.708007812 1599.33398438 c 6,17,-1
 976.940429688 1676.94238281 l 6,18,19
 999.349609375 1689.87890625 999.349609375 1689.87890625 1024.36523438 1683.17480469 c 132,-1,20
 1049.38183594 1676.47070312 1049.38183594 1676.47070312 1062.31738281 1654.06542969 c 132,-1,21
 1075.25390625 1631.66015625 1075.25390625 1631.66015625 1068.55078125 1606.64257812 c 132,-1,22
 1061.84765625 1581.62597656 1061.84765625 1581.62597656 1039.44042969 1568.68847656 c 6,23,-1
 928.208007812 1491.08105469 l 5,12,13
EndSplineSet
Validated: 524293
EndChar

StartChar: acutecomb
Encoding: 769 769 123
Width: 0
LayerCount: 2
Fore
SplineSet
1015.87207031 1343.84277344 m 6,0,1
 994.103808239 1329.86222921 994.103808239 1329.86222921 968.796630859 1335.37573242 c 132,-1,2
 943.48945348 1340.88923564 943.48945348 1340.88923564 929.509765625 1362.65820312 c 132,-1,3
 915.52999652 1384.42649262 915.52999652 1384.42649262 921.043457031 1409.73327637 c 132,-1,4
 926.556917542 1435.04006011 926.556917542 1435.04006011 948.325195312 1449.02050781 c 6,5,-1
 1107.66113281 1551.34765625 l 6,6,7
 1129.42944922 1565.32738345 1129.42944922 1565.32738345 1154.73706055 1559.81347656 c 132,-1,8
 1180.04467187 1554.29956968 1180.04467187 1554.29956968 1194.02441406 1532.53125 c 132,-1,9
 1208.00433406 1510.7630574 1208.00433406 1510.7630574 1202.49121094 1485.45581055 c 132,-1,10
 1196.97808782 1460.14856369 1196.97808782 1460.14856369 1175.20996094 1446.16894531 c 6,11,-1
 1015.87207031 1343.84277344 l 6,0,1
EndSplineSet
Validated: 524289
EndChar

StartChar: AE
Encoding: 198 198 124
Width: 2048
LayerCount: 2
Fore
SplineSet
363.5078125 632.186523438 m 5,0,-1
 363.5078125 67.68359375 l 6,1,2
 363.5078125 41.9482421875 363.5078125 41.9482421875 345.338867188 23.7880859375 c 132,-1,3
 327.168945312 5.6279296875 327.168945312 5.6279296875 301.165039062 5.6279296875 c 4,4,5
 275.532226562 5.6279296875 275.532226562 5.6279296875 257.453125 23.8095703125 c 132,-1,6
 239.374023438 41.9912109375 239.374023438 41.9912109375 239.374023438 67.68359375 c 6,7,-1
 239.374023438 898.58984375 l 6,8,9
 239.374023438 922.515625 239.374023438 922.515625 255.924804688 940.552734375 c 6,10,-1
 648.190429688 1367.83105469 l 6,11,12
 666.39453125 1388.01757812 666.39453125 1388.01757812 693.981445312 1387.87890625 c 132,-1,13
 721.564453125 1387.80664062 721.564453125 1387.80664062 739.7734375 1367.47460938 c 6,14,-1
 1023.90332031 1053.15136719 l 5,15,-1
 1023.90332031 1325.24511719 l 6,16,17
 1023.90332031 1350.96289062 1023.90332031 1350.96289062 1041.97851562 1369.13183594 c 132,-1,18
 1060.0546875 1387.30078125 1060.0546875 1387.30078125 1085.6953125 1387.30078125 c 6,19,-1
 1746.64257812 1387.30078125 l 6,20,21
 1772.28320312 1387.30078125 1772.28320312 1387.30078125 1790.35839844 1369.13183594 c 132,-1,22
 1808.43359375 1350.96289062 1808.43359375 1350.96289062 1808.43359375 1325.24511719 c 132,-1,23
 1808.43359375 1299.55664062 1808.43359375 1299.55664062 1790.35644531 1281.39550781 c 132,-1,24
 1772.28027344 1263.234375 1772.28027344 1263.234375 1746.64257812 1263.234375 c 6,25,-1
 1148.03808594 1263.234375 l 5,26,-1
 1148.03808594 756.297851562 l 5,27,-1
 1468.58105469 756.297851562 l 6,28,29
 1494.27441406 756.297851562 1494.27441406 756.297851562 1512.59960938 738.102539062 c 132,-1,30
 1530.92480469 719.908203125 1530.92480469 719.908203125 1530.92480469 694.2421875 c 132,-1,31
 1530.92480469 668.6015625 1530.92480469 668.6015625 1512.59570312 650.39453125 c 132,-1,32
 1494.26660156 632.186523438 1494.26660156 632.186523438 1468.58105469 632.186523438 c 6,33,-1
 1148.03808594 632.186523438 l 5,34,-1
 1148.03808594 129.739257812 l 5,35,-1
 1746.64257812 129.739257812 l 6,36,37
 1772.27539062 129.739257812 1772.27539062 129.739257812 1790.35449219 111.557617188 c 132,-1,38
 1808.43359375 93.3759765625 1808.43359375 93.3759765625 1808.43359375 67.68359375 c 132,-1,39
 1808.43359375 41.9912109375 1808.43359375 41.9912109375 1790.35449219 23.8095703125 c 132,-1,40
 1772.27539062 5.6279296875 1772.27539062 5.6279296875 1746.64257812 5.6279296875 c 6,41,-1
 1085.6953125 5.6279296875 l 6,42,43
 1060.0546875 5.6279296875 1060.0546875 5.6279296875 1041.97851562 23.796875 c 132,-1,44
 1023.90332031 41.9658203125 1023.90332031 41.9658203125 1023.90332031 67.68359375 c 6,45,-1
 1023.90332031 632.186523438 l 5,46,-1
 363.5078125 632.186523438 l 5,0,-1
1023.90332031 868.095703125 m 5,47,-1
 693.4296875 1233.71777344 l 5,48,-1
 363.5078125 874.452148438 l 5,49,-1
 363.5078125 756.297851562 l 5,50,-1
 1023.90332031 756.297851562 l 5,51,-1
 1023.90332031 868.095703125 l 5,47,-1
EndSplineSet
Validated: 524289
EndChar

StartChar: uni0308
Encoding: 776 776 127
Width: 0
LayerCount: 2
Fore
SplineSet
878.1796875 1502.34863281 m 2,0,1
 878.1796875 1489.5895241 878.1796875 1489.5895241 869.102894593 1480.55306283 c 128,-1,2
 860.026101687 1471.51660156 860.026101687 1471.51660156 847.258789062 1471.51660156 c 2,3,-1
 742.348632812 1471.51660156 l 2,4,5
 729.581320188 1471.51660156 729.581320188 1471.51660156 720.504527282 1480.55306283 c 128,-1,6
 711.427734375 1489.5895241 711.427734375 1489.5895241 711.427734375 1502.34863281 c 2,7,-1
 711.427734375 1606.22167969 l 2,8,9
 711.427734375 1618.9807884 711.427734375 1618.9807884 720.504527282 1628.01724967 c 128,-1,10
 729.581320188 1637.05371094 729.581320188 1637.05371094 742.348632812 1637.05371094 c 2,11,-1
 847.258789062 1637.05371094 l 2,12,13
 860.026101687 1637.05371094 860.026101687 1637.05371094 869.102894593 1628.01724967 c 128,-1,14
 878.1796875 1618.9807884 878.1796875 1618.9807884 878.1796875 1606.22167969 c 2,15,-1
 878.1796875 1502.34863281 l 2,0,1
816.559570312 1533.18164062 m 1,16,-1
 816.559570312 1575.38867188 l 1,17,-1
 773.048828125 1575.38867188 l 1,18,-1
 773.048828125 1533.18164062 l 1,19,-1
 816.559570312 1533.18164062 l 1,16,-1
1333.1796875 1502.24902344 m 2,20,21
 1333.1796875 1489.48982212 1333.1796875 1489.48982212 1324.10284782 1480.45291887 c 128,-1,22
 1315.02600814 1471.41601562 1315.02600814 1471.41601562 1302.25878906 1471.41601562 c 2,23,-1
 1197.34863281 1471.41601562 l 2,24,25
 1184.58141374 1471.41601562 1184.58141374 1471.41601562 1175.50457406 1480.45291887 c 128,-1,26
 1166.42773438 1489.48982212 1166.42773438 1489.48982212 1166.42773438 1502.24902344 c 2,27,-1
 1166.42773438 1606.12109375 l 2,28,29
 1166.42773438 1618.88029507 1166.42773438 1618.88029507 1175.50457406 1627.91719831 c 128,-1,30
 1184.58141374 1636.95410156 1184.58141374 1636.95410156 1197.34863281 1636.95410156 c 2,31,-1
 1302.25878906 1636.95410156 l 2,32,33
 1315.02600814 1636.95410156 1315.02600814 1636.95410156 1324.10284782 1627.91719831 c 128,-1,34
 1333.1796875 1618.88029507 1333.1796875 1618.88029507 1333.1796875 1606.12109375 c 2,35,-1
 1333.1796875 1502.24902344 l 2,20,21
1271.55957031 1533.08105469 m 1,36,-1
 1271.55957031 1575.2890625 l 1,37,-1
 1228.04882812 1575.2890625 l 1,38,-1
 1228.04882812 1533.08105469 l 1,39,-1
 1271.55957031 1533.08105469 l 1,36,-1
EndSplineSet
Validated: 524289
EndChar

StartChar: tildecomb
Encoding: 771 771 128
Width: 0
LayerCount: 2
Fore
SplineSet
736.959960938 1457.14746094 m 2,0,1
 713.680593818 1445.86098474 713.680593818 1445.86098474 689.211303711 1454.35131836 c 128,-1,2
 664.742013604 1462.84165198 664.742013604 1462.84165198 653.456054688 1486.12109375 c 128,-1,3
 642.169498131 1509.40042191 642.169498131 1509.40042191 650.659423828 1533.86987305 c 128,-1,4
 659.149349525 1558.33932418 659.149349525 1558.33932418 682.428710938 1569.62597656 c 2,5,-1
 824.63671875 1638.57128906 l 2,6,7
 851.903605209 1651.78953584 851.903605209 1651.78953584 879.168945312 1638.57128906 c 2,8,-1
 994.111328125 1582.84375 l 1,9,-1
 1109.04980469 1638.57128906 l 2,10,11
 1132.32979534 1649.85725744 1132.32979534 1649.85725744 1156.80102539 1641.36706543 c 128,-1,12
 1181.27225544 1632.87687342 1181.27225544 1632.87687342 1192.55957031 1609.59765625 c 128,-1,13
 1203.84569757 1586.31667711 1203.84569757 1586.31667711 1195.35510254 1561.84814453 c 128,-1,14
 1186.86450751 1537.37961195 1186.86450751 1537.37961195 1163.58984375 1526.09277344 c 2,15,-1
 1021.37988281 1457.14746094 l 2,16,17
 994.112019763 1443.92719432 994.112019763 1443.92719432 966.845703125 1457.14746094 c 2,18,-1
 851.903320312 1512.87402344 l 1,19,-1
 736.959960938 1457.14746094 l 2,0,1
EndSplineSet
Validated: 524289
EndChar

StartChar: uni0327
Encoding: 807 807 131
Width: 0
LayerCount: 2
Fore
SplineSet
1021 -182.615234375 m 2,0,1
 993.405273438 -182.615234375 993.405273438 -182.615234375 973.870117188 -202.150390625 c 128,-1,2
 954.334960938 -221.685546875 954.334960938 -221.685546875 954.334960938 -249.280273438 c 128,-1,3
 954.334960938 -276.875 954.334960938 -276.875 973.870117188 -296.41015625 c 128,-1,4
 993.405273438 -315.9453125 993.405273438 -315.9453125 1021 -315.9453125 c 2,5,-1
 1161.62011719 -315.9453125 l 2,6,7
 1189.21168182 -315.9453125 1189.21168182 -315.9453125 1208.74609375 -296.4140625 c 2,8,-1
 1273.27636719 -231.893554688 l 2,9,10
 1292.81542969 -212.357654104 1292.81542969 -212.357654104 1292.81542969 -184.759765625 c 2,11,-1
 1292.81542969 -86.7001953125 l 2,12,13
 1292.81542969 -59.103887852 1292.81542969 -59.103887852 1273.28027344 -39.5703125 c 2,14,-1
 1193.47949219 40.2294921875 l 2,15,16
 1173.94433594 59.7646484375 1173.94433594 59.7646484375 1146.34960938 59.7646484375 c 2,17,-1
 1087.66503906 59.7646484375 l 1,18,-1
 1087.66503906 87.6796875 l 2,19,20
 1087.66503906 115.274414062 1087.66503906 115.274414062 1068.12988281 134.809570312 c 128,-1,21
 1048.59472656 154.344726562 1048.59472656 154.344726562 1021 154.344726562 c 128,-1,22
 993.405273438 154.344726562 993.405273438 154.344726562 973.870117188 134.809570312 c 128,-1,23
 954.334960938 115.274414062 954.334960938 115.274414062 954.334960938 87.6796875 c 2,24,-1
 954.334960938 -6.900390625 l 2,25,26
 954.334960938 -34.4951171875 954.334960938 -34.4951171875 973.870117188 -54.0302734375 c 128,-1,27
 993.405273438 -73.5654296875 993.405273438 -73.5654296875 1021 -73.5654296875 c 2,28,-1
 1118.75488281 -73.5654296875 l 1,29,-1
 1159.48535156 -114.295898438 l 1,30,-1
 1159.48535156 -157.162109375 l 1,31,-1
 1134.02832031 -182.615234375 l 1,32,-1
 1021 -182.615234375 l 2,0,1
EndSplineSet
Validated: 524297
EndChar

StartChar: dotlessi
Encoding: 305 305 136
Width: 2048
LayerCount: 2
Fore
SplineSet
975.154296875 128.75 m 5,0,-1
 975.154296875 844.743164062 l 5,1,-1
 819.08984375 844.743164062 l 6,2,3
 793.510742188 844.743164062 793.510742188 844.743164062 775.486328125 862.875 c 132,-1,4
 757.461914062 881.0078125 757.461914062 881.0078125 757.461914062 906.637695312 c 132,-1,5
 757.461914062 932.29296875 757.461914062 932.29296875 775.482421875 950.412109375 c 132,-1,6
 793.502929688 968.53125 793.502929688 968.53125 819.08984375 968.53125 c 6,7,-1
 1036.78222656 968.53125 l 6,8,9
 1062.41113281 968.53125 1062.41113281 968.53125 1080.6328125 950.390625 c 132,-1,10
 1098.85449219 932.250976562 1098.85449219 932.250976562 1098.85449219 906.637695312 c 6,11,-1
 1098.85449219 128.75 l 5,12,-1
 1229.64746094 128.75 l 6,13,14
 1255.26855469 128.75 1255.26855469 128.75 1273.49316406 110.596679688 c 132,-1,15
 1291.71875 92.443359375 1291.71875 92.443359375 1291.71875 66.8564453125 c 132,-1,16
 1291.71875 41.2431640625 1291.71875 41.2431640625 1273.49707031 23.1025390625 c 132,-1,17
 1255.27636719 4.9619140625 1255.27636719 4.9619140625 1229.64746094 4.9619140625 c 6,18,-1
 819.08984375 4.9619140625 l 6,19,20
 793.502929688 4.9619140625 793.502929688 4.9619140625 775.482421875 23.0810546875 c 132,-1,21
 757.461914062 41.201171875 757.461914062 41.201171875 757.461914062 66.8564453125 c 132,-1,22
 757.461914062 92.486328125 757.461914062 92.486328125 775.486328125 110.618164062 c 132,-1,23
 793.510742188 128.75 793.510742188 128.75 819.08984375 128.75 c 6,24,-1
 975.154296875 128.75 l 5,0,-1
EndSplineSet
Validated: 524289
EndChar

StartChar: divide
Encoding: 247 247 138
Width: 2048
LayerCount: 2
Fore
SplineSet
952.575195312 1229.91308594 m 2,0,-1
 1148.3671875 1229.91308594 l 2,1,2
 1172.55076615 1229.91308594 1172.55076615 1229.91308594 1189.74413307 1212.79583522 c 128,-1,3
 1206.9375 1195.67858451 1206.9375 1195.67858451 1206.9375 1171.50976562 c 2,4,-1
 1206.9375 986.009765625 l 2,5,6
 1206.9375 961.841039347 1206.9375 961.841039347 1189.74417985 944.724230611 c 128,-1,7
 1172.55085971 927.607421875 1172.55085971 927.607421875 1148.3671875 927.607421875 c 2,8,-1
 952.575195312 927.607421875 l 2,9,10
 928.391523107 927.607421875 928.391523107 927.607421875 911.19820296 944.724230611 c 128,-1,11
 894.004882812 961.841039347 894.004882812 961.841039347 894.004882812 986.009765625 c 2,12,-1
 894.004882812 1171.50976562 l 2,13,14
 894.004882812 1195.67858451 894.004882812 1195.67858451 911.198249738 1212.79583522 c 128,-1,15
 928.391616663 1229.91308594 928.391616663 1229.91308594 952.575195312 1229.91308594 c 2,0,-1
1010.72753906 1113.10742188 m 1,16,-1
 1010.72753906 1044.41308594 l 1,17,-1
 1090.21582031 1044.41308594 l 1,18,-1
 1090.21582031 1113.10742188 l 1,19,-1
 1010.72753906 1113.10742188 l 1,16,-1
952.575195312 627.564453125 m 2,20,-1
 1148.78613281 627.564453125 l 2,21,22
 1172.9291911 627.564453125 1172.9291911 627.564453125 1189.93334555 610.467090599 c 128,-1,23
 1206.9375 593.369728073 1206.9375 593.369728073 1206.9375 569.161132812 c 2,24,-1
 1206.9375 383.661132812 l 2,25,26
 1206.9375 359.452537552 1206.9375 359.452537552 1189.93334555 342.355175026 c 128,-1,27
 1172.9291911 325.2578125 1172.9291911 325.2578125 1148.78613281 325.2578125 c 2,28,-1
 952.575195312 325.2578125 l 2,29,30
 928.391616663 325.2578125 928.391616663 325.2578125 911.198249738 342.375063214 c 128,-1,31
 894.004882812 359.492313929 894.004882812 359.492313929 894.004882812 383.661132812 c 2,32,-1
 894.004882812 569.161132812 l 2,33,34
 894.004882812 593.329951696 894.004882812 593.329951696 911.198249738 610.447202411 c 128,-1,35
 928.391616663 627.564453125 928.391616663 627.564453125 952.575195312 627.564453125 c 2,20,-1
1011.14550781 510.758789062 m 1,36,-1
 1011.14550781 442.063476562 l 1,37,-1
 1090.21582031 442.063476562 l 1,38,-1
 1090.21582031 510.758789062 l 1,39,-1
 1011.14550781 510.758789062 l 1,36,-1
752.8046875 718.072265625 m 2,40,41
 727.663050174 718.072265625 727.663050174 718.072265625 709.693829775 735.982129428 c 128,-1,42
 691.724609375 753.891993231 691.724609375 753.891993231 691.724609375 779.110351562 c 128,-1,43
 691.724609375 804.301140413 691.724609375 804.301140413 709.695422625 822.204281144 c 128,-1,44
 727.666235875 840.107421875 727.666235875 840.107421875 752.8046875 840.107421875 c 2,45,-1
 1347.7109375 840.107421875 l 2,46,47
 1372.84948207 840.107421875 1372.84948207 840.107421875 1390.82073713 822.204235254 c 128,-1,48
 1408.79199219 804.301048632 1408.79199219 804.301048632 1408.79199219 779.110351562 c 128,-1,49
 1408.79199219 753.892085054 1408.79199219 753.892085054 1390.82233001 735.982175339 c 128,-1,50
 1372.85266784 718.072265625 1372.85266784 718.072265625 1347.7109375 718.072265625 c 2,51,-1
 752.8046875 718.072265625 l 2,40,41
EndSplineSet
Validated: 524289
EndChar

StartChar: questiondown
Encoding: 191 191 146
Width: 2048
LayerCount: 2
Fore
SplineSet
1297.21484375 -14.6669921875 m 6,0,1
 1315.21972656 3.470703125 1315.21972656 3.470703125 1341.00488281 3.470703125 c 132,-1,2
 1366.79003906 3.470703125 1366.79003906 3.470703125 1384.96875 -14.6904296875 c 132,-1,3
 1403.13378906 -32.8388671875 1403.13378906 -32.8388671875 1403.13378906 -58.501953125 c 132,-1,4
 1403.13378906 -84.287109375 1403.13378906 -84.287109375 1384.79492188 -102.424804688 c 6,5,-1
 1153.17480469 -334.356445312 l 6,6,7
 1134.4375 -352.5390625 1134.4375 -352.5390625 1109.16210938 -352.5390625 c 6,8,-1
 732.16796875 -352.5390625 l 6,9,10
 706.201171875 -352.5390625 706.201171875 -352.5390625 688.155273438 -334.356445312 c 6,11,-1
 462.758789062 -108.826171875 l 6,12,13
 444.532226562 -90.4599609375 444.532226562 -90.4599609375 444.532226562 -64.947265625 c 6,14,-1
 444.532226562 136.975585938 l 6,15,16
 444.532226562 162.022460938 444.532226562 162.022460938 462.314453125 180.587890625 c 6,17,-1
 866.427734375 588.61328125 l 5,18,-1
 866.427734375 679.706054688 l 6,19,20
 866.427734375 705.405273438 866.427734375 705.405273438 884.483398438 723.568359375 c 132,-1,21
 902.57421875 741.767578125 902.57421875 741.767578125 928.243164062 741.767578125 c 132,-1,22
 953.9140625 741.767578125 953.9140625 741.767578125 972.172851562 723.580078125 c 132,-1,23
 990.462890625 705.362304688 990.462890625 705.362304688 990.462890625 679.706054688 c 6,24,-1
 990.462890625 563.094726562 l 6,25,26
 990.462890625 537.736328125 990.462890625 537.736328125 972.235351562 519.438476562 c 6,27,-1
 568.56640625 111.45703125 l 5,28,-1
 568.56640625 -39.2509765625 l 5,29,-1
 757.953125 -228.415039062 l 5,30,-1
 1083.37695312 -228.415039062 l 5,31,-1
 1297.21484375 -14.6669921875 l 6,0,1
804.0859375 985.53125 m 6,32,33
 804.0859375 1003.74023438 804.0859375 1003.74023438 817.053710938 1016.65039062 c 132,-1,34
 829.99609375 1029.53613281 829.99609375 1029.53613281 848.216796875 1029.53613281 c 6,35,-1
 997.946289062 1029.53613281 l 6,36,37
 1016.16796875 1029.53613281 1016.16796875 1029.53613281 1029.11035156 1016.65039062 c 132,-1,38
 1042.07714844 1003.74121094 1042.07714844 1003.74121094 1042.07714844 985.53125 c 6,39,-1
 1042.07714844 837.283203125 l 6,40,41
 1042.07714844 819.072265625 1042.07714844 819.072265625 1029.11035156 806.163085938 c 132,-1,42
 1016.16796875 793.278320312 1016.16796875 793.278320312 997.946289062 793.278320312 c 6,43,-1
 848.216796875 793.278320312 l 6,44,45
 829.99609375 793.278320312 829.99609375 793.278320312 817.053710938 806.163085938 c 132,-1,46
 804.0859375 819.072265625 804.0859375 819.072265625 804.0859375 837.283203125 c 6,47,-1
 804.0859375 985.53125 l 6,32,33
892.033203125 941.526367188 m 5,48,-1
 892.033203125 881.288085938 l 5,49,-1
 954.130859375 881.288085938 l 5,50,-1
 954.130859375 941.526367188 l 5,51,-1
 892.033203125 941.526367188 l 5,48,-1
EndSplineSet
Validated: 524289
EndChar

StartChar: ring
Encoding: 730 730 147
Width: 2048
LayerCount: 2
Fore
SplineSet
1062.4296875 1620.86425781 m 2,0,-1
 1154.7265625 1528.56738281 l 2,1,2
 1169.4753418 1513.81787109 1169.4753418 1513.81787109 1169.4753418 1492.95898437 c 128,-1,3
 1169.4753418 1472.10009766 1169.4753418 1472.10009766 1154.7265625 1457.35058594 c 2,4,-1
 1061.16015625 1363.78417969 l 2,5,6
 1046.41064453 1349.03466797 1046.41064453 1349.03466797 1025.5513916 1349.03466797 c 128,-1,7
 1004.69213867 1349.03466797 1004.69213867 1349.03466797 989.943359375 1363.78417969 c 2,8,-1
 896.978515625 1456.74804688 l 2,9,10
 882.158752649 1471.56933562 882.158752649 1471.56933562 882.23046875 1492.53027344 c 128,-1,11
 882.302178996 1513.48950012 882.302178996 1513.48950012 897.225585938 1528.20996094 c 2,12,-1
 991.4609375 1621.109375 l 2,13,14
 1006.23899691 1635.68458707 1006.23899691 1635.68458707 1026.99584961 1635.61291504 c 128,-1,15
 1047.75270231 1635.54124301 1047.75270231 1635.54124301 1062.4296875 1620.86425781 c 2,0,-1
1026.57714844 1514.28613281 m 1,16,-1
 1004.05078125 1492.109375 l 1,17,-1
 1025.55273438 1470.60839844 l 1,18,-1
 1047.90332031 1492.95898438 l 1,19,-1
 1026.57714844 1514.28613281 l 1,16,-1
EndSplineSet
Validated: 524289
EndChar

StartChar: uni030A
Encoding: 778 778 149
Width: 0
LayerCount: 2
Fore
SplineSet
1062.4296875 1620.86425781 m 2,0,-1
 1154.7265625 1528.56738281 l 2,1,2
 1169.4753418 1513.81787109 1169.4753418 1513.81787109 1169.4753418 1492.95898437 c 128,-1,3
 1169.4753418 1472.10009766 1169.4753418 1472.10009766 1154.7265625 1457.35058594 c 2,4,-1
 1061.16015625 1363.78417969 l 2,5,6
 1046.41064453 1349.03466797 1046.41064453 1349.03466797 1025.5513916 1349.03466797 c 128,-1,7
 1004.69213867 1349.03466797 1004.69213867 1349.03466797 989.943359375 1363.78417969 c 2,8,-1
 896.978515625 1456.74804688 l 2,9,10
 882.158752649 1471.56933562 882.158752649 1471.56933562 882.23046875 1492.53027344 c 128,-1,11
 882.302178996 1513.48950012 882.302178996 1513.48950012 897.225585938 1528.20996094 c 2,12,-1
 991.4609375 1621.109375 l 2,13,14
 1006.23899691 1635.68458707 1006.23899691 1635.68458707 1026.99584961 1635.61291504 c 128,-1,15
 1047.75270231 1635.54124301 1047.75270231 1635.54124301 1062.4296875 1620.86425781 c 2,0,-1
1026.57714844 1514.28613281 m 1,16,-1
 1004.05078125 1492.109375 l 1,17,-1
 1025.55273438 1470.60839844 l 1,18,-1
 1047.90332031 1492.95898438 l 1,19,-1
 1026.57714844 1514.28613281 l 1,16,-1
EndSplineSet
Validated: 524289
EndChar

StartChar: uni0307
Encoding: 775 775 199
Width: 0
LayerCount: 2
Fore
SplineSet
1078.06152344 1494.59082031 m 2,0,1
 1078.06152344 1484.61832379 1078.06152344 1484.61832379 1070.96750864 1477.55574393 c 128,-1,2
 1063.87349384 1470.49316406 1063.87349384 1470.49316406 1053.89550781 1470.49316406 c 2,3,-1
 971.901367188 1470.49316406 l 2,4,5
 961.92272424 1470.49316406 961.92272424 1470.49316406 954.82854962 1477.55570621 c 128,-1,6
 947.734375 1484.61824836 947.734375 1484.61824836 947.734375 1494.59082031 c 2,7,-1
 947.734375 1575.7734375 l 2,8,9
 947.734375 1585.7454454 947.734375 1585.7454454 954.828634317 1592.80826958 c 128,-1,10
 961.922893633 1599.87109375 961.922893633 1599.87109375 971.901367188 1599.87109375 c 2,11,-1
 1053.89550781 1599.87109375 l 2,12,13
 1063.87332445 1599.87109375 1063.87332445 1599.87109375 1070.96742394 1592.80823186 c 128,-1,14
 1078.06152344 1585.74536997 1078.06152344 1585.74536997 1078.06152344 1575.7734375 c 2,15,-1
 1078.06152344 1494.59082031 l 2,0,1
EndSplineSet
Validated: 524289
EndChar

StartChar: Oslash
Encoding: 216 216 212
Width: 2048
LayerCount: 2
Fore
SplineSet
607.276367188 195.756835938 m 5,0,-1
 433.379882812 22.34765625 l 6,1,2
 416.407226562 5.3173828125 416.407226562 5.3173828125 392.345703125 5.3349609375 c 132,-1,3
 368.284179688 5.3525390625 368.284179688 5.3525390625 351.311523438 22.3916015625 c 4,4,5
 334.009765625 39.4599609375 334.009765625 39.4599609375 334.009765625 63.576171875 c 132,-1,6
 334.009765625 87.69140625 334.009765625 87.69140625 351.311523438 104.7265625 c 6,7,-1
 542.952148438 296.323242188 l 5,8,-1
 542.952148438 1120.24804688 l 6,9,10
 542.952148438 1145.04589844 542.952148438 1145.04589844 560.697265625 1161.90332031 c 6,11,-1
 770.969726562 1367.38574219 l 6,12,13
 788.280273438 1383.93261719 788.280273438 1383.93261719 811.782226562 1383.93261719 c 6,14,-1
 1219.02050781 1383.93261719 l 6,15,16
 1241.95117188 1383.93261719 1241.95117188 1383.93261719 1258.50195312 1368.76074219 c 6,17,-1
 1445.70703125 1197.88085938 l 5,18,-1
 1615.16796875 1366.89746094 l 6,19,20
 1632.1328125 1383.93554688 1632.1328125 1383.93554688 1656.42382812 1383.92675781 c 132,-1,21
 1680.71484375 1383.91699219 1680.71484375 1383.91699219 1697.6796875 1366.85253906 c 132,-1,22
 1714.64746094 1349.78515625 1714.64746094 1349.78515625 1714.64746094 1325.66894531 c 132,-1,23
 1714.64746094 1301.55273438 1714.64746094 1301.55273438 1697.6796875 1284.51855469 c 6,24,-1
 1499.828125 1087.02148438 l 5,25,-1
 1499.828125 286.963867188 l 6,26,27
 1499.828125 262.91015625 1499.828125 262.91015625 1482.52734375 245.884765625 c 6,28,-1
 1260.27636719 22.48046875 l 6,29,30
 1243.66113281 5.3125 1243.66113281 5.3125 1219.02050781 5.3125 c 6,31,-1
 811.782226562 5.3125 l 6,32,33
 786.546875 5.3125 786.546875 5.3125 769.1953125 23.6337890625 c 6,34,-1
 607.276367188 195.756835938 l 5,0,-1
1363.63867188 1115.50097656 m 5,35,-1
 1196.83984375 1267.48339844 l 5,36,-1
 835.293945312 1267.48339844 l 5,37,-1
 659.623046875 1095.71582031 l 5,38,-1
 659.623046875 412.594726562 l 5,39,-1
 1363.63867188 1115.50097656 l 5,35,-1
689.344726562 278.090820312 m 5,40,-1
 836.625 121.76171875 l 5,41,-1
 1195.06542969 121.76171875 l 5,42,-1
 1383.15722656 310.962890625 l 5,43,-1
 1383.15722656 970.75 l 5,44,-1
 689.344726562 278.090820312 l 5,40,-1
EndSplineSet
Validated: 524289
EndChar

StartChar: oslash
Encoding: 248 248 213
Width: 2048
LayerCount: 2
Fore
SplineSet
627.778320312 176.166015625 m 5,0,-1
 551.975585938 252.014648438 l 6,1,2
 533.693359375 270.395507812 533.693359375 270.395507812 533.693359375 295.877929688 c 6,3,-1
 533.693359375 682.640625 l 6,4,5
 533.693359375 708.125 533.693359375 708.125 551.975585938 726.50390625 c 6,6,-1
 778.045898438 952.893554688 l 6,7,8
 796.885742188 971.1328125 796.885742188 971.1328125 822.189453125 971.1328125 c 6,9,-1
 1221.71386719 971.1328125 l 6,10,11
 1247.71582031 971.1328125 1247.71582031 971.1328125 1265.85839844 952.893554688 c 6,12,-1
 1329.62109375 888.877929688 l 5,13,-1
 1392.93847656 952.759765625 l 6,14,15
 1410.66503906 970.912109375 1410.66503906 970.912109375 1436.24609375 971.110351562 c 132,-1,16
 1461.828125 971.30859375 1461.828125 971.30859375 1479.88867188 953.427734375 c 132,-1,17
 1497.99023438 935.467773438 1497.99023438 935.467773438 1498.17089844 909.9921875 c 132,-1,18
 1498.35058594 884.516601562 1498.35058594 884.516601562 1480.33496094 866.323242188 c 6,19,-1
 1417.01757812 801.774414062 l 5,20,-1
 1492.37402344 726.50390625 l 6,21,22
 1510.20996094 708.573242188 1510.20996094 708.573242188 1510.20996094 682.640625 c 6,23,-1
 1510.20996094 295.877929688 l 6,24,25
 1510.20996094 269.946289062 1510.20996094 269.946289062 1492.37402344 252.014648438 c 6,26,-1
 1265.85839844 25.669921875 l 6,27,28
 1247.78515625 7.4306640625 1247.78515625 7.4306640625 1221.71386719 7.4306640625 c 6,29,-1
 822.189453125 7.4306640625 l 6,30,31
 796.813476562 7.4306640625 796.813476562 7.4306640625 778.045898438 25.669921875 c 6,32,-1
 714.728515625 89.0625 l 5,33,-1
 652.302734375 25.7587890625 l 6,34,35
 634.573242188 7.603515625 634.573242188 7.603515625 608.994140625 7.4140625 c 132,-1,36
 583.416015625 7.224609375 583.416015625 7.224609375 565.352539062 25.1357421875 c 132,-1,37
 547.250976562 43.0615234375 547.250976562 43.0615234375 547.0703125 68.5380859375 c 132,-1,38
 546.890625 94.013671875 546.890625 94.013671875 564.90625 112.239257812 c 6,39,-1
 627.778320312 176.166015625 l 5,0,-1
1242.67089844 800.306640625 m 5,40,-1
 1195.8515625 846.927734375 l 5,41,-1
 958.633789062 846.927734375 l 5,42,-1
 848.051757812 846.927734375 l 5,43,-1
 658.098632812 656.971679688 l 5,44,-1
 658.098632812 321.546875 l 5,45,-1
 715.173828125 264.73828125 l 5,46,-1
 1242.67089844 800.306640625 l 5,40,-1
802.124023438 177.634765625 m 5,47,-1
 848.051757812 131.590820312 l 5,48,-1
 1084.37792969 131.590820312 l 5,49,-1
 1195.8515625 131.590820312 l 5,50,-1
 1385.8046875 321.546875 l 5,51,-1
 1385.8046875 656.971679688 l 5,52,-1
 1329.62109375 713.202148438 l 5,53,-1
 802.124023438 177.634765625 l 5,47,-1
EndSplineSet
Validated: 524289
EndChar

StartChar: caron
Encoding: 711 711 214
Width: 2048
LayerCount: 2
Fore
SplineSet
1011.63476562 1548.73535156 m 1,0,-1
 1095.05761719 1606.94726562 l 2,1,2
 1117.46290763 1619.88003219 1117.46290763 1619.88003219 1142.48266602 1613.17431641 c 128,-1,3
 1167.50242441 1606.46860062 1167.50242441 1606.46860062 1180.43457031 1584.06347656 c 128,-1,4
 1193.36978685 1561.66407793 1193.36978685 1561.66407793 1186.66625977 1536.64550781 c 128,-1,5
 1179.96273269 1511.6269377 1179.96273269 1511.6269377 1157.56152344 1498.6875 c 2,6,-1
 1046.32617188 1421.08203125 l 2,7,8
 1030.17160799 1411.75948062 1030.17160799 1411.75948062 1011.63085938 1412.80761719 c 0,9,10
 993.092346536 1411.75745152 993.092346536 1411.75745152 976.940429688 1421.08203125 c 2,11,-1
 865.708007812 1498.68945312 l 2,12,13
 843.303122219 1511.62554627 843.303122219 1511.62554627 836.599487305 1536.64318848 c 128,-1,14
 829.89585239 1561.66083068 829.89585239 1561.66083068 842.831054688 1584.06640625 c 128,-1,15
 855.767116976 1606.4712384 855.767116976 1606.4712384 880.78515625 1613.17492676 c 128,-1,16
 905.803195524 1619.87861512 905.803195524 1619.87861512 928.208007812 1606.94335938 c 2,17,-1
 1011.63476562 1548.73535156 l 1,0,-1
EndSplineSet
Validated: 524289
EndChar

StartChar: uni030C
Encoding: 780 780 216
Width: 0
LayerCount: 2
Fore
SplineSet
821.634765625 1548.73535156 m 5,0,-1
 905.057617188 1606.94726562 l 6,1,2
 927.462890625 1619.87988281 927.462890625 1619.87988281 952.482421875 1613.17382812 c 132,-1,3
 977.501953125 1606.46875 977.501953125 1606.46875 990.434570312 1584.06347656 c 132,-1,4
 1003.37011719 1561.6640625 1003.37011719 1561.6640625 996.666015625 1536.64550781 c 132,-1,5
 989.962890625 1511.62695312 989.962890625 1511.62695312 967.561523438 1498.6875 c 6,6,-1
 856.326171875 1421.08203125 l 6,7,8
 840.171875 1411.75976562 840.171875 1411.75976562 821.630859375 1412.80761719 c 4,9,10
 803.092773438 1411.7578125 803.092773438 1411.7578125 786.940429688 1421.08203125 c 6,11,-1
 675.708007812 1498.68945312 l 6,12,13
 653.302734375 1511.62597656 653.302734375 1511.62597656 646.599609375 1536.64355469 c 132,-1,14
 639.895507812 1561.66113281 639.895507812 1561.66113281 652.831054688 1584.06640625 c 132,-1,15
 665.767578125 1606.47167969 665.767578125 1606.47167969 690.78515625 1613.17480469 c 132,-1,16
 715.802734375 1619.87890625 715.802734375 1619.87890625 738.208007812 1606.94335938 c 6,17,-1
 821.634765625 1548.73535156 l 5,0,-1
EndSplineSet
Validated: 524289
EndChar

StartChar: Ldot
Encoding: 319 319 238
Width: 2048
LayerCount: 2
Fore
SplineSet
533.229492188 65.36328125 m 2,0,-1
 533.229492188 1322.97070312 l 2,1,2
 533.229492188 1348.63183594 533.229492188 1348.63183594 551.484375 1366.80664062 c 128,-1,3
 569.740234375 1384.98046875 569.740234375 1384.98046875 595.416992188 1384.98046875 c 128,-1,4
 621.09375 1384.98046875 621.09375 1384.98046875 639.349609375 1366.80664062 c 128,-1,5
 657.604492188 1348.63183594 657.604492188 1348.63183594 657.604492188 1322.97070312 c 2,6,-1
 657.604492188 127.373046875 l 1,7,-1
 1447.38574219 127.373046875 l 2,8,9
 1473.0546875 127.373046875 1473.0546875 127.373046875 1491.31347656 109.185546875 c 128,-1,10
 1509.57226562 90.9990234375 1509.57226562 90.9990234375 1509.57226562 65.36328125 c 128,-1,11
 1509.57226562 39.7021484375 1509.57226562 39.7021484375 1491.31738281 21.5283203125 c 128,-1,12
 1473.06152344 3.353515625 1473.06152344 3.353515625 1447.38574219 3.353515625 c 2,13,-1
 595.416992188 3.353515625 l 2,14,15
 569.740234375 3.353515625 569.740234375 3.353515625 551.484375 21.5283203125 c 128,-1,16
 533.229492188 39.7021484375 533.229492188 39.7021484375 533.229492188 65.36328125 c 2,0,-1
998.061523438 494.590820312 m 6,17,18
 998.061523438 485.065128894 998.061523438 485.065128894 990.967773438 477.555664062 c 4,19,20
 984.454791985 470.493164062 984.454791985 470.493164062 973.895507812 470.493164062 c 6,21,-1
 891.901367188 470.493164062 l 6,22,23
 882 470 882 470 874.828125 477.555664062 c 132,-1,24
 867.734375 485.289596593 867.734375 485.289596593 867.734375 494.590820312 c 6,25,-1
 867.734375 575.7734375 l 6,26,27
 868 586 868 586 874.829101562 592.80859375 c 4,28,29
 881.871461353 599.87109375 881.871461353 599.87109375 891.901367188 599.87109375 c 6,30,-1
 973.895507812 599.87109375 l 6,31,32
 984 600 984 600 990.967773438 592.80859375 c 4,33,34
 998.061523438 585.940433078 998.061523438 585.940433078 998.061523438 575.7734375 c 6,35,-1
 998.061523438 494.590820312 l 6,17,18
EndSplineSet
Validated: 524289
EndChar

StartChar: uni0306
Encoding: 774 774 239
Width: 0
LayerCount: 2
Fore
SplineSet
822.627929688 1566.16015625 m 2,0,1
 810.345214844 1578.44287109 810.345214844 1578.44287109 810.345214844 1595.83251953 c 128,-1,2
 810.345214844 1613.22216797 810.345214844 1613.22216797 822.627929688 1625.50488281 c 128,-1,3
 834.909912109 1637.78686523 834.909912109 1637.78686523 852.299804688 1637.78686523 c 128,-1,4
 869.689697266 1637.78686523 869.689697266 1637.78686523 881.971679688 1625.50488281 c 2,5,-1
 951.779296875 1555.69726562 l 1,6,-1
 1009.90625 1555.69726562 l 1,7,-1
 1080.31054688 1626.09960938 l 2,8,9
 1092.59179688 1638.3815918 1092.59179688 1638.3815918 1109.98303223 1638.3815918 c 128,-1,10
 1127.37426758 1638.3815918 1127.37426758 1638.3815918 1139.65625 1626.09960938 c 128,-1,11
 1151.9375 1613.81689453 1151.9375 1613.81689453 1151.9375 1596.42724609 c 128,-1,12
 1151.9375 1579.03759766 1151.9375 1579.03759766 1139.65625 1566.75488281 c 2,13,-1
 1056.95898438 1484.0625 l 2,14,15
 1044.66949388 1471.77148438 1044.66949388 1471.77148438 1027.2890625 1471.77148438 c 2,16,-1
 934.397460938 1471.77148438 l 2,17,18
 917.015076433 1471.77148438 917.015076433 1471.77148438 904.725585938 1484.0625 c 2,19,-1
 822.627929688 1566.16015625 l 2,0,1
EndSplineSet
Validated: 524289
EndChar

StartChar: uni0237
Encoding: 567 567 250
Width: 2048
LayerCount: 2
Fore
SplineSet
1037.98730469 985.8046875 m 2,0,1
 1037.98730469 1012.45629866 1037.98730469 1012.45629866 1056.97042473 1031.36486808 c 128,-1,2
 1075.95354477 1050.2734375 1075.95354477 1050.2734375 1102.640625 1050.2734375 c 128,-1,3
 1129.32770523 1050.2734375 1129.32770523 1050.2734375 1148.31082527 1031.36486808 c 128,-1,4
 1167.29394531 1012.45629866 1167.29394531 1012.45629866 1167.29394531 985.8046875 c 2,5,-1
 1167.29394531 -75.85546875 l 2,6,7
 1167.29394531 -102.356635144 1167.29394531 -102.356635144 1148.36035156 -121.436523438 c 2,8,-1
 878.200195312 -391.319335938 l 2,9,10
 859.38442689 -410.20703125 859.38442689 -410.20703125 832.942382812 -410.20703125 c 2,11,-1
 597.879882812 -410.20703125 l 2,12,13
 571.192633364 -410.20703125 571.192633364 -410.20703125 552.209597932 -391.298743856 c 128,-1,14
 533.2265625 -372.390456461 533.2265625 -372.390456461 533.2265625 -345.73828125 c 128,-1,15
 533.2265625 -319.059595755 533.2265625 -319.059595755 552.205619244 -300.164563502 c 128,-1,16
 571.184675988 -281.26953125 571.184675988 -281.26953125 597.879882812 -281.26953125 c 2,17,-1
 806.157226562 -281.26953125 l 1,18,-1
 1037.98730469 -49.1630859375 l 1,19,-1
 1037.98730469 985.8046875 l 2,0,1
EndSplineSet
Validated: 524289
EndChar

StartChar: uni0123
Encoding: 291 291 260
Width: 2048
LayerCount: 2
Fore
SplineSet
1509.70019531 -138.548828125 m 2,0,1
 1509.70019531 -163.967773438 1509.70019531 -163.967773438 1491.53808594 -182.268554688 c 2,2,-1
 1256.32617188 -417.348632812 l 2,3,4
 1238.34667969 -435.46484375 1238.34667969 -435.46484375 1212.47265625 -435.46484375 c 2,5,-1
 830.640625 -435.46484375 l 2,6,7
 805.03515625 -435.46484375 805.03515625 -435.46484375 786.830078125 -417.340820312 c 128,-1,8
 768.625976562 -399.217773438 768.625976562 -399.217773438 768.625976562 -373.627929688 c 128,-1,9
 768.625976562 -348.063476562 768.625976562 -348.063476562 786.833984375 -329.927734375 c 128,-1,10
 805.041992188 -311.791015625 805.041992188 -311.791015625 830.640625 -311.791015625 c 2,11,-1
 1187.22460938 -311.791015625 l 1,12,-1
 1386.11328125 -112.9453125 l 1,13,-1
 1386.11328125 -1.408203125 l 1,14,-1
 811.592773438 -1.408203125 l 2,15,16
 785.71875 -1.408203125 785.71875 -1.408203125 767.740234375 16.708984375 c 2,17,-1
 552.904296875 231.45703125 l 2,18,19
 535.185546875 249.310546875 535.185546875 249.310546875 535.185546875 275.176757812 c 2,20,-1
 535.185546875 691.427734375 l 2,21,22
 535.185546875 717.646484375 535.185546875 717.646484375 553.790039062 735.767578125 c 2,23,-1
 768.625976562 944.756835938 l 2,24,25
 786.581054688 962.297851562 786.581054688 962.297851562 811.592773438 962.297851562 c 2,26,-1
 1447.68554688 962.297851562 l 2,27,28
 1473.29101562 962.297851562 1473.29101562 962.297851562 1491.49511719 944.173828125 c 128,-1,29
 1509.70019531 926.05078125 1509.70019531 926.05078125 1509.70019531 900.4609375 c 2,30,-1
 1509.70019531 -138.548828125 l 2,0,1
1386.11328125 122.266601562 m 1,31,-1
 1386.11328125 838.623046875 l 1,32,-1
 836.841796875 838.623046875 l 1,33,-1
 658.771484375 665.336914062 l 1,34,-1
 658.771484375 300.780273438 l 1,35,-1
 837.28515625 122.266601562 l 1,36,-1
 1386.11328125 122.266601562 l 1,31,-1
1117.04003906 1340.48730469 m 6,37,-1
 1214.76757812 1232.00390625 l 6,38,39
 1229 1216 1229 1216 1228.69140625 1195.74804688 c 4,40,41
 1228.99567034 1175.29110146 1228.99567034 1175.29110146 1214.76757812 1159.49707031 c 6,42,-1
 1117.04003906 1051.01367188 l 6,43,44
 1102 1034 1102 1034 1079.6171875 1033.18261719 c 4,45,46
 1057 1032 1057 1032 1040.54492188 1047.01855469 c 132,-1,47
 1024 1062 1024 1062 1022.71386719 1084.44238281 c 4,48,49
 1021.98867858 1107.35774744 1021.98867858 1107.35774744 1036.54980469 1123.52050781 c 6,50,-1
 1101.61914062 1195.74707031 l 5,51,-1
 1036.54980469 1267.98046875 l 6,52,53
 1022 1284 1022 1284 1022.71386719 1307.05273438 c 4,54,55
 1024 1329 1024 1329 1040.54492188 1344.4765625 c 4,56,57
 1057 1359 1057 1359 1079.6171875 1358.31542969 c 4,58,59
 1102 1357 1102 1357 1117.04003906 1340.48730469 c 6,37,-1
EndSplineSet
Validated: 524289
EndChar

StartChar: uni0328
Encoding: 808 808 262
Width: 0
LayerCount: 2
Fore
SplineSet
1414.29296875 180.487304688 m 2,0,1
 1429.2988381 197.147635398 1429.2988381 197.147635398 1451.71582031 198.315795898 c 128,-1,2
 1474.13280253 199.483956399 1474.13280253 199.483956399 1490.78808594 184.4765625 c 128,-1,3
 1507.44899729 169.470170173 1507.44899729 169.470170173 1508.61950684 147.053222656 c 128,-1,4
 1509.79001638 124.636275139 1509.79001638 124.636275139 1494.78320312 107.98046875 c 2,5,-1
 1429.71386719 35.7470703125 l 1,6,-1
 1494.78320312 -36.4794921875 l 2,7,8
 1509.78998231 -53.1404562195 1509.78998231 -53.1404562195 1508.61950684 -75.5577392578 c 128,-1,9
 1507.44903136 -97.9750222962 1507.44903136 -97.9750222962 1490.78808594 -112.981445312 c 128,-1,10
 1474.13227496 -127.988253474 1474.13227496 -127.988253474 1451.71582031 -126.817749023 c 128,-1,11
 1429.29936567 -125.647244573 1429.29936567 -125.647244573 1414.29296875 -108.986328125 c 2,12,-1
 1316.56542969 -0.5029296875 l 2,13,14
 1302.64208984 14.9475097656 1302.64208984 14.9475097656 1302.64208984 35.7479248047 c 128,-1,15
 1302.64208984 56.5483398437 1302.64208984 56.5483398437 1316.56542969 72.00390625 c 2,16,-1
 1414.29296875 180.487304688 l 2,0,1
EndSplineSet
Validated: 524289
EndChar

StartChar: uni0326
Encoding: 806 806 269
Width: 0
LayerCount: 2
Fore
SplineSet
1397.04003906 180.487304688 m 2,0,-1
 1494.76757812 72.00390625 l 2,1,2
 1508.69091797 56.5483398437 1508.69091797 56.5483398437 1508.69091797 35.7479248047 c 128,-1,3
 1508.69091797 14.9475097656 1508.69091797 14.9475097656 1494.76757812 -0.5029296875 c 2,4,-1
 1397.04003906 -108.986328125 l 2,5,6
 1382.03364214 -125.647244573 1382.03364214 -125.647244573 1359.6171875 -126.817749023 c 128,-1,7
 1337.20073286 -127.988253474 1337.20073286 -127.988253474 1320.54492188 -112.981445312 c 128,-1,8
 1303.88397645 -97.9750222962 1303.88397645 -97.9750222962 1302.71350098 -75.5577392578 c 128,-1,9
 1301.5430255 -53.1404562195 1301.5430255 -53.1404562195 1316.54980469 -36.4794921875 c 2,10,-1
 1381.61914062 35.7470703125 l 1,11,-1
 1316.54980469 107.98046875 l 2,12,13
 1301.54299143 124.636275139 1301.54299143 124.636275139 1302.71350098 147.053222656 c 128,-1,14
 1303.88401053 169.470170173 1303.88401053 169.470170173 1320.54492188 184.4765625 c 128,-1,15
 1337.20020529 199.483956399 1337.20020529 199.483956399 1359.6171875 198.315795898 c 128,-1,16
 1382.03416971 197.147635398 1382.03416971 197.147635398 1397.04003906 180.487304688 c 2,0,-1
EndSplineSet
Validated: 524289
EndChar

StartChar: uni0162
Encoding: 354 354 277
Width: 1175
LayerCount: 2
Fore
SplineSet
657.040039062 50.4873046875 m 6
 754.767578125 -57.99609375 l 6
 768.69140625 -73.4521484375 768.69140625 -73.4521484375 768.69140625 -94.251953125 c 4
 768.69140625 -115.052734375 768.69140625 -115.052734375 754.767578125 -130.502929688 c 6
 657.040039062 -238.986328125 l 6
 642.033203125 -255.647460938 642.033203125 -255.647460938 619.6171875 -256.817382812 c 4
 597.201171875 -257.98828125 597.201171875 -257.98828125 580.544921875 -242.981445312 c 4
 563.883789062 -227.974609375 563.883789062 -227.974609375 562.713867188 -205.557617188 c 4
 561.54296875 -183.140625 561.54296875 -183.140625 576.549804688 -166.479492188 c 6
 641.619140625 -94.2529296875 l 5
 576.549804688 -22.01953125 l 6
 561.54296875 -5.36328125 561.54296875 -5.36328125 562.713867188 17.052734375 c 4
 563.883789062 39.4697265625 563.883789062 39.4697265625 580.544921875 54.4765625 c 4
 597.200195312 69.484375 597.200195312 69.484375 619.6171875 68.3154296875 c 4
 642.034179688 67.1474609375 642.034179688 67.1474609375 657.040039062 50.4873046875 c 6
EndSplineSet
Refer: 55 84 N 1 0 0 1 0 0 3
Validated: 622597
EndChar

StartChar: uni0163
Encoding: 355 355 278
Width: 845
LayerCount: 2
Fore
SplineSet
677.040039062 40.4873046875 m 6
 774.767578125 -67.99609375 l 6
 788.69140625 -83.4521484375 788.69140625 -83.4521484375 788.69140625 -104.251953125 c 4
 788.69140625 -125.052734375 788.69140625 -125.052734375 774.767578125 -140.502929688 c 6
 677.040039062 -248.986328125 l 6
 662.033203125 -265.647460938 662.033203125 -265.647460938 639.6171875 -266.817382812 c 4
 617.201171875 -267.98828125 617.201171875 -267.98828125 600.544921875 -252.981445312 c 4
 583.883789062 -237.974609375 583.883789062 -237.974609375 582.713867188 -215.557617188 c 4
 581.54296875 -193.140625 581.54296875 -193.140625 596.549804688 -176.479492188 c 6
 661.619140625 -104.252929688 l 5
 596.549804688 -32.01953125 l 6
 581.54296875 -15.36328125 581.54296875 -15.36328125 582.713867188 7.052734375 c 4
 583.883789062 29.4697265625 583.883789062 29.4697265625 600.544921875 44.4765625 c 4
 617.200195312 59.484375 617.200195312 59.484375 639.6171875 58.3154296875 c 4
 662.034179688 57.1474609375 662.034179688 57.1474609375 677.040039062 40.4873046875 c 6
EndSplineSet
Refer: 87 116 N 1 0 0 1 0 0 3
Validated: 622597
EndChar

StartChar: tcaron
Encoding: 357 357 279
Width: 2048
LayerCount: 2
Fore
SplineSet
1157.04003906 1360.48730469 m 2,0,-1
 1254.76757812 1252.00390625 l 2,1,2
 1268.69140625 1236.54785156 1268.69140625 1236.54785156 1268.69140625 1215.74804688 c 128,-1,3
 1268.69140625 1194.94726562 1268.69140625 1194.94726562 1254.76757812 1179.49707031 c 2,4,-1
 1157.04003906 1071.01367188 l 2,5,6
 1142.03320312 1054.35253906 1142.03320312 1054.35253906 1119.6171875 1053.18261719 c 128,-1,7
 1097.20117188 1052.01171875 1097.20117188 1052.01171875 1080.54492188 1067.01855469 c 128,-1,8
 1063.88378906 1082.02539062 1063.88378906 1082.02539062 1062.71386719 1104.44238281 c 128,-1,9
 1061.54296875 1126.859375 1061.54296875 1126.859375 1076.54980469 1143.52050781 c 2,10,-1
 1141.61914062 1215.74707031 l 1,11,-1
 1076.54980469 1287.98046875 l 2,12,13
 1061.54296875 1304.63671875 1061.54296875 1304.63671875 1062.71386719 1327.05273438 c 128,-1,14
 1063.88378906 1349.46972656 1063.88378906 1349.46972656 1080.54492188 1364.4765625 c 128,-1,15
 1097.20019531 1379.484375 1097.20019531 1379.484375 1119.6171875 1378.31542969 c 128,-1,16
 1142.03417969 1377.14746094 1142.03417969 1377.14746094 1157.04003906 1360.48730469 c 2,0,-1
862.741210938 845.895507812 m 1,17,-1
 688.262695312 845.895507812 l 2,18,19
 662 846 662 846 643.9765625 863.892578125 c 0,20,21
 626 882 626 882 625.790039062 907.69921875 c 0,22,23
 626 933 626 933 643.978515625 951.467773438 c 0,24,25
 662.47078907 969.458007812 662.47078907 969.458007812 688.262695312 969.458007812 c 2,26,-1
 862.741210938 969.458007812 l 1,27,-1
 862.741210938 1139.1171875 l 2,28,29
 863 1165 863 1165 880.879882812 1183.13769531 c 0,30,31
 899 1201 899 1201 924.768554688 1201.3671875 c 0,32,33
 951 1201 951 1201 968.900390625 1183.1171875 c 0,34,35
 987.241210938 1164.7585548 987.241210938 1164.7585548 987.241210938 1139.1171875 c 2,36,-1
 987.241210938 969.458007812 l 1,37,-1
 1259 969.458007812 l 2,38,39
 1285 969 1285 969 1303.15625 951.4296875 c 0,40,41
 1321 933 1321 933 1321.47265625 907.69921875 c 0,42,43
 1321 882 1321 882 1303.15722656 863.930664062 c 0,44,45
 1284.8941875 845.895507812 1284.8941875 845.895507812 1259 845.895507812 c 2,46,-1
 987.241210938 845.895507812 l 1,47,-1
 987.241210938 299.65625 l 1,48,-1
 1155.91894531 130.755859375 l 1,49,-1
 1259 130.755859375 l 2,50,51
 1285 131 1285 131 1303.13378906 112.498046875 c 0,52,53
 1321 94 1321 94 1321.47265625 68.4609375 c 0,54,55
 1321 43 1321 43 1303.12988281 24.4365234375 c 0,56,57
 1285.16325441 6.166015625 1285.16325441 6.166015625 1259 6.166015625 c 2,58,-1
 1130.48339844 6.166015625 l 2,59,60
 1104.71750259 5.99815962596 1104.71750259 5.99815962596 1086.30664062 24.4169921875 c 2,61,-1
 881.037109375 229.775390625 l 2,62,63
 862.741210938 248.261479236 862.741210938 248.261479236 862.741210938 273.819335938 c 2,64,-1
 862.741210938 845.895507812 l 1,17,-1
EndSplineSet
Validated: 524289
EndChar

StartChar: napostrophe
Encoding: 329 329 282
Width: 2048
LayerCount: 2
Fore
SplineSet
521.134765625 1203.47558594 m 5,0,-1
 461.461914062 1082.51757812 l 6,1,2
 450.872070312 1060.92578125 450.872070312 1060.92578125 426.676757812 1060.515625 c 4,3,4
 402.850585938 1060.05664062 402.850585938 1060.05664062 391.325195312 1081.21679688 c 6,5,-1
 321.75390625 1210.15039062 l 6,6,7
 316.946289062 1219.06542969 316.946289062 1219.06542969 316.946289062 1228.90039062 c 6,8,-1
 316.946289062 1361.90625 l 6,9,10
 316.946289062 1378.24414062 316.946289062 1378.24414062 328.568359375 1389.81542969 c 132,-1,11
 340.19140625 1401.38671875 340.19140625 1401.38671875 356.5390625 1401.38671875 c 6,12,-1
 490.874023438 1401.38671875 l 6,13,14
 507.221679688 1401.38671875 507.221679688 1401.38671875 518.844726562 1389.81542969 c 132,-1,15
 530.467773438 1378.24414062 530.467773438 1378.24414062 530.467773438 1361.90625 c 6,16,-1
 530.467773438 1228.90039062 l 6,17,18
 530.467773438 1214.27539062 530.467773438 1214.27539062 521.134765625 1203.47558594 c 5,0,-1
451.563476562 1240.72167969 m 5,19,-1
 451.563476562 1322.42578125 l 5,20,-1
 395.849609375 1322.42578125 l 5,21,-1
 395.849609375 1238.88378906 l 5,22,-1
 424.4140625 1185.99804688 l 5,23,-1
 451.563476562 1240.72167969 l 5,19,-1
658.423828125 67.4580078125 m 2,24,25
 658.423828125 41.7802734375 658.423828125 41.7802734375 640.134765625 23.5634765625 c 128,-1,26
 621.845703125 5.3466796875 621.845703125 5.3466796875 596.133789062 5.3466796875 c 128,-1,27
 570.46484375 5.3466796875 570.46484375 5.3466796875 552.375976562 23.54296875 c 128,-1,28
 534.288085938 41.73828125 534.288085938 41.73828125 534.288085938 67.4580078125 c 2,29,-1
 534.288085938 905.884765625 l 2,30,31
 534.288085938 932.23046875 534.288085938 932.23046875 552.530273438 949.932617188 c 0,32,33
 570.622070312 968.163085938 570.622070312 968.163085938 596.579101562 967.952148438 c 2,34,-1
 1222.15039062 967.685546875 l 2,35,36
 1247.69433594 967.547851562 1247.69433594 967.547851562 1265.75292969 949.487304688 c 2,37,-1
 1491.77734375 723.0625 l 2,38,39
 1509.57519531 705.127929688 1509.57519531 705.127929688 1509.57519531 679.192382812 c 2,40,-1
 1509.57519531 67.4580078125 l 2,41,42
 1509.57519531 41.73828125 1509.57519531 41.73828125 1491.48730469 23.54296875 c 128,-1,43
 1473.3984375 5.3466796875 1473.3984375 5.3466796875 1447.72949219 5.3466796875 c 128,-1,44
 1422.01757812 5.3466796875 1422.01757812 5.3466796875 1403.72851562 23.5634765625 c 128,-1,45
 1385.43945312 41.7802734375 1385.43945312 41.7802734375 1385.43945312 67.4580078125 c 2,46,-1
 1385.43945312 653.520507812 l 1,47,-1
 1195.89941406 843.68359375 l 1,48,-1
 658.423828125 843.327148438 l 1,49,-1
 658.423828125 67.4580078125 l 2,24,25
EndSplineSet
Validated: 524289
EndChar

StartChar: uni030B
Encoding: 779 779 286
Width: 0
LayerCount: 2
Fore
SplineSet
1015.87207031 1343.84277344 m 2,0,1
 994.103808239 1329.86222921 994.103808239 1329.86222921 968.796630859 1335.37573242 c 128,-1,2
 943.48945348 1340.88923564 943.48945348 1340.88923564 929.509765625 1362.65820312 c 128,-1,3
 915.52999652 1384.42649262 915.52999652 1384.42649262 921.043457031 1409.73327637 c 128,-1,4
 926.556917542 1435.04006011 926.556917542 1435.04006011 948.325195312 1449.02050781 c 2,5,-1
 1107.66113281 1551.34765625 l 2,6,7
 1129.42944922 1565.32738345 1129.42944922 1565.32738345 1154.73706055 1559.81347656 c 128,-1,8
 1180.04467187 1554.29956968 1180.04467187 1554.29956968 1194.02441406 1532.53125 c 128,-1,9
 1208.00433406 1510.7630574 1208.00433406 1510.7630574 1202.49121094 1485.45581055 c 128,-1,10
 1196.97808782 1460.14856369 1196.97808782 1460.14856369 1175.20996094 1446.16894531 c 2,11,-1
 1015.87207031 1343.84277344 l 2,0,1
1278.95214844 1343.84277344 m 2,12,13
 1257.18388636 1329.86222921 1257.18388636 1329.86222921 1231.87670898 1335.37573242 c 128,-1,14
 1206.5695316 1340.88923564 1206.5695316 1340.88923564 1192.58984375 1362.65820312 c 128,-1,15
 1178.61007465 1384.42649262 1178.61007465 1384.42649262 1184.12353516 1409.73327637 c 128,-1,16
 1189.63699567 1435.04006011 1189.63699567 1435.04006011 1211.40527344 1449.02050781 c 2,17,-1
 1370.74023438 1551.34765625 l 2,18,19
 1392.50932293 1565.3273216 1392.50932293 1565.3273216 1417.81665039 1559.81347656 c 128,-1,20
 1443.12397785 1554.29963153 1443.12397785 1554.29963153 1457.10449219 1532.53125 c 128,-1,21
 1471.08450002 1510.76311381 1471.08450002 1510.76311381 1465.57116699 1485.45581055 c 128,-1,22
 1460.05783397 1460.14850729 1460.05783397 1460.14850729 1438.2890625 1446.16894531 c 2,23,-1
 1278.95214844 1343.84277344 l 2,12,13
EndSplineSet
Validated: 524289
EndChar

StartChar: uni0304
Encoding: 772 772 289
Width: 0
LayerCount: 2
Fore
SplineSet
890.291015625 1466.74511719 m 2,0,1
 867.868652344 1466.74511719 867.868652344 1466.74511719 851.996337891 1482.61743164 c 128,-1,2
 836.124023438 1498.48974609 836.124023438 1498.48974609 836.124023438 1520.91210938 c 128,-1,3
 836.124023438 1543.33325195 836.124023438 1543.33325195 851.996459961 1559.20568848 c 128,-1,4
 867.868896484 1575.078125 867.868896484 1575.078125 890.291015625 1575.078125 c 2,5,-1
 1152.48144531 1575.078125 l 2,6,7
 1174.90619196 1575.078125 1174.90619196 1575.078125 1190.77926785 1559.20583956 c 128,-1,8
 1206.65234375 1543.33355411 1206.65234375 1543.33355411 1206.65234375 1520.91210938 c 128,-1,9
 1206.65234375 1498.48944394 1206.65234375 1498.48944394 1190.77938993 1482.61728056 c 128,-1,10
 1174.90643611 1466.74511719 1174.90643611 1466.74511719 1152.48144531 1466.74511719 c 2,11,-1
 890.291015625 1466.74511719 l 2,0,1
EndSplineSet
Validated: 524289
EndChar

StartChar: uni0335
Encoding: 821 821 299
Width: 0
LayerCount: 2
Fore
SplineSet
890.291015625 1466.74511719 m 2,0,1
 867.868652344 1466.74511719 867.868652344 1466.74511719 851.996337891 1482.61743164 c 128,-1,2
 836.124023438 1498.48974609 836.124023438 1498.48974609 836.124023438 1520.91210938 c 128,-1,3
 836.124023438 1543.33325195 836.124023438 1543.33325195 851.996459961 1559.20568848 c 128,-1,4
 867.868896484 1575.078125 867.868896484 1575.078125 890.291015625 1575.078125 c 2,5,-1
 1152.48144531 1575.078125 l 2,6,7
 1174.90619196 1575.078125 1174.90619196 1575.078125 1190.77926785 1559.20583956 c 128,-1,8
 1206.65234375 1543.33355411 1206.65234375 1543.33355411 1206.65234375 1520.91210938 c 128,-1,9
 1206.65234375 1498.48944394 1206.65234375 1498.48944394 1190.77938993 1482.61728056 c 128,-1,10
 1174.90643611 1466.74511719 1174.90643611 1466.74511719 1152.48144531 1466.74511719 c 2,11,-1
 890.291015625 1466.74511719 l 2,0,1
EndSplineSet
Validated: 524289
EndChar

StartChar: hbar
Encoding: 295 295 300
Width: 2048
LayerCount: 2
Fore
SplineSet
658.37109375 851.583984375 m 1,0,-1
 760.12109375 953.556640625 l 2,1,2
 778.208984375 971.853515625 778.208984375 971.853515625 804.301757812 971.853515625 c 2,3,-1
 1233.61328125 971.853515625 l 2,4,5
 1259.65625 971.853515625 1259.65625 971.853515625 1277.79394531 953.645507812 c 2,6,-1
 1491.11132812 740.329101562 l 2,7,8
 1509.40820312 721.890625 1509.40820312 721.890625 1509.40820312 696.282226562 c 2,9,-1
 1509.40820312 70.298828125 l 2,10,11
 1509.40820312 44.5185546875 1509.40820312 44.5185546875 1491.06738281 26.2587890625 c 128,-1,12
 1472.72753906 8 1472.72753906 8 1446.93066406 8 c 128,-1,13
 1421.17578125 8 1421.17578125 8 1403.03808594 26.2373046875 c 128,-1,14
 1384.89941406 44.4755859375 1384.89941406 44.4755859375 1384.89941406 70.298828125 c 2,15,-1
 1384.89941406 670.487304688 l 1,16,-1
 1207.72949219 847.299804688 l 1,17,-1
 830.185546875 847.299804688 l 1,18,-1
 658.37109375 675.0390625 l 1,19,-1
 658.37109375 70.298828125 l 2,20,21
 658.37109375 44.4755859375 658.37109375 44.4755859375 640.232421875 26.2373046875 c 128,-1,22
 622.094726562 8 622.094726562 8 596.33984375 8 c 0,23,24
 570.286132812 8 570.286132812 8 552.07421875 26.220703125 c 128,-1,25
 533.862304688 44.44140625 533.862304688 44.44140625 533.862304688 70.298828125 c 2,26,-1
 533.862304688 1326.28125 l 2,27,28
 533.862304688 1352.03613281 533.862304688 1352.03613281 552.20703125 1370.30859375 c 128,-1,29
 570.55078125 1388.58007812 570.55078125 1388.58007812 596.33984375 1388.58007812 c 128,-1,30
 622.086914062 1388.58007812 622.086914062 1388.58007812 640.228515625 1370.33007812 c 128,-1,31
 658.37109375 1352.07910156 658.37109375 1352.07910156 658.37109375 1326.28125 c 2,32,-1
 658.37109375 851.583984375 l 1,0,-1
490.291015625 1096.74511719 m 2,33,34
 468.261194318 1096.74511719 468.261194318 1096.74511719 451.99609375 1112.6171875 c 0,35,36
 436 1128 436 1128 436.124023438 1150.91113281 c 0,37,38
 436 1173 436 1173 451.99609375 1189.20605469 c 0,39,40
 468.079163575 1205.078125 468.079163575 1205.078125 490.291015625 1205.078125 c 2,41,-1
 822.481445312 1205.078125 l 6,42,43
 845 1205 845 1205 860.779296875 1189.20507812 c 4,44,45
 877 1173 877 1173 876.65234375 1150.91113281 c 4,46,47
 877 1128 877 1128 860.779296875 1112.6171875 c 4,48,49
 844.742471455 1096.74511719 844.742471455 1096.74511719 822.481445312 1096.74511719 c 6,50,-1
 490.291015625 1096.74511719 l 2,33,34
EndSplineSet
Validated: 524293
EndChar

StartChar: uni0336
Encoding: 822 822 301
Width: 0
LayerCount: 2
Fore
SplineSet
890.291015625 1466.74511719 m 2,0,1
 867.868652344 1466.74511719 867.868652344 1466.74511719 851.996337891 1482.61743164 c 128,-1,2
 836.124023438 1498.48974609 836.124023438 1498.48974609 836.124023438 1520.91210938 c 128,-1,3
 836.124023438 1543.33325195 836.124023438 1543.33325195 851.996459961 1559.20568848 c 128,-1,4
 867.868896484 1575.078125 867.868896484 1575.078125 890.291015625 1575.078125 c 2,5,-1
 1152.48144531 1575.078125 l 2,6,7
 1174.90619196 1575.078125 1174.90619196 1575.078125 1190.77926785 1559.20583956 c 128,-1,8
 1206.65234375 1543.33355411 1206.65234375 1543.33355411 1206.65234375 1520.91210938 c 128,-1,9
 1206.65234375 1498.48944394 1206.65234375 1498.48944394 1190.77938993 1482.61728056 c 128,-1,10
 1174.90643611 1466.74511719 1174.90643611 1466.74511719 1152.48144531 1466.74511719 c 2,11,-1
 890.291015625 1466.74511719 l 2,0,1
EndSplineSet
Validated: 524289
EndChar

StartChar: dcroat
Encoding: 273 273 302
Width: 2048
LayerCount: 2
Fore
SplineSet
1140.29101562 1096.74511719 m 2,0,1
 1118.26119432 1096.74511719 1118.26119432 1096.74511719 1101.99609375 1112.6171875 c 0,2,3
 1086 1128 1086 1128 1086.12402344 1150.91210938 c 0,4,5
 1086 1173 1086 1173 1101.99609375 1189.20605469 c 0,6,7
 1118.07916358 1205.078125 1118.07916358 1205.078125 1140.29101562 1205.078125 c 2,8,-1
 1582.48144531 1205.078125 l 2,9,10
 1605 1205 1605 1205 1620.77929688 1189.20605469 c 0,11,12
 1637 1173 1637 1173 1636.65234375 1150.91210938 c 0,13,14
 1637 1128 1637 1128 1620.77929688 1112.6171875 c 0,15,16
 1604.74247146 1096.74511719 1604.74247146 1096.74511719 1582.48144531 1096.74511719 c 2,17,-1
 1140.29101562 1096.74511719 l 2,0,1
1383.94433594 963.826171875 m 1,18,-1
 1383.94433594 1322.48144531 l 2,19,20
 1383.94433594 1348.16894531 1383.94433594 1348.16894531 1402.05761719 1366.29980469 c 128,-1,21
 1420.17089844 1384.43164062 1420.17089844 1384.43164062 1446.07226562 1384.43164062 c 0,22,23
 1471.67480469 1384.43164062 1471.67480469 1384.43164062 1489.71484375 1366.28320312 c 128,-1,24
 1507.75585938 1348.13476562 1507.75585938 1348.13476562 1507.75585938 1322.48144531 c 2,25,-1
 1507.75585938 64.482421875 l 2,26,27
 1507.75585938 38.8037109375 1507.75585938 38.8037109375 1489.71875 20.66796875 c 128,-1,28
 1471.68164062 2.5322265625 1471.68164062 2.5322265625 1446.07226562 2.5322265625 c 2,29,-1
 794.6171875 2.5322265625 l 2,30,31
 769.388671875 2.5322265625 769.388671875 2.5322265625 750.684570312 20.681640625 c 2,32,-1
 552.319335938 219.313476562 l 2,33,34
 534.125 237.647460938 534.125 237.647460938 534.125 263.11328125 c 2,35,-1
 534.125 688.290039062 l 2,36,37
 534.125 697.909179688 534.125 697.909179688 536.34375 704.3984375 c 0,38,39
 540.598632812 720.92578125 540.598632812 720.92578125 552.762695312 732.578125 c 2,40,-1
 770.654296875 946.120117188 l 2,41,42
 788.637695312 963.826171875 788.637695312 963.826171875 814.143554688 963.826171875 c 2,43,-1
 1383.94433594 963.826171875 l 1,18,-1
657.936523438 662.28515625 m 1,44,-1
 657.936523438 288.763671875 l 1,45,-1
 820.356445312 126.387695312 l 1,46,-1
 1383.94433594 126.387695312 l 1,47,-1
 1383.94433594 839.92578125 l 1,48,-1
 839.438476562 839.92578125 l 1,49,-1
 657.936523438 662.28515625 l 1,44,-1
EndSplineSet
Validated: 524293
EndChar

StartChar: Hbar
Encoding: 294 294 303
Width: 2048
LayerCount: 2
Fore
SplineSet
470.291015625 926.745117188 m 6,0,1
 448.260742188 926.745117188 448.260742188 926.745117188 431.99609375 942.6171875 c 4,2,3
 416 958 416 958 416.124023438 980.912109375 c 4,4,5
 416 1003 416 1003 431.99609375 1019.20605469 c 4,6,7
 448.079101562 1035.078125 448.079101562 1035.078125 470.291015625 1035.078125 c 6,8,-1
 1582.48144531 1035.078125 l 6,9,10
 1605 1035 1605 1035 1620.77929688 1019.20605469 c 4,11,12
 1637 1003 1637 1003 1636.65234375 980.912109375 c 4,13,14
 1637 958 1637 958 1620.77929688 942.6171875 c 4,15,16
 1604.7421875 926.745117188 1604.7421875 926.745117188 1582.48144531 926.745117188 c 6,17,-1
 470.291015625 926.745117188 l 6,0,1
534.091796875 71.1748046875 m 2,18,-1
 534.091796875 1327.04394531 l 2,19,20
 534.091796875 1352.70605469 534.091796875 1352.70605469 552.138671875 1370.86132812 c 128,-1,21
 570.186523438 1389.01660156 570.186523438 1389.01660156 595.797851562 1389.01660156 c 128,-1,22
 621.452148438 1389.01660156 621.452148438 1389.01660156 639.700195312 1370.83984375 c 128,-1,23
 657.948242188 1352.6640625 657.948242188 1352.6640625 657.948242188 1327.04394531 c 2,24,-1
 657.948242188 761.081054688 l 1,25,-1
 1386.43164062 761.081054688 l 1,26,-1
 1386.43164062 1327.04394531 l 2,27,28
 1386.43164062 1352.70605469 1386.43164062 1352.70605469 1404.47851562 1370.86132812 c 128,-1,29
 1422.52636719 1389.01660156 1422.52636719 1389.01660156 1448.13769531 1389.01660156 c 128,-1,30
 1473.79199219 1389.01660156 1473.79199219 1389.01660156 1492.04003906 1370.83984375 c 128,-1,31
 1510.28808594 1352.6640625 1510.28808594 1352.6640625 1510.28808594 1327.04394531 c 2,32,-1
 1510.28808594 71.1748046875 l 2,33,34
 1510.28808594 45.529296875 1510.28808594 45.529296875 1492.04394531 27.3662109375 c 128,-1,35
 1473.79882812 9.2021484375 1473.79882812 9.2021484375 1448.13769531 9.2021484375 c 128,-1,36
 1422.51855469 9.2021484375 1422.51855469 9.2021484375 1404.47558594 27.3447265625 c 128,-1,37
 1386.43164062 45.4873046875 1386.43164062 45.4873046875 1386.43164062 71.1748046875 c 2,38,-1
 1386.43164062 637.13671875 l 1,39,-1
 657.948242188 637.13671875 l 1,40,-1
 657.948242188 71.1748046875 l 2,41,42
 657.948242188 45.529296875 657.948242188 45.529296875 639.704101562 27.3662109375 c 128,-1,43
 621.458984375 9.2021484375 621.458984375 9.2021484375 595.797851562 9.2021484375 c 128,-1,44
 570.178710938 9.2021484375 570.178710938 9.2021484375 552.135742188 27.3447265625 c 128,-1,45
 534.091796875 45.4873046875 534.091796875 45.4873046875 534.091796875 71.1748046875 c 2,18,-1
EndSplineSet
Validated: 524293
EndChar

StartChar: Dcroat
Encoding: 272 272 304
Width: 2048
LayerCount: 2
Fore
SplineSet
595.622070312 1388.32128906 m 6,0,-1
 1233.40722656 1388.32128906 l 6,1,2
 1259.34179688 1388.32128906 1259.34179688 1388.32128906 1277.4375 1370.08691406 c 6,3,-1
 1492.25683594 1154.95703125 l 6,4,5
 1510.046875 1137.09765625 1510.046875 1137.09765625 1510.046875 1111.10351562 c 6,6,-1
 1510.046875 274.645507812 l 6,7,8
 1510.046875 248.140625 1510.046875 248.140625 1491.3671875 229.947265625 c 6,9,-1
 1276.54882812 23.267578125 l 6,10,11
 1258.50878906 5.921875 1258.50878906 5.921875 1233.40722656 5.921875 c 6,12,-1
 595.622070312 5.921875 l 6,13,14
 569.955078125 5.921875 569.955078125 5.921875 551.877929688 24.09765625 c 132,-1,15
 533.80078125 42.2734375 533.80078125 42.2734375 533.80078125 68.009765625 c 6,16,-1
 533.80078125 1326.23339844 l 6,17,18
 533.80078125 1351.96972656 533.80078125 1351.96972656 551.877929688 1370.14550781 c 132,-1,19
 569.955078125 1388.32128906 569.955078125 1388.32128906 595.622070312 1388.32128906 c 6,0,-1
657.888671875 1264.14453125 m 5,20,-1
 657.888671875 130.098632812 l 5,21,-1
 1208.5 130.098632812 l 5,22,-1
 1385.95898438 301.063476562 l 5,23,-1
 1385.95898438 1085.44042969 l 5,24,-1
 1207.61035156 1264.14453125 l 5,25,-1
 657.888671875 1264.14453125 l 5,20,-1
430.291015625 656.745117188 m 6,26,27
 408.261194318 656.745117188 408.261194318 656.745117188 391.99609375 672.6171875 c 4,28,29
 376 688 376 688 376.124023438 710.912109375 c 4,30,31
 376 733 376 733 391.99609375 749.206054688 c 4,32,33
 408.079163575 765.078125 408.079163575 765.078125 430.291015625 765.078125 c 6,34,-1
 922.481445312 765.078125 l 6,35,36
 945 765 945 765 960.779296875 749.206054688 c 4,37,38
 977 733 977 733 976.65234375 710.912109375 c 4,39,40
 977 688 977 688 960.779296875 672.6171875 c 4,41,42
 944.742471455 656.745117188 944.742471455 656.745117188 922.481445312 656.745117188 c 6,43,-1
 430.291015625 656.745117188 l 6,26,27
EndSplineSet
Validated: 524293
EndChar

StartChar: Tbar
Encoding: 358 358 305
Width: 2048
LayerCount: 2
Fore
SplineSet
955.124023438 1255.51464844 m 1,0,-1
 595.794921875 1255.51464844 l 2,1,2
 570.014648438 1255.51464844 570.014648438 1255.51464844 551.919921875 1273.6171875 c 128,-1,3
 533.826171875 1291.71972656 533.826171875 1291.71972656 533.826171875 1317.35351562 c 128,-1,4
 533.826171875 1342.98730469 533.826171875 1342.98730469 551.919921875 1361.08984375 c 128,-1,5
 570.014648438 1379.19238281 570.014648438 1379.19238281 595.794921875 1379.19238281 c 2,6,-1
 1447.42773438 1379.19238281 l 2,7,8
 1473.20800781 1379.19238281 1473.20800781 1379.19238281 1491.30175781 1361.08984375 c 128,-1,9
 1509.39550781 1342.98730469 1509.39550781 1342.98730469 1509.39550781 1317.35351562 c 128,-1,10
 1509.39550781 1291.71972656 1509.39550781 1291.71972656 1491.30175781 1273.6171875 c 128,-1,11
 1473.20800781 1255.51464844 1473.20800781 1255.51464844 1447.42773438 1255.51464844 c 2,12,-1
 1079.06054688 1255.51464844 l 1,13,-1
 1079.06054688 59.7861328125 l 2,14,15
 1079.06054688 34.2265625 1079.06054688 34.2265625 1060.84277344 16.0859375 c 128,-1,16
 1042.62402344 -2.0537109375 1042.62402344 -2.0537109375 1017.09277344 -2.0537109375 c 128,-1,17
 991.560546875 -2.0537109375 991.560546875 -2.0537109375 973.341796875 16.0859375 c 128,-1,18
 955.124023438 34.2255859375 955.124023438 34.2255859375 955.124023438 59.7861328125 c 2,19,-1
 955.124023438 1255.51464844 l 1,0,-1
760.291015625 926.745117188 m 2,20,21
 738.261194318 926.745117188 738.261194318 926.745117188 721.99609375 942.6171875 c 0,22,23
 706 958 706 958 706.124023438 980.912109375 c 0,24,25
 706 1003 706 1003 721.99609375 1019.20605469 c 0,26,27
 738.079163575 1035.078125 738.079163575 1035.078125 760.291015625 1035.078125 c 2,28,-1
 1262.48144531 1035.078125 l 6,29,30
 1285 1035 1285 1035 1300.77929688 1019.20605469 c 4,31,32
 1317 1003 1317 1003 1316.65234375 980.912109375 c 4,33,34
 1317 958 1317 958 1300.77929688 942.6171875 c 4,35,36
 1284.74247146 926.745117188 1284.74247146 926.745117188 1262.48144531 926.745117188 c 6,37,-1
 760.291015625 926.745117188 l 2,20,21
EndSplineSet
Validated: 524293
EndChar

